<svg width="60" height="60" viewBox="0 0 60 60" fill="none" xmlns="http://www.w3.org/2000/svg">
    <g opacity="0.6">
        <rect x="8" width="44" height="44" rx="22" fill="#C2C2C2"/>
        <path d="M39.2519 19.1576H38.1513C38.0613 19.1576 37.995 19.1358 37.9524 19.0923C37.9146 19.0432 37.8956 18.9669 37.8956 18.8634V13.5672C37.8956 13.4637 37.9146 13.3901 37.9524 13.3465C37.995 13.2975 38.0613 13.2729 38.1513 13.2729H40.3242C40.968 13.2729 41.4083 13.4201 41.645 13.7143C41.8817 14.0085 42 14.3927 42 14.8667V15.9129C42 16.3869 41.8817 16.7711 41.645 17.0653C41.4083 17.3595 40.968 17.5067 40.3242 17.5067C39.8732 17.5067 39.5076 17.8723 39.5076 18.3233V18.8634C39.5076 18.9669 39.4863 19.0432 39.4437 19.0923C39.4058 19.1358 39.3419 19.1576 39.2519 19.1576ZM40.1104 14.8013C39.7696 14.8013 39.4934 15.0776 39.4934 15.4184C39.4934 15.7592 39.7696 16.0355 40.1104 16.0355H40.1325C40.2697 16.0355 40.3597 15.9946 40.4023 15.9129C40.4449 15.8312 40.4662 15.7385 40.4662 15.635V15.2018C40.4662 15.0983 40.4449 15.0057 40.4023 14.9239C40.3597 14.8422 40.2697 14.8013 40.1325 14.8013H40.1104Z" fill="#EBEBEB"/>
        <path d="M33.6768 19.1576C33.5857 19.1576 33.5186 19.1358 33.4755 19.0923C33.4371 19.0432 33.4179 18.9669 33.4179 18.8634V17.8908C33.4179 17.7873 33.4371 17.7137 33.4755 17.6701C33.5186 17.6211 33.5857 17.5966 33.6768 17.5966C34.0701 17.5966 34.3889 17.2777 34.3889 16.8845V15.5625C34.3889 15.1692 34.0701 14.8504 33.6768 14.8504C33.5857 14.8504 33.5186 14.8286 33.4755 14.785C33.4371 14.7359 33.4179 14.6597 33.4179 14.5561V13.5672C33.4179 13.4637 33.4371 13.3901 33.4755 13.3465C33.5186 13.2975 33.5857 13.2729 33.6768 13.2729H36.741C36.8321 13.2729 36.8968 13.2975 36.9352 13.3465C36.9784 13.3901 36.9999 13.4637 36.9999 13.5672V14.5561C36.9999 14.6597 36.9784 14.7359 36.9352 14.785C36.8968 14.8286 36.8321 14.8504 36.741 14.8504C36.3557 14.8504 36.0433 15.1627 36.0433 15.5481V16.8989C36.0433 17.2842 36.3557 17.5966 36.741 17.5966C36.8321 17.5966 36.8968 17.6211 36.9352 17.6701C36.9784 17.7137 36.9999 17.7873 36.9999 17.8908V18.8634C36.9999 18.9669 36.9784 19.0432 36.9352 19.0923C36.8968 19.1358 36.8321 19.1576 36.741 19.1576H33.6768Z" fill="#EBEBEB"/>
        <path d="M31.2685 19.1576H30.12C30.0302 19.1576 29.964 19.1358 29.9215 19.0923C29.8837 19.0432 29.8647 18.9669 29.8647 18.8634V15.8925C29.8647 15.317 29.3982 14.8504 28.8226 14.8504C28.7328 14.8504 28.6666 14.8286 28.6241 14.785C28.5863 14.7359 28.5674 14.6597 28.5674 14.5561V13.5672C28.5674 13.4637 28.5863 13.3901 28.6241 13.3465C28.6666 13.2975 28.7328 13.2729 28.8226 13.2729H32.5658C32.6556 13.2729 32.7194 13.2975 32.7572 13.3465C32.7998 13.3901 32.821 13.4637 32.821 13.5672V14.5561C32.821 14.6597 32.7998 14.7359 32.7572 14.785C32.7194 14.8286 32.6556 14.8504 32.5658 14.8504C31.9903 14.8504 31.5237 15.317 31.5237 15.8925V18.8634C31.5237 18.9669 31.5024 19.0432 31.4599 19.0923C31.4221 19.1358 31.3583 19.1576 31.2685 19.1576Z" fill="#EBEBEB"/>
        <path d="M41.4373 30.3187H37.8103C36.7451 30.3187 35.9525 30.0753 35.4327 29.5886C34.9214 29.1019 34.6658 28.3523 34.6658 27.3399V22.784C34.6658 21.7716 34.9214 21.022 35.4327 20.5353C35.9525 20.0485 36.7451 19.8052 37.8103 19.8052H41.5385C41.7004 19.8052 41.8154 19.849 41.8836 19.9366C41.9603 20.0145 41.9987 20.1459 41.9987 20.3309V22.0977C41.9987 22.2827 41.9603 22.419 41.8836 22.5066C41.8154 22.5844 41.7004 22.6234 41.5385 22.6234H38.3471C38.083 22.6234 37.887 22.6867 37.7591 22.8132C37.6313 22.93 37.5674 23.1101 37.5674 23.3535V26.8434C37.5674 27.0868 37.6143 27.2669 37.708 27.3837C37.8103 27.5005 37.9594 27.5589 38.1554 27.5589C38.8402 27.5589 39.3953 27.0038 39.3953 26.319V25.281C39.3953 25.096 39.4294 24.9646 39.4975 24.8867C39.5742 24.7991 39.6935 24.7553 39.8555 24.7553H41.4373C41.5992 24.7553 41.7142 24.7991 41.7824 24.8867C41.8591 24.9646 41.8975 25.096 41.8975 25.281V29.793C41.8975 29.978 41.8591 30.1143 41.7824 30.2019C41.7142 30.2798 41.5992 30.3187 41.4373 30.3187Z" fill="#EBEBEB"/>
        <path d="M29.3565 22.8716L29.019 24.1322C28.8894 24.616 29.254 25.0911 29.7549 25.0911C30.2558 25.0911 30.6204 24.616 30.4909 24.1322L30.1533 22.8716C30.1196 22.784 30.0816 22.7207 30.0395 22.6818C30.0057 22.6429 29.9636 22.6234 29.913 22.6234H29.5968C29.5462 22.6234 29.4999 22.6429 29.4577 22.6818C29.424 22.7207 29.3903 22.784 29.3565 22.8716ZM28.6357 29.793C28.6357 29.978 28.5978 30.1143 28.5219 30.2019C28.4544 30.2798 28.3406 30.3187 28.1804 30.3187H26.3214C26.1612 30.3187 26.0431 30.2798 25.9673 30.2019C25.8998 30.1143 25.8661 29.978 25.8661 29.793V25.9381C25.8661 25.646 25.904 25.3102 25.9799 24.9305C26.0642 24.5509 26.1907 24.1079 26.3593 23.6017L27.4596 20.287C27.5101 20.1216 27.586 19.9999 27.6872 19.922C27.7968 19.8441 27.9359 19.8052 28.1045 19.8052H31.5065C31.6667 19.8052 31.7973 19.8441 31.8985 19.922C32.0081 19.9999 32.0882 20.1216 32.1388 20.287L33.2391 23.6017C33.4077 24.1079 33.5299 24.5509 33.6058 24.9305C33.6901 25.3102 33.7323 25.646 33.7323 25.9381V29.793C33.7323 29.978 33.6943 30.1143 33.6185 30.2019C33.551 30.2798 33.4372 30.3187 33.277 30.3187H31.3674C31.1987 30.3187 31.0723 30.2798 30.988 30.2019C30.9121 30.1143 30.8741 29.978 30.8741 29.793V28.8679C30.8741 28.2498 30.373 27.7487 29.7549 27.7487C29.1368 27.7487 28.6357 28.2498 28.6357 28.8679V29.793Z" fill="#EBEBEB"/>
        <path d="M22.8257 30.3187H20.7738C20.6134 30.3187 20.4952 30.2798 20.4192 30.2019C20.3516 30.1143 20.3179 29.978 20.3179 29.793V24.4853C20.3179 23.457 19.4843 22.6234 18.456 22.6234C18.2955 22.6234 18.1773 22.5844 18.1013 22.5066C18.0338 22.419 18 22.2827 18 22.0977V20.3309C18 20.1459 18.0338 20.0145 18.1013 19.9366C18.1773 19.849 18.2955 19.8052 18.456 19.8052H25.1436C25.304 19.8052 25.418 19.849 25.4855 19.9366C25.5615 20.0145 25.5995 20.1459 25.5995 20.3309V22.0977C25.5995 22.2827 25.5615 22.419 25.4855 22.5066C25.418 22.5844 25.304 22.6234 25.1436 22.6234C24.1153 22.6234 23.2817 23.457 23.2817 24.4853V29.793C23.2817 29.978 23.2437 30.1143 23.1677 30.2019C23.1001 30.2798 22.9861 30.3187 22.8257 30.3187Z" fill="#EBEBEB"/>
        <path d="M43.3422 59.7578C43.2379 59.7578 43.1335 59.7578 43.0292 59.7573C42.8122 59.7562 42.6391 59.5788 42.6391 59.3618V58.649C42.6391 58.4203 42.8308 58.2343 43.0595 58.2344C43.0717 58.2344 43.0839 58.2344 43.0961 58.2344C43.7172 58.2344 44.0746 58.0176 44.1391 57.6367L44.1525 57.5536C44.1629 57.4889 44.1573 57.4227 44.1362 57.3606L42.1225 51.4628C42.0339 51.2033 42.2268 50.9336 42.5011 50.9336H43.9191C44.1033 50.9336 44.2637 51.0594 44.3076 51.2383L45.3783 55.6024C45.387 55.6374 45.4184 55.6621 45.4545 55.6621C45.4907 55.6621 45.5221 55.6374 45.5307 55.6024L46.6015 51.2383C46.6453 51.0594 46.8057 50.9336 46.9899 50.9336H48.3165C48.5884 50.9336 48.7811 51.199 48.6969 51.4575L46.811 57.2441C46.2133 59.1016 45.1821 59.7578 43.3422 59.7578Z" fill="#C2C2C2"/>
        <path d="M40.342 57.4668C38.6252 57.4668 37.9456 56.9453 37.9456 55.668V52.857C37.9456 52.6361 37.7665 52.457 37.5456 52.457H37.3495C37.1285 52.457 36.9495 52.2779 36.9495 52.057V51.3336C36.9495 51.1127 37.1285 50.9336 37.3495 50.9336H37.5456C37.7665 50.9336 37.9456 50.7545 37.9456 50.5336V49.8395C37.9456 49.6185 38.1246 49.4395 38.3456 49.4395H39.6256C39.8465 49.4395 40.0256 49.6185 40.0256 49.8395V50.5336C40.0256 50.7545 40.2047 50.9336 40.4256 50.9336H40.9323C41.1532 50.9336 41.3323 51.1127 41.3323 51.3336V52.057C41.3323 52.2779 41.1532 52.457 40.9323 52.457H40.4256C40.2047 52.457 40.0256 52.6361 40.0256 52.857V55.1992C40.0256 55.6914 40.2717 55.9258 40.8108 55.9258C40.8365 55.9258 40.861 55.9257 40.8844 55.9256C41.1235 55.9241 41.3323 56.1121 41.3323 56.3512V57.062C41.3323 57.2503 41.2006 57.4129 41.0133 57.4328C40.8171 57.4537 40.5817 57.4668 40.342 57.4668Z" fill="#C2C2C2"/>
        <path d="M30.0719 59.6113C29.851 59.6113 29.6719 59.4322 29.6719 59.2113V51.3336C29.6719 51.1127 29.851 50.9336 30.0719 50.9336H31.3461C31.567 50.9336 31.7461 51.1127 31.7461 51.3336V51.8623C31.7461 51.8995 31.7763 51.9297 31.8135 51.9297C31.8402 51.9297 31.8643 51.9138 31.8756 51.8896C32.1887 51.2227 32.8598 50.834 33.7676 50.834C35.3848 50.834 36.3691 52.082 36.3691 54.1855V54.1973C36.3691 56.3242 35.4199 57.5547 33.7676 57.5547C32.8879 57.5547 32.2001 57.1372 31.8757 56.4463C31.8643 56.4221 31.8402 56.4062 31.8135 56.4062C31.7763 56.4062 31.7461 56.4364 31.7461 56.4737V59.2113C31.7461 59.4322 31.567 59.6113 31.3461 59.6113H30.0719ZM33 55.8613C33.7676 55.8613 34.2656 55.2285 34.2656 54.1973V54.1855C34.2656 53.1543 33.7734 52.5273 33 52.5273C32.2207 52.5273 31.7285 53.1426 31.7285 54.1855V54.1973C31.7285 55.2344 32.2324 55.8613 33 55.8613Z" fill="#C2C2C2"/>
        <path d="M18.7337 57.4551C18.5128 57.4551 18.3337 57.276 18.3337 57.0551V51.3336C18.3337 51.1127 18.5128 50.9336 18.7337 50.9336H20.008C20.2289 50.9336 20.408 51.1127 20.408 51.3336V51.9054C20.408 51.9415 20.4372 51.9707 20.4733 51.9707C20.5009 51.9707 20.5254 51.9532 20.5353 51.9274C20.8159 51.1983 21.5084 50.7812 22.3474 50.7812C23.2176 50.7812 23.8808 51.2007 24.1458 51.9577C24.157 51.9897 24.1868 52.0117 24.2206 52.0117C24.2534 52.0117 24.2824 51.9911 24.2945 51.9607C24.5798 51.2454 25.3276 50.7812 26.2263 50.7812C27.5095 50.7812 28.3591 51.6602 28.3591 52.9961V57.0551C28.3591 57.276 28.18 57.4551 27.9591 57.4551H26.6791C26.4581 57.4551 26.2791 57.276 26.2791 57.0551V53.5234C26.2791 52.8203 25.9685 52.4688 25.3416 52.4688C24.7498 52.4688 24.3806 52.9023 24.3806 53.541V57.0551C24.3806 57.276 24.2015 57.4551 23.9806 57.4551H22.7064C22.4855 57.4551 22.3064 57.276 22.3064 57.0551V53.4883C22.3064 52.832 21.9724 52.4688 21.3748 52.4688C20.7947 52.4688 20.408 52.9199 20.408 53.5762V57.0551C20.408 57.276 20.2289 57.4551 20.008 57.4551H18.7337Z" fill="#C2C2C2"/>
        <path d="M11.5323 57.4551C11.3114 57.4551 11.1323 57.276 11.1323 57.0551V49.4C11.1323 49.1791 11.3114 49 11.5323 49H16.5272C16.7482 49 16.9272 49.1791 16.9272 49.4V50.3285C16.9272 50.5494 16.7482 50.7285 16.5272 50.7285H13.6827C13.4618 50.7285 13.2827 50.9076 13.2827 51.1285V52.016C13.2827 52.2369 13.4618 52.416 13.6827 52.416H16.3104C16.5314 52.416 16.7104 52.5951 16.7104 52.816V53.598C16.7104 53.819 16.5314 53.998 16.3104 53.998H13.6827C13.4618 53.998 13.2827 54.1771 13.2827 54.398V55.3266C13.2827 55.5475 13.4618 55.7266 13.6827 55.7266H16.5272C16.7482 55.7266 16.9272 55.9056 16.9272 56.1266V57.0551C16.9272 57.276 16.7482 57.4551 16.5272 57.4551H11.5323Z" fill="#C2C2C2"/>
    </g>
</svg>
