<svg width="60" height="60" viewBox="0 0 60 60" fill="none" xmlns="http://www.w3.org/2000/svg">
<g opacity="0.6">
<rect x="8" width="44" height="44" rx="22" fill="#C2C2C2"/>
<path d="M41.4373 30.3187H37.8103C36.7451 30.3187 35.9525 30.0753 35.4327 29.5886C34.9214 29.1019 34.6658 28.3523 34.6658 27.3399V22.784C34.6658 21.7716 34.9214 21.022 35.4327 20.5353C35.9525 20.0485 36.7451 19.8052 37.8103 19.8052H41.5385C41.7004 19.8052 41.8154 19.849 41.8836 19.9366C41.9603 20.0145 41.9987 20.1459 41.9987 20.3309V22.0977C41.9987 22.2827 41.9603 22.419 41.8836 22.5066C41.8154 22.5844 41.7004 22.6234 41.5385 22.6234H38.3471C38.083 22.6234 37.887 22.6867 37.7591 22.8132C37.6313 22.93 37.5674 23.1101 37.5674 23.3535V26.8434C37.5674 27.0868 37.6143 27.2669 37.708 27.3837C37.8103 27.5005 37.9594 27.5589 38.1554 27.5589C38.8402 27.5589 39.3953 27.0038 39.3953 26.319V25.281C39.3953 25.096 39.4294 24.9646 39.4975 24.8867C39.5742 24.7991 39.6935 24.7553 39.8555 24.7553H41.4373C41.5992 24.7553 41.7142 24.7991 41.7824 24.8867C41.8591 24.9646 41.8975 25.096 41.8975 25.281V29.793C41.8975 29.978 41.8591 30.1143 41.7824 30.2019C41.7142 30.2798 41.5992 30.3187 41.4373 30.3187Z" fill="#EBEBEB"/>
<path d="M29.3564 22.8716L29.0188 24.1322C28.8893 24.616 29.2539 25.0911 29.7548 25.0911C30.2557 25.0911 30.6203 24.616 30.4907 24.1322L30.1532 22.8716C30.1194 22.784 30.0815 22.7207 30.0393 22.6818C30.0056 22.6429 29.9635 22.6234 29.9129 22.6234H29.5967C29.5461 22.6234 29.4998 22.6429 29.4576 22.6818C29.4239 22.7207 29.3902 22.784 29.3564 22.8716ZM28.6356 29.793C28.6356 29.978 28.5976 30.1143 28.5218 30.2019C28.4543 30.2798 28.3405 30.3187 28.1803 30.3187H26.3212C26.1611 30.3187 26.043 30.2798 25.9671 30.2019C25.8997 30.1143 25.866 29.978 25.866 29.793V25.9381C25.866 25.646 25.9039 25.3102 25.9798 24.9305C26.0641 24.5509 26.1906 24.1079 26.3592 23.6017L27.4594 20.287C27.51 20.1216 27.5859 19.9999 27.6871 19.922C27.7967 19.8441 27.9358 19.8052 28.1044 19.8052H31.5063C31.6665 19.8052 31.7972 19.8441 31.8984 19.922C32.008 19.9999 32.0881 20.1216 32.1387 20.287L33.2389 23.6017C33.4076 24.1079 33.5298 24.5509 33.6057 24.9305C33.69 25.3102 33.7321 25.646 33.7321 25.9381V29.793C33.7321 29.978 33.6942 30.1143 33.6183 30.2019C33.5509 30.2798 33.4371 30.3187 33.2769 30.3187H31.3672C31.1986 30.3187 31.0721 30.2798 30.9878 30.2019C30.912 30.1143 30.874 29.978 30.874 29.793V28.8679C30.874 28.2498 30.3729 27.7487 29.7548 27.7487C29.1367 27.7487 28.6356 28.2498 28.6356 28.8679V29.793Z" fill="#EBEBEB"/>
<path d="M22.8257 30.3187H20.7738C20.6134 30.3187 20.4952 30.2798 20.4192 30.2019C20.3516 30.1143 20.3179 29.978 20.3179 29.793V24.4853C20.3179 23.457 19.4843 22.6234 18.456 22.6234C18.2955 22.6234 18.1773 22.5844 18.1013 22.5066C18.0338 22.419 18 22.2827 18 22.0977V20.3309C18 20.1459 18.0338 20.0145 18.1013 19.9366C18.1773 19.849 18.2955 19.8052 18.456 19.8052H25.1436C25.304 19.8052 25.418 19.849 25.4855 19.9366C25.5615 20.0145 25.5995 20.1459 25.5995 20.3309V22.0977C25.5995 22.2827 25.5615 22.419 25.4855 22.5066C25.418 22.5844 25.304 22.6234 25.1436 22.6234C24.1153 22.6234 23.2817 23.457 23.2817 24.4853V29.793C23.2817 29.978 23.2437 30.1143 23.1677 30.2019C23.1001 30.2798 22.9861 30.3187 22.8257 30.3187Z" fill="#EBEBEB"/>
<path d="M43.3423 59.7578C43.2379 59.7578 43.1336 59.7578 43.0292 59.7573C42.8122 59.7562 42.6392 59.5788 42.6392 59.3618V58.649C42.6392 58.4203 42.8308 58.2343 43.0596 58.2344C43.0718 58.2344 43.084 58.2344 43.0962 58.2344C43.7173 58.2344 44.0747 58.0176 44.1392 57.6367L44.1526 57.5536C44.163 57.4889 44.1574 57.4227 44.1362 57.3606L42.1226 51.4628C42.034 51.2033 42.2269 50.9336 42.5011 50.9336H43.9192C44.1034 50.9336 44.2638 51.0594 44.3077 51.2383L45.3784 55.6024C45.387 55.6374 45.4185 55.6621 45.4546 55.6621C45.4907 55.6621 45.5222 55.6374 45.5308 55.6024L46.6015 51.2383C46.6454 51.0594 46.8058 50.9336 46.99 50.9336H48.3166C48.5885 50.9336 48.7812 51.199 48.6969 51.4575L46.811 57.2441C46.2134 59.1016 45.1821 59.7578 43.3423 59.7578Z" fill="#C2C2C2"/>
<path d="M40.342 57.4668C38.6252 57.4668 37.9456 56.9453 37.9456 55.668V52.857C37.9456 52.6361 37.7665 52.457 37.5456 52.457H37.3495C37.1285 52.457 36.9495 52.2779 36.9495 52.057V51.3336C36.9495 51.1127 37.1285 50.9336 37.3495 50.9336H37.5456C37.7665 50.9336 37.9456 50.7545 37.9456 50.5336V49.8395C37.9456 49.6185 38.1246 49.4395 38.3456 49.4395H39.6256C39.8465 49.4395 40.0256 49.6185 40.0256 49.8395V50.5336C40.0256 50.7545 40.2047 50.9336 40.4256 50.9336H40.9323C41.1532 50.9336 41.3323 51.1127 41.3323 51.3336V52.057C41.3323 52.2779 41.1532 52.457 40.9323 52.457H40.4256C40.2047 52.457 40.0256 52.6361 40.0256 52.857V55.1992C40.0256 55.6914 40.2717 55.9258 40.8108 55.9258C40.8365 55.9258 40.861 55.9257 40.8844 55.9256C41.1235 55.9241 41.3323 56.1121 41.3323 56.3512V57.062C41.3323 57.2503 41.2006 57.4129 41.0133 57.4328C40.8171 57.4537 40.5817 57.4668 40.342 57.4668Z" fill="#C2C2C2"/>
<path d="M30.0719 59.6113C29.851 59.6113 29.6719 59.4322 29.6719 59.2113V51.3336C29.6719 51.1127 29.851 50.9336 30.0719 50.9336H31.3461C31.567 50.9336 31.7461 51.1127 31.7461 51.3336V51.8623C31.7461 51.8995 31.7763 51.9297 31.8135 51.9297C31.8402 51.9297 31.8643 51.9138 31.8756 51.8896C32.1887 51.2227 32.8598 50.834 33.7676 50.834C35.3848 50.834 36.3691 52.082 36.3691 54.1855V54.1973C36.3691 56.3242 35.4199 57.5547 33.7676 57.5547C32.8879 57.5547 32.2001 57.1372 31.8757 56.4463C31.8643 56.4221 31.8402 56.4062 31.8135 56.4062C31.7763 56.4062 31.7461 56.4364 31.7461 56.4737V59.2113C31.7461 59.4322 31.567 59.6113 31.3461 59.6113H30.0719ZM33 55.8613C33.7676 55.8613 34.2656 55.2285 34.2656 54.1973V54.1855C34.2656 53.1543 33.7734 52.5273 33 52.5273C32.2207 52.5273 31.7285 53.1426 31.7285 54.1855V54.1973C31.7285 55.2344 32.2324 55.8613 33 55.8613Z" fill="#C2C2C2"/>
<path d="M18.7337 57.4551C18.5128 57.4551 18.3337 57.276 18.3337 57.0551V51.3336C18.3337 51.1127 18.5128 50.9336 18.7337 50.9336H20.008C20.2289 50.9336 20.408 51.1127 20.408 51.3336V51.9054C20.408 51.9415 20.4372 51.9707 20.4733 51.9707C20.5009 51.9707 20.5254 51.9532 20.5353 51.9274C20.8159 51.1983 21.5084 50.7812 22.3474 50.7812C23.2176 50.7812 23.8808 51.2007 24.1458 51.9577C24.157 51.9897 24.1868 52.0117 24.2206 52.0117C24.2534 52.0117 24.2824 51.9911 24.2945 51.9607C24.5798 51.2454 25.3276 50.7812 26.2263 50.7812C27.5095 50.7812 28.3591 51.6602 28.3591 52.9961V57.0551C28.3591 57.276 28.18 57.4551 27.9591 57.4551H26.6791C26.4581 57.4551 26.2791 57.276 26.2791 57.0551V53.5234C26.2791 52.8203 25.9685 52.4688 25.3416 52.4688C24.7498 52.4688 24.3806 52.9023 24.3806 53.541V57.0551C24.3806 57.276 24.2015 57.4551 23.9806 57.4551H22.7064C22.4855 57.4551 22.3064 57.276 22.3064 57.0551V53.4883C22.3064 52.832 21.9724 52.4688 21.3748 52.4688C20.7947 52.4688 20.408 52.9199 20.408 53.5762V57.0551C20.408 57.276 20.2289 57.4551 20.008 57.4551H18.7337Z" fill="#C2C2C2"/>
<path d="M11.5323 57.4551C11.3114 57.4551 11.1323 57.276 11.1323 57.0551V49.4C11.1323 49.1791 11.3114 49 11.5323 49H16.5272C16.7482 49 16.9272 49.1791 16.9272 49.4V50.3285C16.9272 50.5494 16.7482 50.7285 16.5272 50.7285H13.6827C13.4618 50.7285 13.2827 50.9076 13.2827 51.1285V52.016C13.2827 52.2369 13.4618 52.416 13.6827 52.416H16.3104C16.5314 52.416 16.7104 52.5951 16.7104 52.816V53.598C16.7104 53.819 16.5314 53.998 16.3104 53.998H13.6827C13.4618 53.998 13.2827 54.1771 13.2827 54.398V55.3266C13.2827 55.5475 13.4618 55.7266 13.6827 55.7266H16.5272C16.7482 55.7266 16.9272 55.9056 16.9272 56.1266V57.0551C16.9272 57.276 16.7482 57.4551 16.5272 57.4551H11.5323Z" fill="#C2C2C2"/>
</g>
</svg>
