<svg width="14" height="14" viewBox="0 0 14 14" fill="none" xmlns="http://www.w3.org/2000/svg">
    <path d="M1.73405 10.8768C1.77156 10.7399 1.68935 10.5495 1.6109 10.4123C1.58658 10.3713 1.56008 10.3317 1.53151 10.2935C0.858631 9.27307 0.49999 8.0776 0.500033 6.85527C0.48878 3.34669 3.39816 0.499512 6.99582 0.499512C10.1334 0.499512 12.7527 2.67311 13.3644 5.55843C13.4562 5.98619 13.5026 6.42245 13.5029 6.85996C13.5029 10.3735 10.7057 13.2654 7.10803 13.2654C6.53572 13.2654 5.76399 13.1216 5.34296 13.0038C4.92193 12.886 4.50153 12.7297 4.39307 12.6878C4.28203 12.6452 4.16412 12.6232 4.04518 12.6231C3.91548 12.6226 3.78703 12.6485 3.6676 12.699L1.54714 13.4642C1.5008 13.4842 1.45168 13.4971 1.40148 13.5023C1.36177 13.5022 1.32247 13.4942 1.28587 13.4788C1.24927 13.4634 1.21608 13.4409 1.18824 13.4126C1.16039 13.3843 1.13843 13.3507 1.12364 13.3139C1.10884 13.277 1.1015 13.2376 1.10204 13.1979C1.10465 13.1631 1.11093 13.1286 1.12079 13.0951L1.73405 10.8768Z" fill="#BDBDBD" stroke="#BDBDBD" stroke-width="1.00189" stroke-miterlimit="10" stroke-linecap="round"/>
    <path d="M4.00095 8.00288C4.55377 8.00288 5.00191 7.55474 5.00191 7.00193C5.00191 6.44912 4.55377 6.00098 4.00095 6.00098C3.44814 6.00098 3 6.44912 3 7.00193C3 7.55474 3.44814 8.00288 4.00095 8.00288Z" fill="white"/>
    <path d="M7.00193 8.00288C7.55474 8.00288 8.00288 7.55474 8.00288 7.00193C8.00288 6.44912 7.55474 6.00098 7.00193 6.00098C6.44912 6.00098 6.00098 6.44912 6.00098 7.00193C6.00098 7.55474 6.44912 8.00288 7.00193 8.00288Z" fill="white"/>
    <path d="M10.0029 8.00288C10.5557 8.00288 11.0039 7.55474 11.0039 7.00193C11.0039 6.44912 10.5557 6.00098 10.0029 6.00098C9.4501 6.00098 9.00195 6.44912 9.00195 7.00193C9.00195 7.55474 9.4501 8.00288 10.0029 8.00288Z" fill="white"/>
</svg>
