<svg width="14" height="14" viewBox="0 0 14 14" fill="none" xmlns="http://www.w3.org/2000/svg">
<path d="M1.73454 10.8768C1.77205 10.7399 1.68984 10.5495 1.61139 10.4123C1.58707 10.3713 1.56056 10.3317 1.532 10.2935C0.859119 9.27307 0.500478 8.0776 0.500521 6.85527C0.489268 3.34669 3.39865 0.499512 6.99631 0.499512C10.1339 0.499512 12.7532 2.67311 13.3649 5.55843C13.4567 5.98619 13.5031 6.42245 13.5034 6.85996C13.5034 10.3735 10.7062 13.2654 7.10852 13.2654C6.53621 13.2654 5.76448 13.1216 5.34345 13.0038C4.92242 12.886 4.50202 12.7297 4.39356 12.6878C4.28252 12.6452 4.16461 12.6232 4.04567 12.6231C3.91597 12.6226 3.78752 12.6485 3.66808 12.699L1.54762 13.4642C1.50129 13.4842 1.45217 13.4971 1.40197 13.5023C1.36226 13.5022 1.32296 13.4942 1.28636 13.4788C1.24976 13.4634 1.21657 13.4409 1.18873 13.4126C1.16088 13.3843 1.13892 13.3507 1.12413 13.3139C1.10933 13.277 1.10199 13.2376 1.10253 13.1979C1.10513 13.1631 1.11142 13.1286 1.12128 13.0951L1.73454 10.8768Z" fill="#FF3D54" stroke="#FF3D54" stroke-width="1.00189" stroke-miterlimit="10" stroke-linecap="round"/>
<path d="M4.00169 8.00313C4.5545 8.00313 5.00264 7.55499 5.00264 7.00217C5.00264 6.44936 4.5545 6.00122 4.00169 6.00122C3.44887 6.00122 3.00073 6.44936 3.00073 7.00217C3.00073 7.55499 3.44887 8.00313 4.00169 8.00313Z" fill="white"/>
<path d="M7.00217 8.00313C7.55499 8.00313 8.00313 7.55499 8.00313 7.00217C8.00313 6.44936 7.55499 6.00122 7.00217 6.00122C6.44936 6.00122 6.00122 6.44936 6.00122 7.00217C6.00122 7.55499 6.44936 8.00313 7.00217 8.00313Z" fill="white"/>
<path d="M10.0032 8.00313C10.556 8.00313 11.0041 7.55499 11.0041 7.00217C11.0041 6.44936 10.556 6.00122 10.0032 6.00122C9.45034 6.00122 9.0022 6.44936 9.0022 7.00217C9.0022 7.55499 9.45034 8.00313 10.0032 8.00313Z" fill="white"/>
</svg>
