<svg width="13" height="13" viewBox="0 0 13 13" fill="none" xmlns="http://www.w3.org/2000/svg">
    <path d="M12.6919 3.21054L9.78716 0.306451C9.69059 0.209857 9.57593 0.133233 9.44975 0.080955C9.32356 0.0286773 9.1883 0.00177002 9.05171 0.00177002C8.91513 0.00177002 8.77987 0.0286773 8.65368 0.080955C8.5275 0.133233 8.41284 0.209857 8.31627 0.306451L0.301426 8.32129C0.204436 8.41751 0.12754 8.53205 0.0752077 8.65825C0.0228754 8.78445 -0.00384919 8.9198 -0.00341271 9.05642V11.9612C-0.00341271 12.237 0.106154 12.5015 0.301185 12.6965C0.496215 12.8915 0.760733 13.0011 1.03655 13.0011H11.9561C12.094 13.0011 12.2263 12.9463 12.3238 12.8488C12.4213 12.7513 12.4761 12.619 12.4761 12.4811C12.4761 12.3432 12.4213 12.211 12.3238 12.1135C12.2263 12.0159 12.094 11.9612 11.9561 11.9612H5.41218L12.6919 4.68143C12.7885 4.58486 12.8651 4.47021 12.9174 4.34402C12.9697 4.21783 12.9966 4.08258 12.9966 3.94599C12.9966 3.8094 12.9697 3.67415 12.9174 3.54796C12.8651 3.42177 12.7885 3.30711 12.6919 3.21054ZM1.03655 9.05642L6.75633 3.33663L9.66107 6.24137L3.94129 11.9612H1.03655V9.05642ZM10.3962 5.50625L7.4921 2.60151L9.05204 1.04157L11.9561 3.94631L10.3962 5.50625Z" fill="#FE913F"/>
</svg>
