<svg t="1760099797737" class="icon" viewBox="0 0 1024 1024" version="1.1" xmlns="http://www.w3.org/2000/svg" p-id="9158" width="200" height="200"><path d="M773.184 192.768l-6.208-21.888-9.536-34.24c-7.68-45.76-37.248-76.416-68.48-76.416H335.04c-31.232 0-60.8 30.656-69.184 79.68l-14.976 52.864H126.464c-36.096 0-66.24 32.128-66.24 72.64v625.664c0 40.576 30.08 72.704 66.24 72.704h771.072c36.096 0 66.24-32.128 66.24-72.704V265.408c0-40.512-30.08-72.64-66.24-72.64H773.12z m45.504-60.224h78.848c70.272 0 126.464 59.904 126.464 132.864v625.664c0 72.96-56.192 132.928-126.464 132.928H126.464C56.192 1024 0 964.096 0 891.072V265.408c0-72.96 56.192-132.864 126.464-132.864h78.976l1.728-5.824C219.328 54.016 271.552 0 334.976 0h354.048c63.424 0 115.648 54.016 127.104 123.456l2.56 9.088z" fill="#ffffff" p-id="9159"></path><path d="M512 825.6a224 224 0 1 1 0-448 224 224 0 0 1 0 448z m0-64a160 160 0 1 0 0-320 160 160 0 0 0 0 320z m288-418.112a32 32 0 1 1 0-64h64a32 32 0 1 1 0 64h-64z" fill="#ffffff" p-id="9160"></path></svg>