<svg width="33" height="30" viewBox="0 0 33 30" fill="none" xmlns="http://www.w3.org/2000/svg">
    <path d="M27.0706 27.8747L27.0706 27.8747L27.0677 27.8815C26.7316 28.6881 25.9357 29.25 25 29.25H11.5C10.2642 29.25 9.25 28.2358 9.25 27V12C9.25 11.3791 9.49693 10.8225 9.90802 10.4225L9.90807 10.4226L9.91573 10.4149L19.2579 1.05855L20.3147 2.10533C20.3151 2.10571 20.3154 2.1061 20.3158 2.10648C20.5787 2.36995 20.7462 2.73844 20.7547 3.13352L20.7172 3.53333L19.3007 10.3474C19.2548 10.5683 19.3108 10.7982 19.4532 10.9733C19.5956 11.1484 19.8093 11.25 20.035 11.25H29.5C30.7358 11.25 31.75 12.2642 31.75 13.5V16.5C31.75 16.7858 31.6965 17.0501 31.5956 17.3113L27.0706 27.8747Z" stroke="#85FFC4" stroke-width="1.5" stroke-linejoin="round"/>
    <path d="M5.5 12H3C1.89543 12 1 12.8954 1 14V26.5C1 27.6046 1.89543 28.5 3 28.5H5.5" stroke="#85FFC4" stroke-width="1.5"/>
</svg>
