<svg width="33" height="28" viewBox="0 0 33 28" fill="none" xmlns="http://www.w3.org/2000/svg">
    <path d="M1.5 27.6667V25.6914C1.5 16.5417 8.0625 9.01384 16.5 8.03013V2.97532C16.499 2.71563 16.5468 2.4583 16.6407 2.21817C16.7346 1.97804 16.8727 1.75987 17.047 1.57624C17.2213 1.39261 17.4284 1.24715 17.6563 1.14825C17.8842 1.04935 18.1285 0.998971 18.375 1.00002C18.6211 0.999381 18.865 1.05001 19.0925 1.149C19.32 1.24799 19.5266 1.39337 19.7006 1.57681L31.5 13.8395L19.7006 26.1002C19.4388 26.3774 19.1046 26.5663 18.7407 26.643C18.3767 26.7198 17.9993 26.6808 17.6564 26.5312C17.3134 26.3816 17.0204 26.128 16.8145 25.8026C16.6087 25.4772 16.4992 25.0947 16.5 24.7037V19.7872" stroke="white" stroke-width="1.5" stroke-linejoin="round"/>
</svg>
