<svg width="14" height="14" viewBox="0 0 14 14" fill="none" xmlns="http://www.w3.org/2000/svg">
<path fill-rule="evenodd" clip-rule="evenodd" d="M5.169 5.331C4.73377 5.76625 4.44295 6.32484 4.336 6.931L3.998 8.843C3.96996 9.00141 3.98055 9.16425 4.02887 9.31769C4.0772 9.47114 4.16183 9.61066 4.27558 9.72442C4.38934 9.83817 4.52886 9.9228 4.68231 9.97113C4.83575 10.0195 4.99859 10.03 5.157 10.002L7.069 9.664C7.67516 9.55705 8.23375 9.26623 8.669 8.831L11.739 5.761L13.739 3.761C13.9055 3.59312 13.9993 3.36645 14 3.13C14 2.29987 13.6702 1.50374 13.0832 0.916756C12.4963 0.329767 11.7001 0 10.87 0C10.6331 0.000735183 10.406 0.0948783 10.238 0.262L8.238 2.262L5.169 5.331ZM9.105 3.517L6.229 6.392C6.01157 6.60969 5.86634 6.88898 5.813 7.192L5.6 8.4L6.808 8.187L6.865 8.177C7.14652 8.11582 7.40446 7.97487 7.608 7.771L10.483 4.895C10.4324 4.54752 10.2709 4.22569 10.0226 3.97739C9.77431 3.72909 9.45247 3.56762 9.105 3.517ZM11.663 3.716C11.3615 3.12125 10.8785 2.63791 10.284 2.336L11.104 1.516C11.4521 1.56633 11.7746 1.72792 12.0234 1.97664C12.2721 2.22537 12.4337 2.54787 12.484 2.896L11.663 3.716ZM7 1.25C7 1.05109 6.92098 0.860322 6.78033 0.71967C6.63968 0.579018 6.44891 0.5 6.25 0.5H3.5C2.70435 0.5 1.94129 0.816071 1.37868 1.37868C0.816071 1.94129 0.5 2.70435 0.5 3.5V10.5C0.5 11.2956 0.816071 12.0587 1.37868 12.6213C1.94129 13.1839 2.70435 13.5 3.5 13.5H10.5C11.2956 13.5 12.0587 13.1839 12.6213 12.6213C13.1839 12.0587 13.5 11.2956 13.5 10.5V7.75C13.5 7.55109 13.421 7.36032 13.2803 7.21967C13.1397 7.07902 12.9489 7 12.75 7C12.5511 7 12.3603 7.07902 12.2197 7.21967C12.079 7.36032 12 7.55109 12 7.75V10.5C12 10.8978 11.842 11.2794 11.5607 11.5607C11.2794 11.842 10.8978 12 10.5 12H3.5C3.10218 12 2.72064 11.842 2.43934 11.5607C2.15804 11.2794 2 10.8978 2 10.5V3.5C2 3.10218 2.15804 2.72064 2.43934 2.43934C2.72064 2.15804 3.10218 2 3.5 2H6.25C6.44891 2 6.63968 1.92098 6.78033 1.78033C6.92098 1.63968 7 1.44891 7 1.25Z" fill="#FF3D54"/>
</svg>
