<svg width="10" height="14" viewBox="0 0 10 14" fill="none" xmlns="http://www.w3.org/2000/svg">
<path d="M9.57527 5.90492C9.29951 5.27004 8.89863 4.70021 8.39772 4.23106L7.98437 3.84311C7.97033 3.8303 7.95344 3.82121 7.93517 3.81663C7.9169 3.81206 7.89781 3.81214 7.87958 3.81688C7.86135 3.82161 7.84453 3.83085 7.8306 3.84378C7.81668 3.85672 7.80607 3.87295 7.79971 3.89106L7.61505 4.43303C7.49999 4.77303 7.28834 5.1203 6.98863 5.46175C6.96874 5.48355 6.94602 5.48936 6.93039 5.49081C6.91477 5.49227 6.89062 5.48936 6.86931 5.46902C6.84942 5.45158 6.83948 5.42543 6.8409 5.39928C6.89346 4.52457 6.63778 3.53798 6.07812 2.46421C5.61505 1.57207 4.97159 0.876077 4.16761 0.390774L3.58096 0.0376943C3.50426 -0.00880177 3.40625 0.0522243 3.41051 0.143763L3.44176 0.841205C3.46306 1.31779 3.40909 1.73916 3.28125 2.08933C3.125 2.51797 2.90057 2.91609 2.61363 3.27353C2.41395 3.52195 2.18763 3.74663 1.93892 3.94337C1.33992 4.41438 0.852859 5.01791 0.514204 5.70877C0.176383 6.40564 0.00041216 7.1729 0 7.95075C0 8.63657 0.132102 9.30059 0.393465 9.92683C0.645832 10.5298 1.01003 11.077 1.46591 11.5382C1.92613 12.0032 2.46022 12.3693 3.05539 12.6236C3.67187 12.8881 4.32528 13.0217 4.99999 13.0217C5.67471 13.0217 6.32812 12.8881 6.9446 12.6251C7.5383 12.3723 8.07818 12.0036 8.53408 11.5397C8.99431 11.0747 9.3551 10.5313 9.60652 9.92828C9.86749 9.30375 10.0014 8.63139 9.99999 7.9522C9.99999 7.24313 9.85794 6.55441 9.57527 5.90492ZM7.85511 10.835C7.09232 11.608 6.07954 12.0322 4.99999 12.0322C3.92045 12.0322 2.90767 11.608 2.14488 10.835C1.38494 10.0634 0.965908 9.0405 0.965908 7.9522C0.965908 7.32014 1.10511 6.71424 1.37926 6.15048C1.64631 5.59979 2.04403 5.10722 2.52699 4.72799C2.83499 4.48707 3.11436 4.21008 3.35937 3.90268C3.71448 3.45952 3.99289 2.96549 4.18608 2.43515C4.26532 2.21638 4.3229 1.99003 4.35795 1.7595C4.70028 2.08207 4.98721 2.47147 5.22727 2.92772C5.7017 3.8373 5.92045 4.64662 5.87783 5.33534C5.86765 5.49755 5.89355 5.66001 5.95358 5.8105C6.01361 5.961 6.10622 6.09562 6.22443 6.20424C6.32687 6.2989 6.44667 6.37179 6.57689 6.41868C6.7071 6.46558 6.84513 6.48554 6.98295 6.4774C7.26278 6.46287 7.51988 6.33646 7.70738 6.12287C7.8963 5.90637 8.05965 5.68552 8.19601 5.4603C8.39488 5.72039 8.56107 6.00372 8.69317 6.30886C8.91902 6.82903 9.03408 7.38262 9.03408 7.9522C9.03408 9.0405 8.61505 10.0649 7.85511 10.835Z" fill="#FE3F4F"/>
<path d="M4.49983 5.02173C4.57944 5.02173 4.65579 5.05684 4.71211 5.11935C4.76843 5.18186 4.80011 5.26665 4.8002 5.3551V5.91048H4.90111C5.04557 5.91033 5.18864 5.94186 5.32211 6.00326C5.45558 6.06467 5.57683 6.15473 5.67892 6.2683C5.781 6.38187 5.86191 6.51671 5.91701 6.66509C5.97211 6.81346 6.00031 6.97247 6 7.13298C6 7.2214 5.96839 7.30619 5.91212 7.36871C5.85585 7.43123 5.77954 7.46635 5.69996 7.46635C5.62039 7.46635 5.54408 7.43123 5.48781 7.36871C5.43154 7.30619 5.39993 7.2214 5.39993 7.13298C5.39993 6.82435 5.17718 6.57723 4.90111 6.57723H3.99798C3.77827 6.57723 3.59973 6.77598 3.59973 7.01823C3.59973 7.2001 3.63652 7.27398 3.66251 7.3096C3.69288 7.35085 3.74857 7.39285 3.87007 7.4386L5.3213 7.97298C5.48329 8.0341 5.66486 8.12673 5.80054 8.31085C5.94094 8.5006 5.99966 8.74135 5.99966 9.02523C5.99939 9.31906 5.89418 9.60076 5.70712 9.80846C5.52007 10.0162 5.26647 10.1329 5.00202 10.133H4.79986V10.6884C4.79986 10.7768 4.76825 10.8616 4.71199 10.9241C4.65572 10.9866 4.57941 11.0217 4.49983 11.0217C4.42026 11.0217 4.34394 10.9866 4.28768 10.9241C4.23141 10.8616 4.1998 10.7768 4.1998 10.6884V10.133H4.09855C3.95412 10.1331 3.81109 10.1015 3.67766 10.0401C3.54423 9.97866 3.42301 9.88859 3.32096 9.77502C3.21891 9.66146 3.13803 9.52664 3.08296 9.37828C3.02788 9.22993 2.99969 9.07096 3 8.91048C3 8.82206 3.03161 8.73727 3.08788 8.67475C3.14415 8.61223 3.22046 8.5771 3.30004 8.5771C3.37961 8.5771 3.45592 8.61223 3.51219 8.67475C3.56846 8.73727 3.60007 8.82206 3.60007 8.91048C3.60007 9.2191 3.82248 9.46623 4.09889 9.46623H5.00202C5.2214 9.46623 5.39993 9.26748 5.39993 9.02523C5.39993 8.84335 5.36348 8.76948 5.33716 8.73385C5.30678 8.6926 5.2511 8.6506 5.1296 8.60485L3.67871 8.07048C3.51671 8.00935 3.3348 7.91673 3.19912 7.7326C3.05873 7.54285 3 7.3021 3 7.01823C3.00027 6.72433 3.10553 6.44257 3.29266 6.23486C3.47979 6.02715 3.73347 5.91048 3.99798 5.91048H4.1998V5.35548C4.19989 5.26703 4.23157 5.18223 4.28789 5.11972C4.34421 5.05721 4.42023 5.02173 4.49983 5.02173Z" fill="#FE3F4F"/>
</svg>
