<svg width="14" height="14" viewBox="0 0 14 14" fill="none" xmlns="http://www.w3.org/2000/svg">
    <path d="M1.73454 10.8769C1.77205 10.74 1.68984 10.5496 1.61139 10.4124C1.58707 10.3714 1.56056 10.3318 1.532 10.2936C0.859119 9.27316 0.500478 8.07769 0.500521 6.85536C0.489268 3.34679 3.39865 0.499603 6.99631 0.499603C10.1339 0.499603 12.7532 2.6732 13.3649 5.55852C13.4567 5.98629 13.5031 6.42254 13.5034 6.86005C13.5034 10.3736 10.7062 13.2655 7.10852 13.2655C6.53621 13.2655 5.76448 13.1217 5.34345 13.0039C4.92242 12.8861 4.50202 12.7298 4.39356 12.6879C4.28252 12.6452 4.16461 12.6233 4.04567 12.6232C3.91597 12.6227 3.78752 12.6486 3.66808 12.6991L1.54762 13.4643C1.50129 13.4843 1.45217 13.4972 1.40197 13.5024C1.36226 13.5023 1.32296 13.4943 1.28636 13.4789C1.24976 13.4635 1.21657 13.441 1.18873 13.4127C1.16088 13.3844 1.13892 13.3508 1.12413 13.314C1.10933 13.2771 1.10199 13.2377 1.10253 13.198C1.10513 13.1632 1.11142 13.1287 1.12128 13.0952L1.73454 10.8769Z" stroke="#32ADE6" stroke-width="1.00189" stroke-miterlimit="10" stroke-linecap="round"/>
    <path d="M4.00169 8.00322C4.5545 8.00322 5.00264 7.55508 5.00264 7.00227C5.00264 6.44945 4.5545 6.00131 4.00169 6.00131C3.44887 6.00131 3.00073 6.44945 3.00073 7.00227C3.00073 7.55508 3.44887 8.00322 4.00169 8.00322Z" fill="#32ADE6"/>
    <path d="M7.00217 8.00322C7.55499 8.00322 8.00313 7.55508 8.00313 7.00227C8.00313 6.44945 7.55499 6.00131 7.00217 6.00131C6.44936 6.00131 6.00122 6.44945 6.00122 7.00227C6.00122 7.55508 6.44936 8.00322 7.00217 8.00322Z" fill="#32ADE6"/>
    <path d="M10.0032 8.00322C10.556 8.00322 11.0041 7.55508 11.0041 7.00227C11.0041 6.44945 10.556 6.00131 10.0032 6.00131C9.45034 6.00131 9.0022 6.44945 9.0022 7.00227C9.0022 7.55508 9.45034 8.00322 10.0032 8.00322Z" fill="#32ADE6"/>
</svg>
