<svg width="16" height="16" viewBox="0 0 16 16" fill="none" xmlns="http://www.w3.org/2000/svg">
    <path fill-rule="evenodd" clip-rule="evenodd" d="M8 16.002C12.4183 16.002 16 12.4202 16 8.00195C16 3.58368 12.4183 0.00195312 8 0.00195312C3.58172 0.00195312 0 3.58368 0 8.00195C0 12.4202 3.58172 16.002 8 16.002ZM10.4 8.00195C10.8418 8.00195 11.2 7.46469 11.2 6.80195C11.2 6.13921 10.8418 5.60195 10.4 5.60195C9.95817 5.60195 9.6 6.13921 9.6 6.80195C9.6 7.46469 9.95817 8.00195 10.4 8.00195ZM6.4 6.80195C6.4 7.46469 6.04183 8.00195 5.6 8.00195C5.15817 8.00195 4.8 7.46469 4.8 6.80195C4.8 6.13921 5.15817 5.60195 5.6 5.60195C6.04183 5.60195 6.4 6.13921 6.4 6.80195ZM5.11798 12.3592C5.31531 12.6255 5.69108 12.6813 5.95729 12.484C6.53996 12.0521 7.24328 11.802 8 11.802C8.75672 11.802 9.46004 12.0521 10.0427 12.484C10.3089 12.6813 10.6847 12.6255 10.882 12.3592C11.0793 12.093 11.0235 11.7173 10.7573 11.5199C9.97936 10.9433 9.02798 10.602 8 10.602C6.97202 10.602 6.02064 10.9433 5.24271 11.5199C4.9765 11.7173 4.92065 12.093 5.11798 12.3592Z" fill="#BDBDBD"/>
</svg>
