<svg width="13" height="13" viewBox="0 0 13 13" fill="none" xmlns="http://www.w3.org/2000/svg">
    <path d="M12.6919 3.21048L9.78716 0.30639C9.69059 0.209796 9.57593 0.133172 9.44975 0.080894C9.32356 0.0286162 9.1883 0.00170898 9.05171 0.00170898C8.91513 0.00170898 8.77987 0.0286162 8.65368 0.080894C8.5275 0.133172 8.41284 0.209796 8.31627 0.30639L0.301426 8.32123C0.204436 8.41745 0.12754 8.53199 0.0752077 8.65819C0.0228754 8.78439 -0.00384919 8.91973 -0.00341271 9.05636V11.9611C-0.00341271 12.2369 0.106154 12.5014 0.301185 12.6965C0.496215 12.8915 0.760733 13.0011 1.03655 13.0011H11.9561C12.094 13.0011 12.2263 12.9463 12.3238 12.8488C12.4213 12.7512 12.4761 12.619 12.4761 12.4811C12.4761 12.3432 12.4213 12.2109 12.3238 12.1134C12.2263 12.0159 12.094 11.9611 11.9561 11.9611H5.41218L12.6919 4.68137C12.7885 4.5848 12.8651 4.47015 12.9174 4.34396C12.9697 4.21777 12.9966 4.08251 12.9966 3.94593C12.9966 3.80934 12.9697 3.67408 12.9174 3.54789C12.8651 3.42171 12.7885 3.30705 12.6919 3.21048ZM1.03655 9.05636L6.75633 3.33657L9.66107 6.24131L3.94129 11.9611H1.03655V9.05636ZM10.3962 5.50619L7.4921 2.60145L9.05204 1.04151L11.9561 3.94625L10.3962 5.50619Z" fill="#BDBDBD"/>
</svg>
