<?xml version="1.0" encoding="UTF-8"?>
<svg width="20px" height="20px" viewBox="0 0 20 20" version="1.1" xmlns="http://www.w3.org/2000/svg" xmlns:xlink="http://www.w3.org/1999/xlink">
    <title>icon-edit</title>
    <g id="页面-1" stroke="none" stroke-width="1" fill="none" fill-rule="evenodd">
        <g id="icon-edit" fill-rule="nonzero">
            <circle id="椭圆形" fill="#FE913F" cx="10" cy="10" r="10"></circle>
            <g id="编组" transform="translate(6.000000, 6.000000)" fill="#FFFFFF">
                <path d="M0.402026934,0 L6.15325183,0 C6.3689791,0 6.54545455,0.168167704 6.54545455,0.373686928 L6.54545455,2.83996054 C6.54545455,2.97541347 6.44252556,3.10154998 6.29543264,3.11086639 C6.13364846,3.12490541 5.99637976,3.00344858 5.99637976,2.85395663 L5.99637976,0.523135939 C5.99637976,0.523135939 5.99637976,0.518456266 5.99142258,0.518456266 L0.549119851,0.518456266 C0.549119851,0.518456266 0.544252806,0.518456266 0.544252806,0.523135939 L0.544252806,6.74486873 C0.544252806,6.74486873 0.544252806,6.7495484 0.549119851,6.7495484 L2.43676722,6.7495484 C2.57894803,6.7495484 2.71134968,6.84760687 2.7211739,6.98773947 C2.73586516,7.14191109 2.60842069,7.27272727 2.45150355,7.27272727 L0.392247779,7.27272727 C0.176520513,7.27272727 0,7.10455957 0,6.89904035 L0,0.373686928 C0.00977915533,0.168167704 0.186299669,0 0.402026934,0 Z" id="路径"></path>
                <path d="M5.81822698,7.45452852 C6.72237215,7.45452852 7.45456804,6.72238537 7.45456804,5.8182044 C7.45456804,4.91402343 6.72232698,4.18188029 5.81822698,4.18188029 C4.91399149,4.18188029 4.1817956,4.91402343 4.1817956,5.8182044 C4.1817956,6.72238537 4.91399149,7.45452852 5.81822698,7.45452852 L5.81822698,7.45452852 Z M5.81822698,8 C4.61426587,8 3.63636364,7.02210788 3.63636364,5.81815924 C3.63636364,4.61421059 4.61426587,3.63636364 5.81822698,3.63636364 C7.02214293,3.63636364 8,4.61425575 8,5.81815924 C8,7.02206272 7.02702092,8 5.81822698,8 L5.81822698,8 Z" id="形状"></path>
                <path d="M5.42075697,4.90231266 C5.42065262,4.83164977 5.44867995,4.76385159 5.49865022,4.71388943 C5.54862048,4.66392727 5.61642312,4.63591101 5.68708585,4.6360269 C5.75774457,4.63591098 5.82554275,4.66392863 5.87550608,4.71389206 C5.92546941,4.76385548 5.953487,4.8316538 5.95337073,4.90231266 L5.95337073,5.5776425 L6.4670138,6.09124287 C6.51720741,6.14086371 6.54545455,6.20850876 6.54545455,6.27908947 C6.54545455,6.34967018 6.51720741,6.41731523 6.4670138,6.46693607 C6.41740892,6.51717603 6.34974803,6.54545455 6.27914571,6.54545455 C6.20854339,6.54545455 6.1408825,6.51717603 6.09127762,6.46693607 L5.57767826,5.95337942 C5.47779958,5.85345682 5.42075697,5.72031413 5.42075697,5.5776425 L5.42075697,4.90231266 L5.42075697,4.90231266 Z M1.72087491,1.45454581 L4.89286455,1.45454581 C4.96353887,1.45442993 5.03135263,1.4824508 5.08133109,1.53242115 C5.13130955,1.58239151 5.15934149,1.65020081 5.15923714,1.72087528 C5.15934152,1.79154575 5.13130819,1.85935058 5.08132846,1.90931401 C5.03134874,1.95927743 4.96353484,1.98728855 4.89286455,1.98716112 L1.72087491,1.98716112 C1.65021218,1.98727692 1.58240954,1.95926066 1.53243927,1.90929851 C1.48246901,1.85933635 1.45444168,1.79153817 1.45454603,1.72087528 C1.45931078,1.56863102 1.57343911,1.45454581 1.72087491,1.45454581 L1.72087491,1.45454581 Z M1.72087491,2.51024626 L3.83235837,2.51024626 C3.97975045,2.51024626 4.09864324,2.62913929 4.09864324,2.77657537 C4.09864324,2.92401146 3.97975045,3.04290484 3.83235837,3.04290484 L1.72087491,3.04290484 C1.6502046,3.04302076 1.5823953,3.0149985 1.53242378,2.96502688 C1.48245225,2.91505525 1.45443005,2.84724583 1.45454596,2.77657537 C1.45931078,2.62913929 1.57343911,2.51024626 1.72087491,2.51024626 L1.72087491,2.51024626 Z M1.72087491,3.56603342 L2.77661664,3.56603342 C2.84727936,3.56591753 2.91508201,3.59393379 2.96505227,3.64389595 C3.01502253,3.69385811 3.04304987,3.76165629 3.04294566,3.83231918 C3.04307313,3.9029972 3.01505606,3.97081787 2.96508327,4.02079896 C2.91511048,4.07078005 2.84729454,4.0988083 2.77661664,4.09869236 L1.72087491,4.09869236 C1.65019701,4.0988083 1.58238106,4.07078005 1.53240827,4.02079896 C1.48243548,3.97081787 1.45441842,3.9029972 1.45454589,3.83231918 C1.45931078,3.68488309 1.57343911,3.56603342 1.72087491,3.56603342 Z" id="形状"></path>
            </g>
        </g>
    </g>
</svg>