
<svg width="6.5180098px" height="6.99934px" viewBox="0 0 6.5180098 6.99934" version="1.1" xmlns="http://www.w3.org/2000/svg" xmlns:xlink="http://www.w3.org/1999/xlink">
    <g id="页面-1" stroke="none" stroke-width="1" fill="none" fill-rule="evenodd">
        <g id="编组" transform="translate(-0.0015, 0)" fill="#C2C2C2" fill-rule="nonzero">
            <path d="M0.219842487,12.20836 C0.289632487,12.13876 0.372432487,12.08366 0.463532487,12.04606 C0.554622487,12.00856 0.652232487,11.98936 0.750762487,11.98946 C0.849292487,11.98966 0.946822487,12.00926 1.03777249,12.04716 C1.12873249,12.08506 1.21133249,12.14056 1.28084249,12.21036 L2.49984249,13.43336 L2.49984249,9.74936 C2.49984249,9.55046 2.57886249,9.35966 2.71951249,9.21906 C2.86017249,9.07836 3.05093249,8.99936 3.24984249,8.99936 C3.44879249,8.99936 3.63949249,9.07836 3.78019249,9.21906 C3.92079249,9.35966 3.99989249,9.55046 3.99989249,9.74936 L3.99989249,13.43936 L5.21989249,12.21936 C5.28849249,12.14566 5.37129249,12.08656 5.46329249,12.04556 C5.55529249,12.00456 5.65459249,11.98256 5.75529249,11.98076 C5.85599249,11.97896 5.95609249,11.99746 6.04949249,12.03526 C6.14279249,12.07296 6.22769249,12.12906 6.29889249,12.20026 C6.37009249,12.27156 6.42629249,12.35636 6.46399249,12.44976 C6.50169249,12.54316 6.52019249,12.64316 6.51839249,12.74386 C6.51669249,12.84456 6.49459249,12.94386 6.45359249,13.03586 C6.41259249,13.12786 6.35349249,13.21066 6.27989249,13.27936 L3.77989249,15.77936 C3.71019249,15.84906 3.62749249,15.90436 3.53649249,15.94206 C3.44549249,15.97976 3.34789249,15.99916 3.24934249,15.99916 C3.15081249,15.99916 3.05325249,15.97976 2.96222249,15.94206 C2.87119249,15.90436 2.78849249,15.84906 2.71884249,15.77936 L0.218842487,13.26936 C0.149282487,13.19956 0.0941524868,13.11676 0.0566024868,13.02566 C0.0190524868,12.93456 -0.000177513197,12.83696 1.23476221e-06,12.73846 C0.000192486803,12.63986 0.0197924868,12.54236 0.0576824868,12.45146 C0.0955724868,12.36046 0.151022487,12.27786 0.220842487,12.20836 M0.220842487,3.77934 C0.0803924868,3.63872 0.0015024868,3.44809 0.0015024868,3.24934 C0.0015024868,3.05059 0.0803924868,2.85997 0.220842487,2.71934 L2.72084249,0.21934 C2.86147249,0.07889 3.05209249,0 3.25084249,0 C3.44959249,0 3.64019249,0.07889 3.78089249,0.21934 L6.28089249,2.71934 C6.35449249,2.788 6.41359249,2.8708 6.45459249,2.9628 C6.49559249,3.0548 6.51769249,3.15412 6.51939249,3.25482 C6.52119249,3.35552 6.50269249,3.45555 6.46499249,3.54894 C6.42729249,3.64233 6.37109249,3.72716 6.29989249,3.79838 C6.22869249,3.8696 6.14379249,3.92574 6.05049249,3.96346 C5.95709249,4.00119 5.85699249,4.01971 5.75629249,4.01793 C5.65559249,4.01616 5.55629249,3.99411 5.46429249,3.95312 C5.37229249,3.91213 5.28949249,3.85303 5.22089249,3.77934 L4.00089249,2.55934 L4.00089249,6.24934 C4.00089249,6.44825 3.92179249,6.63902 3.78119249,6.77967 C3.64049249,6.92032 3.44979249,6.99934 3.25084249,6.99934 C3.05193249,6.99934 2.86117249,6.92032 2.72051249,6.77967 C2.57986249,6.63902 2.50084249,6.44825 2.50084249,6.24934 L2.50084249,2.55934 L1.28084249,3.77934 C1.14022249,3.91979 0.949592487,3.99868 0.750842487,3.99868 C0.552092487,3.99868 0.361472487,3.91979 0.220842487,3.77934 Z" id="形状"></path>
        </g>
    </g>
</svg>
