<svg width="10" height="10" viewBox="0 0 10 10" fill="none" xmlns="http://www.w3.org/2000/svg">
    <path fill-rule="evenodd" clip-rule="evenodd" d="M4.97331 9.839e-08H5.02669C6.10035 -5.88977e-06 6.94176 -1.06318e-05 7.59826 0.0882538C8.27022 0.178597 8.80046 0.367127 9.21665 0.783315C9.63283 1.1995 9.82136 1.72974 9.9117 2.40171C9.99997 3.05821 9.99996 3.89962 9.99996 4.97329V5.02666C9.99996 5.2336 9.99996 5.43192 9.99933 5.62194C10.0003 5.63701 10.0002 5.65229 9.99916 5.66771C9.99614 6.44279 9.98158 7.07847 9.9117 7.59824C9.82136 8.27021 9.63283 8.80045 9.21665 9.21664C8.80046 9.63282 8.27022 9.82135 7.59826 9.9117C7.25511 9.95783 6.86146 9.97985 6.41052 9.99036C6.36775 10.0007 6.3223 10.003 6.27611 9.99593C6.27122 9.99518 6.26636 9.99434 6.26154 9.99339C5.88865 9.99996 5.47821 9.99995 5.02669 9.99995H4.97332C3.89965 9.99996 3.05825 9.99996 2.40175 9.9117C1.72978 9.82135 1.19954 9.63282 0.783357 9.21664C0.36717 8.80045 0.178641 8.27021 0.088298 7.59824C3.3905e-05 6.94174 3.86485e-05 6.10033 4.46367e-05 5.02666V4.97329C4.30565e-05 4.69136 4.15872e-05 4.42544 0.00163834 4.17468C-0.000738534 4.15016 -0.000495515 4.12593 0.00214844 4.10228C0.00735762 3.4303 0.0254545 2.86914 0.088298 2.40171C0.178641 1.72974 0.36717 1.1995 0.783357 0.783315C1.19954 0.367127 1.72978 0.178597 2.40175 0.0882538C3.05825 -1.06318e-05 3.89965 -5.88977e-06 4.97331 9.839e-08ZM0.698219 4.44356C0.697736 4.6198 0.697713 4.80505 0.697713 4.99998C0.697713 6.10612 0.698454 6.90064 0.779745 7.50528C0.859687 8.09988 1.01173 8.45835 1.27668 8.72331C1.54164 8.98826 1.90011 9.14031 2.49471 9.22025C3.09935 9.30154 3.89386 9.30228 5 9.30228C5.37411 9.30228 5.71258 9.30219 6.02011 9.29894C6.27259 6.41863 3.76811 4.00275 0.854611 4.4211L0.698219 4.44356ZM6.72139 9.28264C7.01501 9.27065 7.27404 9.25134 7.50529 9.22025C8.09989 9.14031 8.45836 8.98826 8.72332 8.72331C8.98827 8.45835 9.14032 8.09988 9.22026 7.50528C9.2762 7.08917 9.29399 6.58313 9.29965 5.94748L9.15052 5.92683C8.0252 5.77101 7.0017 6.29981 6.4347 7.15624C6.67027 7.81582 6.77619 8.53508 6.72139 9.28264ZM6.11043 6.42955C5.11431 4.58924 3.04427 3.40186 0.75545 3.73051L0.704441 3.73784C0.7132 3.24654 0.733359 2.83969 0.779745 2.49467C0.859687 1.90007 1.01173 1.5416 1.27668 1.27664C1.54164 1.01169 1.90011 0.859646 2.49471 0.779703C3.09935 0.698412 3.89386 0.697671 5 0.697671C6.10614 0.697671 6.90066 0.698412 7.50529 0.779703C8.09989 0.859646 8.45836 1.01169 8.72332 1.27664C8.98827 1.5416 9.14032 1.90007 9.22026 2.49467C9.30155 3.09931 9.30229 3.89383 9.30229 4.99998C9.30229 5.08289 9.30228 5.16405 9.30224 5.24351L9.24621 5.23575C7.99537 5.06256 6.84638 5.56743 6.11043 6.42955ZM6.86045 2.55813C6.53936 2.55813 6.27906 2.81843 6.27906 3.13952C6.27906 3.46061 6.53936 3.72091 6.86045 3.72091C7.18154 3.72091 7.44184 3.46061 7.44184 3.13952C7.44184 2.81843 7.18154 2.55813 6.86045 2.55813ZM5.58139 3.13952C5.58139 2.43311 6.15405 1.86046 6.86045 1.86046C7.56685 1.86046 8.13951 2.43311 8.13951 3.13952C8.13951 3.84593 7.56685 4.41858 6.86045 4.41858C6.15405 4.41858 5.58139 3.84593 5.58139 3.13952Z" fill="#C2C2C2"/>
</svg>
