<svg width="18" height="18" viewBox="0 0 18 18" fill="none" xmlns="http://www.w3.org/2000/svg">
    <g clip-path="url(#clip0_547_420)">
        <path d="M11.6025 6.00049H6.40239C6.1814 6.00049 6.0022 6.17969 6.0022 6.40068V11.6008C6.0022 11.8218 6.1814 12.001 6.40239 12.001H11.6025C11.8235 12.001 12.0027 11.8218 12.0027 11.6008V6.40068C12.0027 6.17969 11.8235 6.00049 11.6025 6.00049Z" fill="white"/>
        <path d="M5.60034 0H0.400196C0.179204 0 0 0.179204 0 0.400196V5.60034C0 5.82133 0.179204 6.00054 0.400196 6.00054H5.60034C5.82133 6.00054 6.00054 5.82133 6.00054 5.60034V0.400196C6.00054 0.179204 5.82133 0 5.60034 0Z" fill="white"/>
        <path d="M17.6006 0H12.4004C12.1794 0 12.0002 0.179204 12.0002 0.400196V5.60034C12.0002 5.82133 12.1794 6.00054 12.4004 6.00054H17.6006C17.8216 6.00054 18.0008 5.82133 18.0008 5.60034V0.400196C18.0008 0.179204 17.8216 0 17.6006 0Z" fill="white"/>
        <path d="M5.60034 12.0002H0.400196C0.179204 12.0002 0 12.1794 0 12.4004V17.6006C0 17.8216 0.179204 18.0008 0.400196 18.0008H5.60034C5.82133 18.0008 6.00054 17.8216 6.00054 17.6006V12.4004C6.00054 12.1794 5.82133 12.0002 5.60034 12.0002Z" fill="white"/>
        <path d="M17.6006 12.0002H12.4004C12.1794 12.0002 12.0002 12.1794 12.0002 12.4004V17.6006C12.0002 17.8216 12.1794 18.0008 12.4004 18.0008H17.6006C17.8216 18.0008 18.0008 17.8216 18.0008 17.6006V12.4004C18.0008 12.1794 17.8216 12.0002 17.6006 12.0002Z" fill="white"/>
    </g>
    <defs>
        <clipPath id="clip0_547_420">
            <rect width="18" height="18" fill="white"/>
        </clipPath>
    </defs>
</svg>
