<svg t="1760944701320" class="icon" viewBox="0 0 1538 1024" version="1.1" xmlns="http://www.w3.org/2000/svg" p-id="4349" width="64" height="64"><path d="M1333.53248 308.118464C1333.53248 331.551494 1344.476864 354.843085 1363.273792 371.411226 1382.081408 387.9888 1408.495552 397.635482 1435.080896 397.635482 1461.676928 397.635482 1488.091072 387.9888 1506.898688 371.411226 1525.695616 354.843085 1536.64 331.560928 1536.64 308.118464 1536.64 284.676 1525.695616 261.393843 1506.898688 244.825696 1488.091072 228.248122 1461.676928 218.601446 1435.080896 218.601446 1408.495552 218.601446 1382.081408 228.248122 1363.273792 244.825696 1344.476864 261.393843 1333.53248 284.676 1333.53248 308.118464L1333.53248 308.118464ZM0.64 317.623693C0.64 341.056723 11.584384 364.348314 30.381312 380.916461 49.188928 397.494035 75.613824 407.14071 102.199104 407.14071 128.784448 407.14071 155.20928 397.494035 174.006208 380.916461 192.813824 364.348314 203.758208 341.056723 203.758208 317.623693 203.758208 294.181229 192.813824 270.899072 174.006208 254.321498 155.20928 237.75335 128.784448 228.106675 102.199104 228.106675 75.613824 228.106675 49.188928 237.75335 30.381312 254.321498 11.584384 270.899072 0.64 294.181229 0.64 317.623693L0.64 317.623693ZM679.98304 89.517018C679.98304 112.950054 690.927424 136.241638 709.724352 152.809786 728.532032 169.38736 754.956864 179.024608 781.531456 179.024608 808.127488 179.024608 834.541632 169.38736 853.349248 152.809786 872.146176 136.241638 883.09056 112.950054 883.09056 89.517018 883.09056 66.074554 872.146176 42.78297 853.349248 26.214822 834.541632 9.646675 808.127488 0 781.531456 0 754.956864 0 728.532032 9.646675 709.724352 26.214822 690.927424 42.78297 679.98304 66.074554 679.98304 89.517018L679.98304 89.517018ZM282.080576 1024 1237.333248 1024 1427.902336 367.922202 1030.2352 713.806982 780.921664 149.641376 523.434624 713.806982 120.803456 376.116691 282.080576 1024Z" fill="#FF7A00" p-id="4350" data-spm-anchor-id="a313x.search_index.0.i5.38e43a81E4XGFA" class="selected"></path></svg>