<?xml version="1.0" encoding="UTF-8"?>
<svg width="24px" height="22px" viewBox="0 0 24 22" version="1.1" xmlns="http://www.w3.org/2000/svg" xmlns:xlink="http://www.w3.org/1999/xlink">
    <title>编组</title>
    <g id="页面-1" stroke="none" stroke-width="1" fill="none" fill-rule="evenodd">
        <g id="编组" fill="#3B3B3B" fill-rule="nonzero">
            <path d="M10.1052631,11.4832536 C11.2535885,12.1722488 11.8277512,12.5167464 12.5167464,12.5167464 C13.2057416,12.5167464 13.7799043,12.1722488 14.9282297,11.4832536 L22.277512,7.23444976 C22.6220096,7.0047847 22.8516746,6.66028709 22.8516746,6.31578946 C22.8516746,5.97129182 22.6220096,5.5119617 22.277512,5.28229663 L14.8133971,1.03349282 C13.6650718,0.344497608 13.0909091,9.79121091e-16 12.4019139,9.79121091e-16 C11.7129187,9.79121091e-16 11.138756,0.344497608 9.99043063,1.03349282 L3.67464114,4.70813396 C3.67464114,4.70813396 3.5598086,4.70813396 3.5598086,4.82296651 C1.3779904,6.0861244 7.34340818e-16,8.49760765 7.34340818e-16,11.0239234 L7.34340818e-16,11.2535885 C7.34340818e-16,13.7799043 1.37799043,16.076555 3.5598086,17.4545455 L3.67464114,17.569378 L7.69377989,19.8660287 C9.9904306,21.2440191 11.2535885,21.9330144 12.5167464,21.9330144 C13.7799043,21.9330144 14.9282297,21.2440191 17.3397129,19.8660287 L21.5885167,17.4545455 C22.7368421,16.7655502 23.3110048,16.4210526 23.6555024,15.84689 C24,15.2727273 24,14.5837321 24,13.2057416 L24,10.5645933 C24,10.2200957 23.7703349,9.87559808 23.4258373,9.64593302 C23.0813397,9.41626796 22.7368421,9.41626796 22.3923445,9.64593302 L13.6650718,14.6985646 C13.0909091,15.0430622 12.7464115,15.1578947 12.5167464,15.1578947 C12.1722488,15.1578947 11.9425837,15.0430622 11.3684211,14.6985646 L5.51196172,11.2535885 C5.05263157,11.0239234 4.93779905,11.0239234 4.82296651,10.9090909 C4.59330145,10.9090909 4.24880384,11.0239234 4.13397129,11.2535885 L4.13397129,12.2870813 C4.13397129,12.5167464 4.36363636,12.7464115 4.4784689,12.9760766 C4.59330145,13.2057416 4.70813396,13.2057416 4.93779903,13.4354067 L11.2535885,17.1100478 C11.8277512,17.4545455 12.1722488,17.569378 12.4019139,17.569378 C12.7464115,17.569378 12.9760766,17.4545455 13.5502392,17.1100478 L21.2440191,12.6315789 C21.4736842,12.5167464 21.5885167,12.4019139 21.5885167,12.5167464 C21.7033493,12.5167464 21.7033493,12.6315789 21.7033493,12.861244 L21.7033493,14.0095694 C21.7033493,14.354067 21.7033493,14.4688995 21.5885167,14.6985646 C21.4736842,14.8133971 21.3588517,14.9282297 21.0143541,15.0430622 L14.6985646,18.7177033 C13.5502392,19.4066986 12.9760766,19.7511962 12.2870813,19.7511962 C11.5980861,19.7511962 11.0239234,19.4066986 9.87559808,18.7177033 L3.9043062,15.2727273 C2.75598084,14.583732 2.06698562,13.2057416 2.06698565,11.7129187 L2.06698565,10.5645933 C2.06698565,9.76076554 2.5263158,9.07177032 3.21531099,8.61244019 C3.78947366,8.26794259 4.59330142,8.26794259 5.16746412,8.61244019 L10.1052631,11.4832536 L10.1052631,11.4832536 Z" id="路径"></path>
        </g>
    </g>
</svg>