<svg width="10" height="10" viewBox="0 0 10 10" fill="none" xmlns="http://www.w3.org/2000/svg">
    <path d="M5.56505 3.92636C5.57362 3.92845 5.58091 3.92663 5.58692 3.92089C5.83668 3.68188 6.09214 3.44914 6.34283 3.21303C7.17447 2.42956 8.00749 1.64725 8.84187 0.866107C8.87329 0.836695 8.89437 0.83437 8.93825 0.834138C9.19569 0.83282 9.45429 0.833208 9.71404 0.8353C9.71491 0.835289 9.71575 0.835523 9.71645 0.835969C9.71715 0.836414 9.71766 0.837049 9.71793 0.837782C9.71819 0.838516 9.71819 0.839311 9.71792 0.840055C9.71765 0.840798 9.71712 0.841453 9.71642 0.841926C9.68355 0.863549 9.65518 0.885521 9.62561 0.91319C8.41774 2.04821 7.20987 3.18315 6.002 4.31801C5.98759 4.33158 5.96983 4.34642 5.9487 4.36254C5.94403 4.36612 5.94107 4.37111 5.9404 4.37652C5.93974 4.38192 5.94142 4.38735 5.94512 4.39172C6.51322 5.06072 7.0838 5.73041 7.65684 6.40081C8.40108 7.27131 9.14444 8.1424 9.88691 9.01406C9.92358 9.05723 9.95986 9.09769 9.99574 9.13543C9.99793 9.13771 9.99934 9.14048 9.99982 9.14342C10.0003 9.14637 9.99983 9.14937 9.99846 9.15209C9.9971 9.15481 9.99489 9.15715 9.99209 9.15883C9.98929 9.1605 9.98601 9.16146 9.98262 9.16159C9.95478 9.16275 9.92924 9.16333 9.90599 9.16333C8.98023 9.16473 8.05446 9.16543 7.12869 9.16543C7.10496 9.16543 7.07991 9.14683 7.0644 9.12846C6.15896 8.06025 5.24888 6.99037 4.33416 5.91882C4.33128 5.91547 4.32759 5.91271 4.32336 5.91076C4.31912 5.90881 4.31445 5.9077 4.30967 5.90752C4.30489 5.90734 4.30012 5.9081 4.29571 5.90973C4.29131 5.91136 4.28736 5.91383 4.28418 5.91696C4.10707 6.08995 3.92094 6.25898 3.73866 6.42976C3.33256 6.80998 2.92734 7.19094 2.52301 7.57264C1.92367 8.13845 1.34912 8.66949 0.852385 9.14032C0.837626 9.15419 0.820789 9.16128 0.801876 9.16159C0.57872 9.16485 0.355564 9.16655 0.132407 9.16671C0.0929902 9.16678 0.0554292 9.16496 0.0197242 9.16124C0.0175363 9.161 0.0154629 9.16024 0.013735 9.15903C0.012007 9.15783 0.0106922 9.15624 0.0099365 9.15443C0.00918083 9.15262 0.00901393 9.15067 0.00945466 9.1488C0.00989538 9.14692 0.0109267 9.14519 0.0124331 9.1438L3.92134 5.48252C3.92639 5.47781 3.92939 5.47169 3.9298 5.46524C3.93021 5.4588 3.92801 5.45244 3.92359 5.4473C2.68143 3.98964 1.44063 2.53248 0.20121 1.07583C0.136252 0.999488 0.0700118 0.925358 0.00249046 0.853436C0.0012073 0.852051 0.000380832 0.85038 0.000103522 0.848612C-0.000173788 0.846843 0.000108632 0.845045 0.000919531 0.843418C0.00173043 0.841791 0.00303787 0.840399 0.00469615 0.839396C0.00635444 0.838394 0.00829873 0.837821 0.0103119 0.837741C0.039035 0.836346 0.0653718 0.835649 0.0893224 0.835649C1.37797 0.835106 2.29822 0.834447 2.85005 0.833672C2.91992 0.833672 2.93291 0.860876 2.97719 0.912841C3.8273 1.91022 4.67835 2.90697 5.53032 3.90311C5.54083 3.91551 5.55241 3.92326 5.56505 3.92636ZM1.26746 1.37623C1.25517 1.37599 1.24837 1.38006 1.24704 1.38843C1.24679 1.38987 1.24687 1.39133 1.24728 1.39273C1.24769 1.39413 1.24842 1.39543 1.24943 1.39657C2.43582 2.78223 3.61948 4.16863 4.8004 5.55576C4.87212 5.64005 4.96863 5.747 5.05002 5.84454C5.20566 6.03101 5.36832 6.21318 5.52568 6.39802C6.13284 7.11119 6.7408 7.82386 7.34955 8.53603C7.39197 8.58567 7.4039 8.61125 7.48331 8.61136C7.91981 8.61183 8.35698 8.6116 8.79481 8.61067C8.79648 8.61067 8.79811 8.61027 8.79954 8.60952C8.80097 8.60876 8.80213 8.60768 8.80291 8.60639C8.80369 8.6051 8.80405 8.60364 8.80395 8.60218C8.80385 8.60072 8.80331 8.59932 8.80237 8.59811C8.78129 8.57114 8.7508 8.5451 8.73091 8.52185C6.70593 6.15063 4.67499 3.78313 2.65465 1.40889C2.63795 1.38929 2.6147 1.37968 2.58492 1.38006C2.17175 1.38533 1.73259 1.38405 1.26746 1.37623Z" fill="#2A2A2A"/>
</svg>
