<svg width="31" height="16" viewBox="0 0 31 16" fill="none" xmlns="http://www.w3.org/2000/svg">
    <path d="M0.97921 11.2218C0.783948 11.417 0.783948 11.7336 0.97921 11.9289L4.16119 15.1109C4.35645 15.3061 4.67304 15.3061 4.8683 15.1109C5.06356 14.9156 5.06356 14.599 4.8683 14.4037L2.03987 11.5753L4.8683 8.74689C5.06356 8.55163 5.06356 8.23505 4.8683 8.03978C4.67304 7.84452 4.35645 7.84452 4.16119 8.03978L0.97921 11.2218ZM30.6863 4.92887C30.8816 4.73361 30.8816 4.41703 30.6863 4.22176L27.5043 1.03978C27.3091 0.844521 26.9925 0.844521 26.7972 1.03978C26.602 1.23505 26.602 1.55163 26.7972 1.74689L29.6257 4.57532L26.7972 7.40374C26.602 7.59901 26.602 7.91559 26.7972 8.11085C26.9925 8.30611 27.3091 8.30611 27.5043 8.11085L30.6863 4.92887ZM18.8071 11.0753H1.33276V12.0753H18.8071V11.0753ZM12.8584 5.07532H21.5956V4.07532H12.8584V5.07532ZM21.5956 5.07532H30.3328V4.07532H21.5956V5.07532Z" fill="#3B3B3B"/>
</svg>
