<svg width="8" height="8" viewBox="0 0 8 8" fill="none" xmlns="http://www.w3.org/2000/svg">
    <path d="M4 8C6.20914 8 8 6.20914 8 4C8 1.79086 6.20914 0 4 0C1.79086 0 0 1.79086 0 4C0 6.20914 1.79086 8 4 8Z" fill="url(#paint0_linear_1019_4745)"/>
    <path fill-rule="evenodd" clip-rule="evenodd" d="M1.81102 3.95761C2.9771 3.44957 3.75467 3.11464 4.14373 2.95281C5.25457 2.49078 5.48539 2.41052 5.63584 2.40787C5.66893 2.40728 5.74292 2.41548 5.79084 2.45437C5.83131 2.48721 5.84244 2.53156 5.84777 2.5627C5.8531 2.59383 5.85973 2.66475 5.85446 2.72016C5.79426 3.35266 5.53379 4.88755 5.40128 5.59596C5.34521 5.89571 5.2348 5.99622 5.12791 6.00605C4.89563 6.02743 4.71924 5.85254 4.49426 5.70506C4.1422 5.47429 3.94332 5.33063 3.60159 5.10544C3.20667 4.84519 3.46268 4.70215 3.68775 4.46839C3.74665 4.40721 4.77011 3.47629 4.78992 3.39184C4.7924 3.38128 4.7947 3.34191 4.77131 3.32112C4.74792 3.30033 4.7134 3.30744 4.68849 3.31309C4.65318 3.32111 4.09077 3.69284 3.00127 4.42829C2.84163 4.53791 2.69703 4.59132 2.56748 4.58852C2.42466 4.58543 2.14993 4.50776 1.9457 4.44138C1.6952 4.35995 1.49611 4.3169 1.51344 4.17861C1.52247 4.10658 1.62166 4.03291 1.81102 3.95761Z" fill="white"/>
    <defs>
        <linearGradient id="paint0_linear_1019_4745" x1="4" y1="0" x2="4" y2="7.94067" gradientUnits="userSpaceOnUse">
            <stop stop-color="#2AABEE"/>
            <stop offset="1" stop-color="#229ED9"/>
        </linearGradient>
    </defs>
</svg>
