<?xml version="1.0" encoding="UTF-8"?>
<svg width="20px" height="19px" viewBox="0 0 20 19" version="1.1" xmlns="http://www.w3.org/2000/svg" xmlns:xlink="http://www.w3.org/1999/xlink">
    <title>icon-tabbar-wallet-active</title>
    <defs>
        <linearGradient x1="100%" y1="-23.7774494%" x2="0.25135%" y2="126.321525%" id="linearGradient-1">
            <stop stop-color="#FCA454" offset="0%"></stop>
            <stop stop-color="#FF7A00" offset="100%"></stop>
        </linearGradient>
        <path d="M18.4096522,5.24227948 C18.3550435,5.23879193 18.2968696,5.23739314 18.2351304,5.23809254 L15.8013913,5.23809254 C13.8081739,5.23809254 12.1031304,6.94364023 12.1031304,9.16668558 C12.1031304,11.3897309 13.8091304,13.0952219 15.8013913,13.0952219 L18.2351304,13.0952219 C18.2968696,13.0958835 18.3553043,13.0945603 18.4106087,13.0910633 C18.8202608,13.0642216 19.2069565,12.8763293 19.4986957,12.5625454 C19.7903478,12.2488561 19.9671304,11.830446 19.9960869,11.3854778 C20,11.3226265 20,11.254577 20,11.1917258 L20,7.14164541 C20,7.07879413 20,7.01065009 19.9960869,6.94779881 C19.9671304,6.50283058 19.7903478,6.08449619 19.4986957,5.77071232 C19.2069565,5.45693789 18.8193043,5.26913068 18.4096522,5.24227948 Z M15.5884347,10.2142701 C16.1012174,10.2142701 16.5166087,9.74491742 16.5166087,9.16668558 C16.5166087,8.58835917 16.1012174,8.11900658 15.5884347,8.11900658 C15.0746957,8.11900658 14.6592174,8.58835917 14.6592174,9.16668558 C14.6592174,9.74491742 15.0746957,10.2142701 15.5884347,10.2142701 Z" id="path-2"></path>
        <linearGradient x1="100%" y1="-23.5417095%" x2="0.25135%" y2="126.077656%" id="linearGradient-3">
            <stop stop-color="#FCA454" offset="0%"></stop>
            <stop stop-color="#FF7A00" offset="100%"></stop>
        </linearGradient>
        <path d="M18.2341739,14.6665986 C18.2675653,14.6651809 18.3006957,14.6722694 18.3310435,14.6873915 C18.3613043,14.7025137 18.388,14.7251023 18.4086957,14.7534563 C18.4294783,14.7819048 18.4437392,14.8151734 18.4504347,14.8507103 C18.4571304,14.8861528 18.4560869,14.9229184 18.4472174,14.9578883 C18.2544347,15.7037867 17.9469565,16.3407112 17.4544348,16.8749944 C16.7325218,17.6606828 15.8178261,18.0074518 14.6881739,18.1730389 C13.5893913,18.3333333 12.1869565,18.3333333 10.4153913,18.3333333 L8.37973917,18.3333333 C6.60819131,18.3333333 5.20481739,18.3333333 4.10699131,18.1730389 C2.97734782,18.0074518 2.06265218,17.6596432 1.34072174,16.8760341 C0.619756522,16.0913853 0.299756522,15.0972008 0.147469565,13.8693797 C0,12.6751107 0,11.1508015 0,9.22528375 L0,9.10799283 C0,7.18247512 0,5.65712633 0.147469565,4.46284788 C0.299756522,3.23503615 0.619756522,2.24085163 1.34072174,1.45618402 C2.06265218,0.672565494 2.97734782,0.324756861 4.10699131,0.159235866 C5.20578261,0 6.60819131,0 8.37973917,0 L10.4153913,0 C12.1869565,0 13.5903478,0 14.6881739,0.160284963 C15.8178261,0.325805958 16.7325218,0.673614591 17.4544348,1.45723312 C17.9469565,1.99361452 18.2544347,2.62951833 18.4472174,3.37541663 C18.4560869,3.41037707 18.4571304,3.44710491 18.4504347,3.48261352 C18.4437392,3.51812213 18.4294783,3.55141914 18.4086957,3.57979201 C18.388,3.60816488 18.3613043,3.63081969 18.3310435,3.64591346 C18.3006957,3.66100722 18.2675653,3.66811461 18.2341739,3.66665911 L15.8014783,3.66665911 C13.0669565,3.66665911 10.6573913,6.01331828 10.6573913,9.16668558 C10.6573913,12.31993 13.0669565,14.6665986 15.8014783,14.6665986 L18.2341739,14.6665986 Z M4.81927826,13.0952219 C4.62755653,13.0952219 4.44368696,13.0124283 4.30811304,12.8650823 C4.17254782,12.7177361 4.09638261,12.5178407 4.09638261,12.3095335 L4.09638261,6.02379035 C4.09638261,5.81540762 4.17254782,5.61555942 4.30811304,5.46821332 C4.44368696,5.32086721 4.62755653,5.23808308 4.81927826,5.23808308 C5.011,5.23808308 5.19486957,5.32086721 5.33043478,5.46821332 C5.46600869,5.61555942 5.54216522,5.81540762 5.54216522,6.02379035 L5.54216522,12.3095335 C5.54216522,12.5178407 5.46600869,12.7177361 5.33043478,12.8650823 C5.19486957,13.0124283 5.011,13.0952219 4.81927826,13.0952219 Z" id="path-4"></path>
    </defs>
    <g id="页面-1" stroke="none" stroke-width="1" fill="none" fill-rule="evenodd">
        <g id="icon-tabbar-wallet-active" fill-rule="nonzero">
            <g id="形状">
                <use fill="#3B3B3B" xlink:href="#path-2"></use>
                <use fill="url(#linearGradient-1)" xlink:href="#path-2"></use>
            </g>
            <g id="形状">
                <use fill="#3B3B3B" xlink:href="#path-4"></use>
                <use fill="url(#linearGradient-3)" xlink:href="#path-4"></use>
            </g>
        </g>
    </g>
</svg>