<svg width="25" height="26" viewBox="0 0 25 26" fill="none" xmlns="http://www.w3.org/2000/svg">
<path d="M19.1111 11.2059C19.1111 15.931 15.2807 19.7615 10.5556 19.7615C5.83045 19.7615 2 15.931 2 11.2059C2 6.48084 5.83045 2.65039 10.5556 2.65039C15.2807 2.65039 19.1111 6.48084 19.1111 11.2059Z" fill="#3B3B3B"/>
<path d="M19.1111 19.7615L23 23.6504M19.1111 11.2059C19.1111 15.931 15.2807 19.7615 10.5556 19.7615C5.83045 19.7615 2 15.931 2 11.2059C2 6.48084 5.83045 2.65039 10.5556 2.65039C15.2807 2.65039 19.1111 6.48084 19.1111 11.2059Z" stroke="#3B3B3B" stroke-width="2" stroke-linecap="round"/>
<circle cx="10.5" cy="11.1504" r="4" stroke="white"/>
</svg>
