<svg width="8" height="11" viewBox="0 0 8 11" fill="none" xmlns="http://www.w3.org/2000/svg">
    <path d="M1.27273 1.66076C1.27273 1.3529 1.39724 1.05766 1.61887 0.839977C1.84051 0.622294 2.14111 0.5 2.45455 0.5H6.81818C7.13162 0.5 7.43222 0.622294 7.65385 0.839977C7.87549 1.05766 8 1.3529 8 1.66076V8.08956C8 8.24199 7.96943 8.39293 7.91004 8.53376C7.85065 8.67459 7.7636 8.80255 7.65385 8.91033C7.54411 9.01812 7.41383 9.10362 7.27044 9.16195C7.12706 9.22029 6.97338 9.25031 6.81818 9.25031H2.45455C2.29935 9.25031 2.14567 9.22029 2.00228 9.16195C1.8589 9.10362 1.72862 9.01812 1.61887 8.91033C1.50913 8.80255 1.42208 8.67459 1.36269 8.53376C1.3033 8.39293 1.27273 8.24199 1.27273 8.08956V1.66076ZM0 2.9108C0 2.42793 0.300364 2.01398 0.727273 1.83898V8.17849C0.727273 8.60474 0.899675 9.01354 1.20655 9.31495C1.51343 9.61636 1.92965 9.78569 2.36364 9.78569H6.63673C6.54696 9.99728 6.39543 10.178 6.20122 10.3052C6.00702 10.4323 5.77884 10.5001 5.54545 10.5H2.36364C1.73682 10.5 1.13568 10.2555 0.692422 9.82017C0.249164 9.38488 9.64327e-05 8.79449 0 8.17885V2.9108Z" fill="#353535"/>
</svg>
