<svg t="1758173307753" class="icon" viewBox="0 0 1024 1024" version="1.1" xmlns="http://www.w3.org/2000/svg" p-id="4510" width="200" height="200"><path d="M192 416C172.8 416 160 403.2 160 384L160 256c0-51.2 44.8-96 96-96l128 0c19.2 0 32 12.8 32 32S403.2 224 384 224L256 224C236.8 224 224 236.8 224 256l0 128C224 403.2 211.2 416 192 416z" fill="#FE913F" p-id="4511"></path><path d="M384 864 256 864c-51.2 0-96-44.8-96-96l0-128c0-19.2 12.8-32 32-32S224 620.8 224 640l0 128c0 19.2 12.8 32 32 32l128 0c19.2 0 32 12.8 32 32S403.2 864 384 864z" fill="#FE913F" p-id="4512"></path><path d="M768 864l-128 0c-19.2 0-32-12.8-32-32s12.8-32 32-32l128 0c19.2 0 32-12.8 32-32l0-128c0-19.2 12.8-32 32-32s32 12.8 32 32l0 128C864 819.2 819.2 864 768 864z" fill="#FE913F" p-id="4513"></path><path d="M832 416c-19.2 0-32-12.8-32-32L800 256c0-19.2-12.8-32-32-32l-128 0C620.8 224 608 211.2 608 192S620.8 160 640 160l128 0c51.2 0 96 44.8 96 96l0 128C864 403.2 851.2 416 832 416z" fill="#FE913F" p-id="4514"></path><path d="M832 544 192 544C172.8 544 160 531.2 160 512S172.8 480 192 480l640 0c19.2 0 32 12.8 32 32S851.2 544 832 544z" fill="#FE913F" p-id="4515"></path></svg>
