<svg width="40" height="40" viewBox="0 0 40 40" fill="none" xmlns="http://www.w3.org/2000/svg">
    <g clip-path="url(#clip0_490_697)">
        <rect width="40" height="40" rx="20" fill="#C7C7C7"/>
        <circle cx="20" cy="20" r="20" fill="#FFE4C3"/>
        <path fill-rule="evenodd" clip-rule="evenodd" d="M26.3644 18.2754C26.6469 16.4261 25.2067 15.432 23.2374 14.7688L23.8762 12.2638L22.3161 11.8838L21.6942 14.3228C21.2846 14.2229 20.8635 14.1287 20.445 14.0353L21.0714 11.5802L19.5126 11.2002L18.8733 13.7044C18.5339 13.6288 18.2008 13.5541 17.8774 13.4755L17.8791 13.4677L15.7282 12.9426L15.3133 14.5712C15.3133 14.5712 16.4705 14.8305 16.446 14.8466C17.0777 15.0008 17.1924 15.4094 17.1728 15.7334L16.4452 18.5872C16.4887 18.5981 16.5451 18.6137 16.6073 18.638L16.4429 18.5981L15.4225 22.5958C15.3452 22.7834 15.1493 23.0648 14.7078 22.958C14.7233 22.9801 13.5741 22.6813 13.5741 22.6813L12.7998 24.4272L14.8299 24.9219C15.0591 24.978 15.2855 25.0358 15.5094 25.0929C15.6544 25.1299 15.7984 25.1666 15.9414 25.2025L15.2959 27.7366L16.8538 28.1166L17.4935 25.6098C17.9187 25.7227 18.3318 25.827 18.736 25.9251L18.099 28.4202L19.6587 28.8002L20.3042 26.2713C22.9638 26.7633 24.9642 26.5649 25.8051 24.2136C26.4834 22.32 25.7718 21.2277 24.3724 20.5151C25.3915 20.2844 26.1596 19.6291 26.3644 18.2754ZM22.8003 23.1608C22.3575 24.8987 19.5744 24.1796 18.3022 23.8509C18.1883 23.8215 18.0864 23.7952 17.9995 23.774L18.856 20.4173C18.9622 20.4433 19.092 20.4717 19.2391 20.504C20.5553 20.7928 23.2522 21.3845 22.8003 23.1608ZM19.5037 18.9464C20.5652 19.2232 22.8792 19.8268 23.2823 18.248C23.6944 16.6329 21.4443 16.1461 20.3454 15.9083C20.2219 15.8816 20.1129 15.858 20.0239 15.8363L19.2474 18.8808C19.3208 18.8987 19.4071 18.9212 19.5037 18.9464Z" fill="#F7931A"/>
    </g>
    <defs>
        <clipPath id="clip0_490_697">
            <rect width="40" height="40" rx="20" fill="white"/>
        </clipPath>
    </defs>
</svg>
