<?xml version="1.0" standalone="no"?><!DOCTYPE svg PUBLIC "-//W3C//DTD SVG 1.1//EN" "http://www.w3.org/Graphics/SVG/1.1/DTD/svg11.dtd"><svg t="1723024195481" class="icon" viewBox="0 0 1024 1024" version="1.1" xmlns="http://www.w3.org/2000/svg" p-id="1588" xmlns:xlink="http://www.w3.org/1999/xlink" width="200" height="200"><path d="M964.16 373.44a60.16 60.16 0 0 0-49.92-12.48c-168 33.92-580.8 32-716.16-6.72a62.08 62.08 0 0 1 0-118.72c128-37.76 501.12-40 659.52-7.04a60.16 60.16 0 0 0 72.64-58.88c0-120.64-566.08-97.92-709.44-80.32a232.96 232.96 0 0 0-195.2 237.76v368.64a224 224 0 0 0 195.84 221.44 2665.6 2665.6 0 0 0 569.28 0 232.96 232.96 0 0 0 195.2-237.76c0.32-261.76 10.24-279.68-21.76-305.92z m-137.92 332.8a76.16 76.16 0 1 1 76.16-75.84 76.16 76.16 0 0 1-76.16 75.84z" fill="#3B3B3B" p-id="1589"></path></svg>