<svg width="16" height="16" viewBox="0 0 16 16" fill="none" xmlns="http://www.w3.org/2000/svg">
    <rect width="16" height="16" rx="8" fill="black"/>
    <path d="M8.33903 7.22695C8.34417 7.22846 8.34855 7.22714 8.35215 7.22301C8.50201 7.05092 8.65528 6.88335 8.8057 6.71335C9.30468 6.14925 9.80449 5.58599 10.3051 5.02357C10.324 5.00239 10.3366 5.00072 10.3629 5.00055C10.5174 4.9996 10.6726 4.99988 10.8284 5.00139C10.8289 5.00138 10.8294 5.00155 10.8299 5.00187C10.8303 5.00219 10.8306 5.00265 10.8308 5.00317C10.8309 5.0037 10.8309 5.00427 10.8308 5.00481C10.8306 5.00535 10.8303 5.00582 10.8299 5.00616C10.8101 5.02173 10.7931 5.03755 10.7754 5.05747C10.0506 5.87468 9.32592 6.69184 8.6012 7.50894C8.59255 7.51871 8.5819 7.52939 8.56922 7.541C8.56642 7.54358 8.56464 7.54717 8.56424 7.55106C8.56384 7.55496 8.56486 7.55886 8.56707 7.56201C8.90793 8.04369 9.25028 8.52587 9.59411 9.00855C10.0406 9.63532 10.4867 10.2625 10.9321 10.8901C10.9541 10.9212 10.9759 10.9503 10.9974 10.9775C10.9988 10.9791 10.9996 10.9811 10.9999 10.9832C11.0002 10.9854 10.9999 10.9875 10.9991 10.9895C10.9983 10.9914 10.9969 10.9931 10.9953 10.9943C10.9936 10.9955 10.9916 10.9962 10.9896 10.9963C10.9729 10.9972 10.9575 10.9976 10.9436 10.9976C10.3881 10.9986 9.83268 10.9991 9.27722 10.9991C9.26298 10.9991 9.24794 10.9857 9.23864 10.9725C8.69537 10.2033 8.14933 9.43304 7.60049 8.66152C7.59877 8.65911 7.59656 8.65713 7.59402 8.65572C7.59147 8.65431 7.58867 8.65352 7.5858 8.65339C7.58293 8.65326 7.58007 8.6538 7.57743 8.65498C7.57478 8.65615 7.57242 8.65793 7.57051 8.66018C7.46424 8.78473 7.35256 8.90644 7.2432 9.0294C6.99954 9.30316 6.75641 9.57745 6.51381 9.85227C6.1542 10.2597 5.80947 10.642 5.51143 10.981C5.50258 10.991 5.49247 10.9961 5.48113 10.9963C5.34723 10.9987 5.21334 10.9999 5.07944 11C5.05579 11.0001 5.03326 10.9987 5.01183 10.9961C5.01052 10.9959 5.00928 10.9953 5.00824 10.9945C5.0072 10.9936 5.00642 10.9925 5.00596 10.9912C5.00551 10.9899 5.00541 10.9885 5.00567 10.9871C5.00594 10.9858 5.00656 10.9845 5.00746 10.9835L7.3528 8.34739C7.35583 8.34399 7.35763 8.33959 7.35788 8.33495C7.35813 8.33031 7.35681 8.32573 7.35415 8.32203C6.60886 7.27251 5.86438 6.22336 5.12073 5.17457C5.08175 5.1196 5.04201 5.06623 5.00149 5.01444C5.00072 5.01345 5.00023 5.01224 5.00006 5.01097C4.9999 5.0097 5.00007 5.0084 5.00055 5.00723C5.00104 5.00606 5.00182 5.00506 5.00282 5.00434C5.00381 5.00361 5.00498 5.0032 5.00619 5.00314C5.02342 5.00214 5.03922 5.00164 5.05359 5.00164C5.82678 5.00125 6.37893 5.00077 6.71003 5.00021C6.75195 5.00021 6.75975 5.0198 6.78631 5.05722C7.29638 5.77533 7.80701 6.49299 8.31819 7.21021C8.3245 7.21914 8.33145 7.22472 8.33903 7.22695ZM5.76047 5.39085C5.7531 5.39069 5.74902 5.39362 5.74822 5.39964C5.74807 5.40067 5.74812 5.40173 5.74837 5.40273C5.74861 5.40374 5.74905 5.40468 5.74966 5.4055C6.46149 6.40318 7.17169 7.40138 7.88024 8.40012C7.92327 8.4608 7.98118 8.53781 8.03001 8.60804C8.12339 8.7423 8.22099 8.87346 8.31541 9.00654C8.6797 9.52003 9.04448 10.0332 9.40973 10.5459C9.43518 10.5817 9.44234 10.6001 9.48999 10.6002C9.75189 10.6005 10.0142 10.6003 10.2769 10.5997C10.2779 10.5997 10.2789 10.5994 10.2797 10.5988C10.2806 10.5983 10.2813 10.5975 10.2817 10.5966C10.2822 10.5956 10.2824 10.5946 10.2824 10.5935C10.2823 10.5925 10.282 10.5915 10.2814 10.5906C10.2688 10.5712 10.2505 10.5524 10.2385 10.5357C9.02356 8.82843 7.80499 7.12383 6.59279 5.41437C6.58277 5.40026 6.56882 5.39334 6.55095 5.39362C6.30305 5.39741 6.03956 5.39649 5.76047 5.39085Z" fill="white"/>
</svg>
