<svg width="14" height="14" viewBox="0 0 14 14" fill="none" xmlns="http://www.w3.org/2000/svg">
    <path fill-rule="evenodd" clip-rule="evenodd" d="M14 7C14 10.866 10.866 14 7 14C3.13401 14 0 10.866 0 7C0 3.13401 3.13401 0 7 0C10.866 0 14 3.13401 14 7ZM7.72123 4.52877C7.51621 4.32374 7.18379 4.32374 6.97877 4.52877C6.77374 4.73379 6.77374 5.06621 6.97877 5.27123L8.70754 7L6.97877 8.72877C6.77374 8.93379 6.77374 9.26621 6.97877 9.47123C7.18379 9.67626 7.51621 9.67626 7.72123 9.47123L9.82123 7.37123C10.0263 7.16621 10.0263 6.83379 9.82123 6.62877L7.72123 4.52877ZM4.17877 4.52877C4.38379 4.32374 4.71621 4.32374 4.92123 4.52877L7.02123 6.62877C7.22626 6.83379 7.22626 7.16621 7.02123 7.37123L4.92123 9.47123C4.71621 9.67626 4.38379 9.67626 4.17877 9.47123C3.97374 9.26621 3.97374 8.93379 4.17877 8.72877L5.90754 7L4.17877 5.27123C3.97374 5.06621 3.97374 4.73379 4.17877 4.52877Z" fill="#1C274C"/>
</svg>
