<svg width="25" height="26" viewBox="0 0 25 26" fill="none" xmlns="http://www.w3.org/2000/svg">
    <path d="M20.8825 17.6587C19.6286 16.124 18.7434 15.3428 18.7434 11.1118C18.7434 7.23729 16.7648 5.85692 15.1364 5.18651C14.9201 5.09764 14.7165 4.89354 14.6506 4.67137C14.3649 3.6992 13.5641 2.84276 12.4997 2.84276C11.4352 2.84276 10.634 3.69969 10.3513 4.67235C10.2853 4.89696 10.0817 5.09764 9.86542 5.18651C8.23505 5.8579 6.25848 7.23339 6.25848 11.1118C6.25604 15.3428 5.37079 16.124 4.11688 17.6587C3.59735 18.2944 4.05243 19.249 4.96112 19.249H20.0432C20.947 19.249 21.3991 18.2915 20.8825 17.6587Z" fill="#3B3B3B" stroke="#3B3B3B" stroke-width="1.00189" stroke-linecap="round" stroke-linejoin="round"/>
    <path d="M15.6254 19.249V20.0304C15.6254 20.8593 15.2961 21.6542 14.71 22.2404C14.1238 22.8265 13.3289 23.1558 12.5 23.1558C11.671 23.1558 10.8761 22.8265 10.2899 22.2404C9.7038 21.6542 9.37451 20.8593 9.37451 20.0304V19.249" fill="#3B3B3B"/>
    <path d="M15.6254 19.249V20.0304C15.6254 20.8593 15.2961 21.6542 14.71 22.2404C14.1238 22.8265 13.3289 23.1558 12.5 23.1558C11.671 23.1558 10.8761 22.8265 10.2899 22.2404C9.7038 21.6542 9.37451 20.8593 9.37451 20.0304V19.249" stroke="#3B3B3B" stroke-width="1.00189" stroke-linecap="round" stroke-linejoin="round"/>
</svg>
