<svg width="8" height="8" viewBox="0 0 8 8" fill="none" xmlns="http://www.w3.org/2000/svg">
    <circle cx="4" cy="4" r="4" fill="#262626"/>
    <path d="M4.60601 3.51514H3.39389C2.85834 3.51514 2.42419 3.94928 2.42419 4.48483C2.42419 5.02039 2.85834 5.45453 3.39389 5.45453H5.33329C5.86884 5.45453 6.30298 5.02039 6.30298 4.48483C6.30298 4.23891 6.21143 4.01436 6.06056 3.84343" stroke="white" stroke-width="0.4" stroke-linecap="round" stroke-linejoin="round"/>
    <path d="M1.69683 4.15651C1.54595 3.98558 1.45441 3.76103 1.45441 3.51511C1.45441 2.97956 1.88855 2.54541 2.4241 2.54541H4.3635C4.89905 2.54541 5.33319 2.97956 5.33319 3.51511C5.33319 4.05066 4.89905 4.4848 4.3635 4.4848H3.15138" stroke="white" stroke-width="0.4" stroke-linecap="round" stroke-linejoin="round"/>
</svg>
