<svg width="10" height="10" viewBox="0 0 10 10" fill="none" xmlns="http://www.w3.org/2000/svg">
    <path fill-rule="evenodd" clip-rule="evenodd" d="M10 5C10 7.76142 7.76142 10 5 10C2.23858 10 0 7.76142 0 5C0 2.23858 2.23858 0 5 0C7.76142 0 10 2.23858 10 5ZM5.51516 3.23484C5.36872 3.08839 5.13128 3.08839 4.98484 3.23484C4.83839 3.38128 4.83839 3.61872 4.98484 3.76517L6.21967 5L4.98484 6.23483C4.83839 6.38128 4.83839 6.61872 4.98484 6.76517C5.13128 6.91161 5.36872 6.91161 5.51516 6.76517L7.01516 5.26517C7.16161 5.11872 7.16161 4.88128 7.01516 4.73483L5.51516 3.23484ZM2.98483 3.23484C3.13128 3.08839 3.36872 3.08839 3.51517 3.23484L5.01517 4.73483C5.16161 4.88128 5.16161 5.11872 5.01517 5.26517L3.51517 6.76517C3.36872 6.91161 3.13128 6.91161 2.98483 6.76517C2.83839 6.61872 2.83839 6.38128 2.98483 6.23483L4.21967 5L2.98483 3.76517C2.83839 3.61872 2.83839 3.38128 2.98483 3.23484Z" fill="#3B3B3B"/>
</svg>
