<?xml version="1.0" encoding="UTF-8"?>
<svg width="24px" height="24px" viewBox="0 0 24 24" version="1.1" xmlns="http://www.w3.org/2000/svg" xmlns:xlink="http://www.w3.org/1999/xlink">
    <title>切片</title>
    <g id="页面-1" stroke="none" stroke-width="1" fill="none" fill-rule="evenodd">
        <g id="icon-notification" transform="translate(3.000000, 1.000000)">
            <path d="M18.7596007,16.2552127 C17.3746459,14.5714265 16.3969268,13.714338 16.3969268,9.0723237 C16.3969268,4.82143014 14.211528,3.30696613 12.4129314,2.57143014 C12.1740242,2.47392699 11.9491444,2.25 11.8763567,2.00624762 C11.560796,0.939637601 10.6762982,0 9.50064951,0 C8.32489039,0 7.43995079,0.940175202 7.12770363,2.00732282 C7.05480546,2.25375223 6.82992566,2.47392699 6.59104056,2.57143014 C4.79026801,3.30804133 2.60711141,4.81715128 2.60711141,9.0723237 C2.60441639,13.714338 1.62664208,14.5714265 0.241676264,16.2552127 C-0.332153828,16.9526668 0.170490096,18 1.1741543,18 L17.8325789,18 C18.8308421,18 19.3301945,16.9494851 18.7596007,16.2552127 Z" id="路径" stroke="#3B3B3B" stroke-width="1.00189" fill="#3B3B3B" fill-rule="nonzero" stroke-linecap="round" stroke-linejoin="round"></path>
            <path d="M13,18 L13,18.800041 C13,19.6487151 12.683917,20.4625781 12.1213411,21.0627624 C11.5586692,21.6628443 10.7956739,22 10.0000432,22 C9.20431651,22 8.44132116,21.6628443 7.87864928,21.0627624 C7.31607339,20.4625781 7,19.6487151 7,18.800041 L7,18" id="路径" fill="#3B3B3B" fill-rule="nonzero"></path>
            <path d="M13,18 L13,18.800041 C13,19.6487151 12.683917,20.4625781 12.1213411,21.0627624 C11.5586692,21.6628443 10.7956739,22 10.0000432,22 C9.20431651,22 8.44132116,21.6628443 7.87864928,21.0627624 C7.31607339,20.4625781 7,19.6487151 7,18.800041 L7,18" id="路径" stroke="#3B3B3B" stroke-width="1.00189" stroke-linecap="round" stroke-linejoin="round"></path>
        </g>
    </g>
</svg>