<svg t="1744103401694" class="icon" fill="#8D8D8D" viewBox="0 0 1024 1024" version="1.1" xmlns="http://www.w3.org/2000/svg" p-id="4162" width="64" height="64"><path d="M512.213333 938.794667c-235.648 0-426.666667-191.018667-426.666666-426.666667s191.018667-426.666667 426.666666-426.666667 426.666667 191.018667 426.666667 426.666667-191.018667 426.666667-426.666667 426.666667z m0-85.333334a341.333333 341.333333 0 1 0 0-682.666666 341.333333 341.333333 0 0 0 0 682.666666z m-213.333333-469.333333l128-149.333333 128 149.333333h-85.333333v170.666667h-85.333334v-170.666667h-85.333333z m426.666667 256l-128 149.333333-128-149.333333h85.333333v-170.666667h85.333333v170.666667h85.333334z" p-id="4163"></path></svg>