<?xml version="1.0" encoding="UTF-8"?>
<svg width="24px" height="24px" viewBox="0 0 24 24" version="1.1" xmlns="http://www.w3.org/2000/svg" xmlns:xlink="http://www.w3.org/1999/xlink">
    <title>切片</title>
    <g id="页面-1" stroke="none" stroke-width="1" fill="none" fill-rule="evenodd">
        <g id="icon-wallet" transform="translate(0.000000, 1.000000)" fill="#3B3B3B">
            <path d="M22.0915826,6.29073537 C22.0260522,6.28655032 21.9562435,6.28487177 21.8821565,6.28571105 L18.9616696,6.28571105 C16.5698087,6.28571105 14.5237565,8.33236827 14.5237565,11.0000227 C14.5237565,13.6676771 16.5709565,15.7142663 18.9616696,15.7142663 L21.8821565,15.7142663 C21.9562435,15.7150602 22.0263652,15.7134724 22.0927304,15.709276 C22.584313,15.6770659 23.0483478,15.4515951 23.3984348,15.0750545 C23.7484174,14.6986273 23.9605565,14.1965352 23.9953043,13.6625734 C24,13.5871518 24,13.5054924 24,13.4300709 L24,8.56997449 C24,8.49455295 24,8.41278011 23.9953043,8.33735857 C23.9605565,7.8033967 23.7484174,7.30139543 23.3984348,6.92485478 C23.0483478,6.54832547 22.5831652,6.32295681 22.0915826,6.29073537 Z M18.7061217,12.2571241 C19.3214609,12.2571241 19.8199304,11.6939009 19.8199304,11.0000227 C19.8199304,10.306031 19.3214609,9.74280789 18.7061217,9.74280789 C18.0896348,9.74280789 17.5910609,10.306031 17.5910609,11.0000227 C17.5910609,11.6939009 18.0896348,12.2571241 18.7061217,12.2571241 Z" id="形状"></path>
            <path d="M21.8810087,17.5999183 C21.9210783,17.5982171 21.9608348,17.6067233 21.9972522,17.6248698 C22.0335652,17.6430164 22.0656,17.6701228 22.0904348,17.7041475 C22.1153739,17.7382857 22.132487,17.7782081 22.1405217,17.8208524 C22.1485565,17.8633834 22.1473043,17.9075021 22.1366609,17.949466 C21.9053217,18.844544 21.5363478,19.6088534 20.9453217,20.2499933 C20.0790261,21.1928193 18.9813913,21.6089421 17.6258087,21.8076467 C16.3072696,22 14.6243478,22 12.4984696,22 L10.055687,22 C7.92982957,22 6.24578087,22 4.92838957,21.8076467 C3.57281739,21.6089421 2.47518261,21.1915718 1.60886609,20.2512409 C0.743707826,19.3096624 0.359707826,18.116641 0.176963478,16.6432556 C0,15.2101328 0,13.3809618 0,11.0703405 L0,10.9295914 C0,8.61897014 0,6.7885516 0.176963478,5.35541746 C0.359707826,3.88204338 0.743707826,2.68902196 1.60886609,1.74742082 C2.47518261,0.807078593 3.57281739,0.389708233 4.92838957,0.191083039 C6.24693913,0 7.92982957,0 10.055687,0 L12.4984696,0 C14.6243478,0 16.3084174,0 17.6258087,0.192341955 C18.9813913,0.390967149 20.0790261,0.808337509 20.9453217,1.74867974 C21.5363478,2.39233742 21.9053217,3.155422 22.1366609,4.05049996 C22.1473043,4.09245248 22.1485565,4.13652589 22.1405217,4.17913622 C22.132487,4.22174656 22.1153739,4.26170297 22.0904348,4.29575041 C22.0656,4.32979785 22.0335652,4.35698363 21.9972522,4.37509615 C21.9608348,4.39320866 21.9210783,4.40173753 21.8810087,4.39999093 L18.9617739,4.39999093 C15.6803478,4.39999093 12.7888696,7.21598194 12.7888696,11.0000227 C12.7888696,14.783916 15.6803478,17.5999183 18.9617739,17.5999183 L21.8810087,17.5999183 Z M5.78313391,15.7142663 C5.55306783,15.7142663 5.33242435,15.614914 5.16973565,15.4380987 C5.00705739,15.2612833 4.91565913,15.0214088 4.91565913,14.7714402 L4.91565913,7.22854842 C4.91565913,6.97848914 5.00705739,6.7386713 5.16973565,6.56185598 C5.33242435,6.38504065 5.55306783,6.2856997 5.78313391,6.2856997 C6.0132,6.2856997 6.23384348,6.38504065 6.39652174,6.56185598 C6.55921043,6.7386713 6.65059826,6.97848914 6.65059826,7.22854842 L6.65059826,14.7714402 C6.65059826,15.0214088 6.55921043,15.2612833 6.39652174,15.4380987 C6.23384348,15.614914 6.0132,15.7142663 5.78313391,15.7142663 Z" id="形状"></path>
        </g>
    </g>
</svg>