<svg xmlns="http://www.w3.org/2000/svg" width="12" height="12" viewBox="0 0 12 12" fill="none">
    <path d="M5.99976 1.87445C5.18391 1.87445 4.38638 2.11638 3.70803 2.56964C3.02968 3.0229 2.50097 3.66714 2.18875 4.42088C1.87654 5.17463 1.79485 6.00403 1.95402 6.8042C2.11318 7.60437 2.50605 8.33938 3.08294 8.91627C3.65983 9.49316 4.39484 9.88603 5.19501 10.0452C5.99518 10.2044 6.82458 10.1227 7.57833 9.81045C8.33207 9.49824 8.97631 8.96953 9.42957 8.29118C9.88283 7.61283 10.1248 6.8153 10.1248 5.99945C10.1248 4.90543 9.69016 3.85622 8.91658 3.08264C8.14299 2.30905 7.09378 1.87445 5.99976 1.87445Z" stroke="#A6A0BA" stroke-width="0.5" stroke-miterlimit="10"/>
    <path d="M4.68726 4.7407C4.68726 4.7407 4.70695 4.33049 5.14599 3.97724C5.40642 3.76744 5.71865 3.70673 5.99994 3.70251C6.25615 3.69923 6.48493 3.74166 6.62183 3.80682C6.85624 3.9184 7.31263 4.19078 7.31263 4.77001C7.31263 5.37947 6.91414 5.6563 6.46009 5.9608C6.00604 6.2653 5.88274 6.59581 5.88274 6.93735" stroke="#A6A0BA" stroke-width="0.5" stroke-miterlimit="10" stroke-linecap="round"/>
    <path d="M5.86188 8.6294C6.12201 8.6294 6.33289 8.41852 6.33289 8.15839C6.33289 7.89826 6.12201 7.68738 5.86188 7.68738C5.60175 7.68738 5.39087 7.89826 5.39087 8.15839C5.39087 8.41852 5.60175 8.6294 5.86188 8.6294Z" fill="#A6A0BA"/>
</svg>
