<svg width="32" height="32" viewBox="0 0 32 32" fill="none" xmlns="http://www.w3.org/2000/svg">
    <path d="M11.5069 16.0142C12.3393 16.0142 13.0141 15.3394 13.0141 14.507C13.0141 13.6746 12.3393 12.9998 11.5069 12.9998C10.6744 12.9998 9.99963 13.6746 9.99963 14.507C9.99963 15.3394 10.6744 16.0142 11.5069 16.0142Z" fill="#A6A0BA"/>
    <path d="M16.0038 23.9993C13.1647 23.9993 10.7768 22.1534 10.0211 19.6343C9.99995 19.5593 9.99661 19.4805 10.0114 19.404C10.0261 19.3275 10.0585 19.2555 10.106 19.1938C10.1534 19.132 10.2147 19.0822 10.2848 19.0483C10.3549 19.0145 10.432 18.9974 10.5099 18.9986H21.4921C21.57 18.9974 21.6471 19.0145 21.7172 19.0483C21.7873 19.0822 21.8486 19.132 21.896 19.1938C21.9435 19.2555 21.9759 19.3275 21.9906 19.404C22.0054 19.4805 22.0021 19.5593 21.9809 19.6343C21.2314 22.1534 18.843 23.9993 16.0038 23.9993Z" fill="#A6A0BA"/>
    <path d="M20.5075 16.0142C21.3399 16.0142 22.0147 15.3394 22.0147 14.507C22.0147 13.6746 21.3399 12.9998 20.5075 12.9998C19.6751 12.9998 19.0002 13.6746 19.0002 14.507C19.0002 15.3394 19.6751 16.0142 20.5075 16.0142Z" fill="#A6A0BA"/>
    <path d="M15.9996 28.9998C23.1793 28.9998 28.9996 23.1795 28.9996 15.9998C28.9996 8.82006 23.1793 2.99976 15.9996 2.99976C8.81993 2.99976 2.99963 8.82006 2.99963 15.9998C2.99963 23.1795 8.81993 28.9998 15.9996 28.9998Z" stroke="#A6A0BA" stroke-width="1.00189" stroke-miterlimit="10"/>
</svg>
