<svg width="24" height="24" viewBox="0 0 24 24" fill="none" xmlns="http://www.w3.org/2000/svg">
    <circle cx="12" cy="12" r="12" fill="#3B3B3B"/>
    <path d="M19.0001 15.5703H17.9067V11.4597C17.9067 11.0168 17.8098 10.6615 17.6161 10.394C17.4315 10.1264 17.1916 9.93723 16.8964 9.8265C16.6103 9.70655 16.3105 9.64658 15.9967 9.64658C15.6923 9.64658 15.3878 9.71117 15.0833 9.84034C14.788 9.96952 14.5389 10.1679 14.3359 10.4355C14.1329 10.7031 14.0314 11.0445 14.0314 11.4597V15.5703H12.938V8.65006H14.0314V9.39745C14.2436 9.11141 14.5343 8.9038 14.9033 8.77462C15.2724 8.63622 15.6553 8.56702 16.0521 8.56702C16.5873 8.56702 17.0763 8.67774 17.5192 8.89919C17.9713 9.12064 18.3312 9.4482 18.5988 9.88187C18.8663 10.3063 19.0001 10.8322 19.0001 11.4597V15.5703Z" fill="white"/>
    <path d="M11.5604 12.4424H6.17644C6.1949 13.0421 6.35637 13.5173 6.66086 13.8679C6.96535 14.2186 7.35289 14.4492 7.82346 14.56C8.29404 14.6707 8.79691 14.6615 9.33208 14.5323C9.86725 14.4031 10.3747 14.1586 10.8545 13.7987L11.4358 14.6568C10.9837 15.0075 10.5131 15.2658 10.0241 15.4319C9.53507 15.598 9.04604 15.6857 8.55701 15.6949C7.40364 15.7226 6.52246 15.4042 5.91347 14.7399C5.30449 14.0663 5 13.1298 5 11.9303C5 10.9061 5.28604 10.0895 5.85811 9.4805C6.43941 8.87151 7.27907 8.57164 8.37708 8.58086C9.09679 8.58086 9.71039 8.7285 10.2179 9.02376C10.7254 9.31902 11.0991 9.75731 11.339 10.3386C11.4589 10.6246 11.5327 10.943 11.5604 11.2936C11.5973 11.6442 11.5973 12.0272 11.5604 12.4424ZM8.43245 9.60506C7.80501 9.60506 7.26984 9.77115 6.82695 10.1033C6.39328 10.4263 6.17644 10.9107 6.17644 11.5566H10.5777C10.5777 10.9476 10.384 10.4724 9.99642 10.131C9.61812 9.78038 9.09679 9.60506 8.43245 9.60506Z" fill="white"/>
</svg>
