<?xml version="1.0" encoding="UTF-8"?>
<svg width="78px" height="100px" viewBox="0 0 78 100" version="1.1" xmlns="http://www.w3.org/2000/svg" xmlns:xlink="http://www.w3.org/1999/xlink">
    <title>icon-wallet-unisat</title>
    <g id="页面-2" stroke="none" stroke-width="1" fill="none" fill-rule="evenodd">
        <g id="icon-wallet-unisat" fill="#FFFFFF" fill-rule="nonzero">
            <path d="M54.780767,8.91613372 L75.120767,29.0561337 C76.850767,30.7661337 77.700767,32.4961337 77.670767,34.2461337 C77.640767,35.9861337 76.900767,37.5861337 75.440767,39.0261337 C73.920767,40.5361337 72.280767,41.3061337 70.520767,41.3361337 C68.760767,41.3661337 67.020767,40.5161337 65.280767,38.8061337 L44.480767,18.2061337 C42.120767,15.8661337 39.840767,14.2061337 37.640767,13.2361337 C35.450767,12.2661337 33.140767,12.1161337 30.720767,12.7761337 C28.300767,13.4361337 25.700767,15.1461337 22.920767,17.9061337 C19.080767,21.7061337 17.250767,25.2761337 17.440767,28.6161337 C17.630767,31.9561337 19.530767,35.4061337 23.150767,38.9961337 L44.120767,59.7661337 C45.870767,61.4961337 46.730767,63.2261337 46.700767,64.9461337 C46.670767,66.6661337 45.920767,68.2661337 44.440767,69.7261337 C42.960767,71.1861337 41.340767,71.9561337 39.560767,72.0161337 C37.790767,72.0761337 36.030767,71.2361337 34.280767,69.5061337 L13.960767,49.3661337 C10.650767,46.0861337 8.26076705,42.9861337 6.79076705,40.0661337 C5.32076705,37.1461337 4.77076705,33.8361337 5.15076705,30.1461337 C5.49076705,26.9861337 6.51076705,23.9261337 8.19076705,20.9561337 C9.88076705,17.9861337 12.290767,14.9561337 15.420767,11.8461337 C19.150767,8.14613372 22.710767,5.31613372 26.110767,3.34613372 C29.510767,1.37613372 32.790767,0.276133721 35.960767,0.0461337209 C39.130767,-0.183866279 42.260767,0.446133721 45.360767,1.93613372 C48.450767,3.42613372 51.590767,5.74613372 54.790767,8.91613372 L54.780767,8.91613372 Z" id="路径"></path>
            <path d="M22.890767,90.1961337 L2.55076705,70.0561337 C0.820767045,68.3461337 -0.0292329545,66.6161337 0.000767045455,64.8661337 C0.0307670455,63.1161337 0.770767045,61.5261337 2.23076705,60.0861337 C3.75076705,58.5761337 5.39076705,57.8061337 7.15076705,57.7761337 C8.91076705,57.7461337 10.650767,58.5861337 12.390767,60.3061337 L33.190767,80.9061337 C35.560767,83.2461337 37.830767,84.9061337 40.030767,85.8761337 C42.230767,86.8461337 44.530767,86.9961337 46.950767,86.3361337 C49.370767,85.6761337 51.970767,83.9661337 54.750767,81.2061337 C58.590767,77.4061337 60.420767,73.8361337 60.230767,70.4961337 C60.040767,67.1561337 58.140767,63.6961337 54.520767,60.1161337 L43.350767,49.1461337 C41.600767,47.4161337 40.740767,45.6861337 40.770767,43.9661337 C40.800767,42.2461337 41.550767,40.6461337 43.030767,39.1861337 C44.510767,37.7261337 46.130767,36.9561337 47.910767,36.8961337 C49.680767,36.8361337 51.440767,37.6761337 53.190767,39.4061337 L63.720767,49.7461337 C67.030767,53.0261337 69.420767,56.1261337 70.890767,59.0461337 C72.360767,61.9661337 72.910767,65.2761337 72.530767,68.9661337 C72.190767,72.1261337 71.170767,75.1861337 69.490767,78.1561337 C67.800767,81.1261337 65.390767,84.1561337 62.260767,87.2661337 C58.530767,90.9661337 54.970767,93.7961337 51.570767,95.7661337 C48.170767,97.7361337 44.890767,98.8361337 41.720767,99.0661337 C38.550767,99.2961337 35.420767,98.6661337 32.320767,97.1761337 C29.230767,95.6861337 26.080767,93.3661337 22.890767,90.1961337 Z" id="路径"></path>
            <circle id="椭圆形" cx="35.570767" cy="30.7561337" r="7.47"></circle>
        </g>
    </g>
</svg>