<svg width="34" height="34" viewBox="0 0 34 34" fill="none" xmlns="http://www.w3.org/2000/svg">
    <circle cx="17" cy="17" r="17" fill="url(#paint0_linear_427_6951)"/>
    <path fill-rule="evenodd" clip-rule="evenodd" d="M8.75 14C9.16421 14 9.5 14.3358 9.5 14.75V15.75C9.5 19.7541 12.7459 23 16.75 23C20.7541 23 24 19.7541 24 15.75V14.75C24 14.3358 24.3358 14 24.75 14C25.1642 14 25.5 14.3358 25.5 14.75V15.75C25.5 20.3298 21.9814 24.0879 17.5 24.4683V26.75C17.5 27.1642 17.1642 27.5 16.75 27.5C16.3358 27.5 16 27.1642 16 26.75V24.4683C11.5186 24.0879 8 20.3298 8 15.75V14.75C8 14.3358 8.33579 14 8.75 14Z" fill="white"/>
    <path fill-rule="evenodd" clip-rule="evenodd" d="M16.75 7C13.5744 7 11 9.57436 11 12.75V15.75C11 18.9256 13.5744 21.5 16.75 21.5C19.9256 21.5 22.5 18.9256 22.5 15.75V12.75C22.5 9.57436 19.9256 7 16.75 7ZM18.75 16.5C19.1642 16.5 19.5 16.1642 19.5 15.75C19.5 15.3358 19.1642 15 18.75 15H14.75C14.3358 15 14 15.3358 14 15.75C14 16.1642 14.3358 16.5 14.75 16.5H18.75ZM18.5 12.75C18.5 13.1642 18.1642 13.5 17.75 13.5H15.75C15.3358 13.5 15 13.1642 15 12.75C15 12.3358 15.3358 12 15.75 12H17.75C18.1642 12 18.5 12.3358 18.5 12.75Z" fill="white"/>
    <defs>
        <linearGradient id="paint0_linear_427_6951" x1="34" y1="-8.33654" x2="1.6136e-06" y2="43.1538" gradientUnits="userSpaceOnUse">
            <stop stop-color="#FEB14C"/>
            <stop offset="1" stop-color="#FE2C1A"/>
        </linearGradient>
    </defs>
</svg>
