<svg width="25" height="26" viewBox="0 0 25 26" fill="none" xmlns="http://www.w3.org/2000/svg">
    <g clip-path="url(#clip0_266_2905)">
        <path fill-rule="evenodd" clip-rule="evenodd" d="M0 -11.5C12.3334 -11.5 24.6666 -11.5 37 -11.5C37 0.833358 37 13.1666 37 25.5C24.6666 25.5 12.3334 25.5 0 25.5C0 13.1666 0 0.833358 0 -11.5Z" fill="#F5F5F5"/>
        <path fill-rule="evenodd" clip-rule="evenodd" d="M12.3283 7.00573C12.4982 6.98634 12.6585 7.0162 12.809 7.09531C13.8332 8.16434 14.8574 9.2334 15.8816 10.3024C16.0804 10.6353 16.0289 10.916 15.7271 11.1445C15.2146 11.1965 14.6996 11.2144 14.1822 11.1983C14.1879 12.572 14.1822 13.9456 14.165 15.3191C14.125 15.6596 13.9477 15.8806 13.6329 15.9821C12.8776 16.006 12.1224 16.006 11.3671 15.9821C11.0364 15.8759 10.8591 15.643 10.835 15.2833C10.8178 13.9217 10.8121 12.56 10.8178 11.1983C10.3004 11.2144 9.78541 11.1965 9.27292 11.1445C8.97112 10.916 8.91962 10.6353 9.11843 10.3024C10.1743 9.18234 11.2443 8.08342 12.3283 7.00573Z" fill="#636363"/>
        <path fill-rule="evenodd" clip-rule="evenodd" d="M6.48663 13.003C6.84703 12.9767 7.09614 13.1243 7.23396 13.4459C7.24553 14.4568 7.25714 15.4677 7.26872 16.4785C7.40306 17.1213 7.79122 17.5359 8.43315 17.7222C11.1328 17.7449 13.8324 17.7449 16.5321 17.7222C17.1938 17.5506 17.5935 17.136 17.7313 16.4785C17.7429 15.4563 17.7545 14.4341 17.766 13.4119C17.9998 13.0062 18.33 12.9096 18.7567 13.1222C18.8586 13.1994 18.9339 13.296 18.9826 13.4119C19.0058 14.5136 19.0058 15.6153 18.9826 16.717C18.7083 17.996 17.9146 18.7513 16.6016 18.983C13.8672 19.0057 11.1328 19.0057 8.39839 18.983C7.08541 18.7513 6.29174 17.996 6.01738 16.717C5.99421 15.6153 5.99421 14.5136 6.01738 13.4119C6.11586 13.2072 6.27228 13.0709 6.48663 13.003Z" fill="#636363"/>
    </g>
    <defs>
        <clipPath id="clip0_266_2905">
            <rect y="0.5" width="25" height="25" rx="10" fill="white"/>
        </clipPath>
    </defs>
</svg>
