<svg width="25" height="26" viewBox="0 0 25 26" fill="none" xmlns="http://www.w3.org/2000/svg">
<path fill-rule="evenodd" clip-rule="evenodd" d="M22.1711 8.99827C22.1083 8.99458 22.0414 8.9931 21.9704 8.99384H19.1716C16.8794 8.99384 14.9186 10.7984 14.9186 13.1505C14.9186 15.5026 16.8805 17.3071 19.1716 17.3071H21.9704C22.0414 17.3078 22.1086 17.3064 22.1722 17.3027C22.6433 17.2743 23.088 17.0755 23.4235 16.7435C23.7589 16.4116 23.9622 15.9689 23.9955 15.4981C24 15.4316 24 15.3596 24 15.2931V11.0079C24 10.9414 24 10.8693 23.9955 10.8028C23.9622 10.332 23.7589 9.88938 23.4235 9.55738C23.088 9.22539 22.6422 9.02668 22.1711 8.99827ZM18.9267 14.2589C19.5164 14.2589 19.9941 13.7623 19.9941 13.1505C19.9941 12.5386 19.5164 12.042 18.9267 12.042C18.3359 12.042 17.8581 12.5386 17.8581 13.1505C17.8581 13.7623 18.3359 14.2589 18.9267 14.2589Z" fill="#3B3B3B"/>
<path fill-rule="evenodd" clip-rule="evenodd" d="M21.9693 18.9697C22.0077 18.9682 22.0458 18.9757 22.0807 18.9917C22.1155 19.0077 22.1462 19.0316 22.17 19.0616C22.1939 19.0917 22.2103 19.1269 22.218 19.1645C22.2257 19.202 22.2245 19.2409 22.2143 19.2779C21.9926 20.0671 21.639 20.741 21.0726 21.3063C20.2424 22.1376 19.1905 22.5045 17.8914 22.6797C16.6278 22.8493 15.015 22.8493 12.9777 22.8493H10.6367C8.59942 22.8493 6.98554 22.8493 5.72304 22.6797C4.42395 22.5045 3.37205 22.1365 2.54183 21.3074C1.71272 20.4772 1.34472 19.4253 1.16959 18.1262C1 16.8626 1 15.2498 1 13.2125V13.0884C1 11.0511 1 9.4372 1.16959 8.17359C1.34472 6.8745 1.71272 5.8226 2.54183 4.99238C3.37205 4.16327 4.42395 3.79527 5.72304 3.62014C6.98665 3.45166 8.59942 3.45166 10.6367 3.45166H12.9777C15.015 3.45166 16.6289 3.45166 17.8914 3.62125C19.1905 3.79638 20.2424 4.16438 21.0726 4.99349C21.639 5.56101 21.9926 6.23383 22.2143 7.02303C22.2245 7.06002 22.2257 7.09888 22.218 7.13645C22.2103 7.17402 22.1939 7.20925 22.17 7.23927C22.1462 7.26929 22.1155 7.29326 22.0807 7.30923C22.0458 7.3252 22.0077 7.33272 21.9693 7.33118H19.1717C16.027 7.33118 13.256 9.81407 13.256 13.1505C13.256 16.4868 16.027 18.9697 19.1717 18.9697H21.9693ZM6.54217 17.3071C6.32169 17.3071 6.11024 17.2195 5.95433 17.0636C5.79843 16.9077 5.71084 16.6962 5.71084 16.4758V9.82515C5.71084 9.60467 5.79843 9.39322 5.95433 9.23732C6.11024 9.08142 6.32169 8.99383 6.54217 8.99383C6.76265 8.99383 6.9741 9.08142 7.13 9.23732C7.28591 9.39322 7.37349 9.60467 7.37349 9.82515V16.4758C7.37349 16.6962 7.28591 16.9077 7.13 17.0636C6.9741 17.2195 6.76265 17.3071 6.54217 17.3071Z" fill="#3B3B3B"/>
</svg>
