<?xml version="1.0" encoding="UTF-8"?>
<svg width="160px" height="161px" viewBox="0 0 160 161" version="1.1" xmlns="http://www.w3.org/2000/svg" xmlns:xlink="http://www.w3.org/1999/xlink">
    <title>编组</title>
    <g id="页面-1" stroke="none" stroke-width="1" fill="none" fill-rule="evenodd">
        <g id="编组" transform="translate(-0.000000, 0.000000)" fill="#FE913F" fill-rule="nonzero">
            <path d="M31.7406339,0.000819522785 C32.8092358,-0.0293453263 33.7170473,0.776707518 33.8135425,1.84137113 C33.9100377,2.90603473 33.1619411,3.86216987 32.1053291,4.0246226 L31.7406339,4.05501386 L10.1263685,4.05501386 C6.99635068,4.05620746 4.37898885,6.43419249 4.07850735,9.54975401 L4.04811609,10.1332662 L4.04811609,31.7475317 C4.03916845,32.7876711 3.24328858,33.6516931 2.20738253,33.7458664 C1.17147649,33.8400396 0.232836586,33.1337012 0.0364695143,32.1122269 L3.20425535e-14,31.7475317 L3.20425535e-14,10.1332662 C3.20425535e-14,4.76616939 4.17575939,0.371592918 9.46383896,0.0251325323 L10.1324467,0.00689777517 L31.7406339,0.00689777517 L31.7406339,0.000819522785 Z M31.7406339,160.120345 C32.8092358,160.15051 33.7170473,159.344457 33.8135425,158.279793 C33.9100377,157.21513 33.1619411,156.258995 32.1053291,156.096542 L31.7406339,156.066151 L10.1263685,156.066151 C6.99635068,156.064957 4.37898885,153.686972 4.07850735,150.571411 L4.04811609,149.987898 L4.04811609,128.373633 C4.03916845,127.333494 3.24328858,126.469472 2.20738253,126.375298 C1.17147649,126.281125 0.232836586,126.987463 0.0364695143,128.008938 L3.20425535e-14,128.373633 L3.20425535e-14,149.987898 C3.20425535e-14,155.354995 4.17575939,159.749572 9.46383896,160.096032 L10.1324467,160.114267 L31.7406339,160.114267 L31.7406339,160.120345 Z M128.259366,0.000819522785 C127.190764,-0.0293453263 126.282953,0.776707518 126.186458,1.84137113 C126.089962,2.90603473 126.838059,3.86216987 127.894671,4.0246226 L128.259366,4.05501386 L149.873632,4.05501386 C153.003649,4.05620746 155.621011,6.43419249 155.921493,9.54975401 L155.951884,10.1332662 L155.951884,31.7475317 C155.960832,32.7876711 156.756711,33.6516931 157.792617,33.7458664 C158.828524,33.8400396 159.767163,33.1337012 159.96353,32.1122269 L160,31.7475317 L160,10.1332662 C160,4.76616939 155.824241,0.371592918 150.536161,0.0251325323 L149.867553,0.00689777517 L128.259366,0.00689777517 L128.259366,0.000819522785 Z M128.259366,160.120345 C127.190764,160.15051 126.282953,159.344457 126.186458,158.279793 C126.089962,157.21513 126.838059,156.258995 127.894671,156.096542 L128.259366,156.066151 L149.873632,156.066151 C153.003649,156.064957 155.621011,153.686972 155.921493,150.571411 L155.951884,149.987898 L155.951884,128.373633 C155.960832,127.333494 156.756711,126.469472 157.792617,126.375298 C158.828524,126.281125 159.767163,126.987463 159.96353,128.008938 L160,128.373633 L160,149.987898 C160,155.354995 155.824241,159.749572 150.536161,160.096032 L149.867553,160.114267 L128.259366,160.114267 L128.259366,160.120345 Z" id="形状"></path>
        </g>
    </g>
</svg>