<svg width="11" height="12" viewBox="0 0 11 12" fill="none" xmlns="http://www.w3.org/2000/svg">
    <path d="M5.5 0.5C2.4673 0.5 0 2.9673 0 6C0 9.0327 2.4673 11.5 5.5 11.5C8.5327 11.5 11 9.0327 11 6C11 2.9673 8.5327 0.5 5.5 0.5ZM5.5 2.755C5.64141 2.755 5.77965 2.79693 5.89723 2.8755C6.01481 2.95406 6.10646 3.06573 6.16057 3.19638C6.21469 3.32703 6.22885 3.47079 6.20126 3.60949C6.17367 3.74819 6.10558 3.87559 6.00558 3.97558C5.90559 4.07558 5.77819 4.14367 5.63949 4.17126C5.50079 4.19885 5.35703 4.18469 5.22638 4.13057C5.09573 4.07646 4.98406 3.98481 4.9055 3.86723C4.82693 3.74965 4.785 3.61141 4.785 3.47C4.785 3.28037 4.86033 3.09851 4.99442 2.96442C5.12851 2.83033 5.31037 2.755 5.5 2.755ZM6.82 8.97H4.4C4.2833 8.97 4.17139 8.92364 4.08887 8.84113C4.00636 8.75861 3.96 8.6467 3.96 8.53C3.96 8.4133 4.00636 8.30139 4.08887 8.21887C4.17139 8.13636 4.2833 8.09 4.4 8.09H5.17V5.67H4.73C4.6133 5.67 4.50139 5.62364 4.41887 5.54113C4.33636 5.45861 4.29 5.3467 4.29 5.23C4.29 5.1133 4.33636 5.00139 4.41887 4.91887C4.50139 4.83636 4.6133 4.79 4.73 4.79H5.61C5.7267 4.79 5.83861 4.83636 5.92113 4.91887C6.00364 5.00139 6.05 5.1133 6.05 5.23V8.09H6.82C6.9367 8.09 7.04861 8.13636 7.13113 8.21887C7.21364 8.30139 7.26 8.4133 7.26 8.53C7.26 8.6467 7.21364 8.75861 7.13113 8.84113C7.04861 8.92364 6.9367 8.97 6.82 8.97Z" fill="#A6A0BA"/>
</svg>
