<?xml version="1.0" encoding="UTF-8"?>
<svg width="24px" height="24px" viewBox="0 0 24 24" version="1.1" xmlns="http://www.w3.org/2000/svg" xmlns:xlink="http://www.w3.org/1999/xlink">
    <title>icon-menu</title>
    <g id="页面-1" stroke="none" stroke-width="1" fill="none" fill-rule="evenodd">
        <g id="icon-menu" transform="translate(0.000000, 0.000000)" fill="#3B3B3B" fill-rule="nonzero">
            <path d="M9.04470031,0 L2.78987784,0 C1.28740615,0 0.164286168,1.1111719 0.164286168,2.40753912 L0.164286168,8.58171201 C0.164286168,9.94080668 1.29039317,11.0519786 2.66740996,11.0519786 L9.04768733,11.0519786 C10.4247041,11.0519786 11.5508111,9.94080668 11.5508111,8.58171201 L11.5508111,2.40753912 C11.4223692,1.1111719 10.2962622,0 9.04470031,0 Z M21.4946048,0 L15.2397824,0 C13.8627656,0 12.7366586,1.1111719 12.7366586,2.40753912 L12.7366586,8.58171201 C12.7366586,9.94080668 13.8627656,11.0519786 15.2397824,11.0519786 L21.4946048,11.0519786 C22.8716216,11.0519786 23.9977286,9.94080668 23.9977286,8.58171201 L23.9977286,2.40753912 C24.057469,1.1111719 22.931362,0 21.4946048,0 L21.4946048,0 Z M8.88041414,12.7814639 L2.62559167,12.7814639 C1.12311999,12.7814639 -8.48962497e-16,13.8926358 -8.48962497e-16,15.189003 L-8.48962497e-16,21.3631759 C-8.48962497e-16,22.7222706 1.12610701,23.8334425 2.5031238,23.8334425 L8.88340116,23.8334425 C10.2604179,23.8334425 11.386525,22.7222706 11.386525,21.3631759 L11.386525,15.189003 C11.258083,13.8926358 10.131976,12.7814639 8.88041414,12.7814639 Z M21.4826567,12.7814639 L15.2278343,12.7814639 C13.8508175,12.7814639 12.7247105,13.8926358 12.7247105,15.189003 L12.7247105,21.3631759 C12.7247105,22.7222706 13.8508175,23.8334425 15.2278343,23.8334425 L21.4826567,23.8334425 C22.8596735,23.8334425 23.9857805,22.7222706 23.9857805,21.3631759 L23.9857805,15.189003 C24.045521,13.8926358 22.919414,12.7814639 21.4826567,12.7814639 Z" id="形状"></path>
        </g>
    </g>
</svg>