<svg width="24" height="24" viewBox="0 0 24 24" fill="none" xmlns="http://www.w3.org/2000/svg">
    <circle cx="12" cy="12" r="12" fill="#3B3B3B"/>
    <path d="M12.0001 18.74C11.6921 18.74 11.5381 18.6 11.5381 18.32V13.994H9.08807C8.40674 13.994 7.8654 13.9193 7.46407 13.77C7.07207 13.6207 6.79207 13.364 6.62407 13C6.45607 12.6267 6.37207 12.1227 6.37207 11.488C6.37207 10.816 6.46074 10.298 6.63807 9.934C6.8154 9.57 7.10474 9.318 7.50607 9.178C7.9074 9.038 8.43474 8.968 9.08807 8.968H11.5381V6.42C11.5381 6.14 11.6921 6 12.0001 6C12.1307 6 12.2381 6.03733 12.3221 6.112C12.4061 6.18667 12.4481 6.28933 12.4481 6.42V8.968H14.9261C15.5887 8.968 16.1161 9.038 16.5081 9.178C16.9094 9.318 17.1987 9.57 17.3761 9.934C17.5534 10.298 17.6421 10.816 17.6421 11.488C17.6421 12.1227 17.5441 12.6267 17.3481 13C17.1614 13.364 16.8674 13.6207 16.4661 13.77C16.0741 13.9193 15.5607 13.994 14.9261 13.994H12.4481V18.32C12.4481 18.4507 12.4061 18.5533 12.3221 18.628C12.2381 18.7027 12.1307 18.74 12.0001 18.74ZM12.4481 13.126H14.9261C15.5607 13.126 16.0181 13.0187 16.2981 12.804C16.5874 12.5893 16.7321 12.1507 16.7321 11.488C16.7321 11.012 16.6761 10.6573 16.5641 10.424C16.4521 10.1813 16.2654 10.0227 16.0041 9.948C15.7427 9.87333 15.3834 9.836 14.9261 9.836H12.4481V13.126ZM9.08807 13.126H11.5381V9.836H9.08807C8.64007 9.836 8.28074 9.87333 8.01007 9.948C7.74874 10.0227 7.56207 10.1813 7.45007 10.424C7.33807 10.6573 7.28207 11.012 7.28207 11.488C7.28207 11.9267 7.32874 12.2673 7.42207 12.51C7.52474 12.7433 7.70674 12.9067 7.96807 13C8.2294 13.084 8.60274 13.126 9.08807 13.126Z" fill="white"/>
</svg>
