<svg t="1765336080686" class="icon" viewBox="0 0 1024 1024" version="1.1" xmlns="http://www.w3.org/2000/svg" p-id="4367" width="64" height="64"><path d="M387.968 275.285333a81.664 81.664 0 0 0-117.077333-0.682666l-130.986667 133.546666c-75.690667 77.226667-65.578667 318.976-12.586667 372.992 52.949333 54.016 290.133333 64.256 365.824-12.885333l130.986667-133.546667c32.170667-32.810667 31.872-86.229333-0.64-119.381333l-88.32-90.026667 174.677333-178.048 29.397334 29.994667a40.832 40.832 0 0 0 58.538666 0.298667 42.794667 42.794667 0 0 0-0.341333-59.648l-117.76-120.021334a40.832 40.832 0 0 0-58.538667-0.341333 42.794667 42.794667 0 0 0 0.341334 59.690667l29.482666 30.037333-174.634666 178.048-88.32-90.026667z m177.28 299.392l-130.986667 133.546667c-4.437333 4.565333-17.664 13.312-44.672 20.565333-25.6 6.826667-56.832 10.538667-89.173333 10.666667a378.453333 378.453333 0 0 1-86.272-8.874667 136.405333 136.405333 0 0 1-28.117333-9.344 142.762667 142.762667 0 0 1-9.130667-28.672 400.128 400.128 0 0 1-8.746667-87.936c0.128-32.938667 3.754667-64.853333 10.496-90.88 7.082667-27.562667 15.658667-41.045333 20.096-45.568l130.986667-133.546666 235.52 240.042666zM606.165333 713.386667a42.666667 42.666667 0 0 1 40.96-30.72h199.082667a42.666667 42.666667 0 0 1 40.96 30.72l49.792 170.666666A42.666667 42.666667 0 0 1 896 938.666667h-298.666667a42.666667 42.666667 0 0 1-40.96-54.613334l49.792-170.666666z m72.96 54.613333l-24.917333 85.333333h184.917333l-24.917333-85.333333h-135.082667z" p-id="4368" fill="#FF7A00"></path><path d="M845.226667 477.44L810.666667 384l-34.56 93.44L682.666667 512l93.44 34.56L810.666667 640l34.56-93.44L938.666667 512l-93.44-34.56z" p-id="4369" fill="#FF7A00"></path></svg>