<svg t="1745747068007" class="icon" viewBox="0 0 1024 1024" version="1.1" xmlns="http://www.w3.org/2000/svg" p-id="4303" width="48" height="48"><path d="M511.985301 1023.988635c-63.748739 0-125.599451-12.388327-183.858684-36.812653-56.270281-23.594648-106.801017-57.372729-150.194257-100.39091-43.415971-43.040912-77.500919-93.173857-101.322876-149.012252C51.935119 679.922743 39.421772 618.492553 39.421772 555.187066c0-99.902196 31.243588-195.258217 90.366594-275.770977 28.424959-38.71068 62.521272-72.795628 101.334242-101.28878 39.267587-28.82275 82.524442-51.326316 128.599926-66.874234 17.843737-6.023682 37.187712 3.557382 43.211393 21.401119 6.023682 17.843737-3.557382 37.187712-21.401119 43.211393C217.688661 231.158441 107.614398 383.59169 107.614398 555.187066c0 220.898645 181.392384 400.608943 404.370903 400.608943s404.370903-179.710299 404.370903-400.608943c0-6.262356-0.147751-12.592905-0.431887-18.809799-0.875139-18.809799 13.661256-34.766874 32.471055-35.642012 18.843895-0.89787 34.766874 13.661256 35.653378 32.471055 0.340963 7.27388 0.511445 14.67278 0.511445 21.992121 0 63.305487-12.513347 124.735677-37.187712 182.585755-23.821957 55.838395-57.906904 105.97134-101.322876 149.012252-43.393241 43.018181-93.923976 76.796262-150.194257 100.39091-58.247868 24.424325-120.109944 36.812652-183.858684 36.812652zM466.512185 433.156363L464.352752 0.837849 497.903524 0.133192c2.955014-0.056827 5.921393-0.113654 8.887772-0.12502 121.882952-0.659195 236.901181 38.597026 323.926336 110.392495 42.927258 35.414703 76.762165 76.87582 100.584122 123.235439 24.924405 48.519053 37.699156 100.197698 37.971927 153.592524 0.011365 3.443728-0.022731 6.932917-0.113654 10.376644l-0.863773 33.039327-501.772703 2.511762z m66.374156-364.398659l1.477506 295.86507 365.432914-1.829835C884.157919 204.176892 727.280785 78.15692 532.886341 68.757704z" p-id="4304"></path></svg>