<svg t="1766547035775" class="icon" viewBox="0 0 1024 1024" version="1.1" xmlns="http://www.w3.org/2000/svg" p-id="2650" width="64" height="64"><path d="M992.852506 693.119422c41.471965 41.429299 41.471965 108.330576 0.341333 149.418543L883.199264 950.143208a42.538631 42.538631 0 0 1-60.330616-0.682666 42.666631 42.666631 0 0 1 0.682666-60.330616l80.255933-78.506602h-93.055923c-70.570608 0-127.999893 57.429285-127.999893 127.999894v42.666631a42.666631 42.666631 0 1 1-85.333262 0v-42.666631c0-117.631902 95.701254-213.333156 213.333155-213.333156h93.055923l-80.255933-78.506601a42.666631 42.666631 0 0 1 59.64795-61.013282l109.653242 107.306577zM383.99968 0a170.965191 170.965191 0 0 0-166.314528 132.35189A171.007857 171.007857 0 0 0 85.333262 298.666418v0.895999A212.906489 212.906489 0 0 0 0 469.332942c0 37.802635 10.026658 74.111938 29.269309 106.666578A208.639826 208.639826 0 0 0 0 682.666098c0 71.93594 36.607969 138.410551 96.725253 177.706518A233.215806 233.215806 0 0 0 319.999733 1023.999147h1.706666c82.815931-0.597333 147.626544-72.57594 147.626543-155.434537V85.546595A85.589262 85.589262 0 0 0 383.99968 0z m346.239711 651.007457a127.999893 127.999893 0 0 1 31.615974-124.202563 128.213226 128.213226 0 0 1 181.077183-1.919998l48.767959 47.74396c11.605324-20.565316 23.594647-43.477297 24.831979-48.042626 4.949329-17.962652 7.46666-36.565303 7.466661-55.253288 0-66.901278-32.085307-129.706559-85.333263-169.770525V298.666418a170.965191 170.965191 0 0 0-132.351889-166.314528A171.007857 171.007857 0 0 0 639.999467 0h-0.938666C591.658174 0.256 554.666204 41.685299 554.666204 89.087926v695.892753a299.946417 299.946417 0 0 1 175.573187-133.973222z" p-id="2651"></path></svg>