<svg width="16" height="16" viewBox="0 0 16 16" fill="none" xmlns="http://www.w3.org/2000/svg">
    <mask id="path-1-inside-1_222_6407" fill="white">
        <path d="M14.903 8C15.5089 8 16.0077 8.49341 15.9249 9.09355C15.7405 10.4301 15.22 11.7046 14.4044 12.7941C13.3686 14.1778 11.9125 15.1889 10.2541 15.6759C8.59564 16.1629 6.82409 16.0997 5.20459 15.4957C3.58509 14.8917 2.20476 13.7795 1.2702 12.3255C0.335653 10.8715 -0.102846 9.15388 0.0203447 7.42982C0.143535 5.70576 0.821789 4.06797 1.95358 2.7616C3.08537 1.45523 4.60982 0.550554 6.29874 0.182985C7.62864 -0.106448 9.00419 -0.0505921 10.2966 0.336718C10.8769 0.510635 11.1186 1.16935 10.867 1.72046C10.6153 2.27157 9.96505 2.50305 9.37649 2.35943C8.52446 2.15151 7.63153 2.13818 6.76529 2.32671C5.53954 2.59348 4.43315 3.25006 3.61174 4.19817C2.79033 5.14628 2.29808 6.33493 2.20867 7.58619C2.11926 8.83744 2.43751 10.084 3.11577 11.1393C3.79403 12.1945 4.79583 13.0018 5.9712 13.4401C7.14657 13.8784 8.43229 13.9243 9.63592 13.5709C10.8395 13.2174 11.8963 12.4836 12.6481 11.4794C13.1793 10.7697 13.5381 9.95189 13.7028 9.09047C13.8166 8.49542 14.2972 8 14.903 8Z"/>
    </mask>
    <path d="M14.903 8C15.5089 8 16.0077 8.49341 15.9249 9.09355C15.7405 10.4301 15.22 11.7046 14.4044 12.7941C13.3686 14.1778 11.9125 15.1889 10.2541 15.6759C8.59564 16.1629 6.82409 16.0997 5.20459 15.4957C3.58509 14.8917 2.20476 13.7795 1.2702 12.3255C0.335653 10.8715 -0.102846 9.15388 0.0203447 7.42982C0.143535 5.70576 0.821789 4.06797 1.95358 2.7616C3.08537 1.45523 4.60982 0.550554 6.29874 0.182985C7.62864 -0.106448 9.00419 -0.0505921 10.2966 0.336718C10.8769 0.510635 11.1186 1.16935 10.867 1.72046C10.6153 2.27157 9.96505 2.50305 9.37649 2.35943C8.52446 2.15151 7.63153 2.13818 6.76529 2.32671C5.53954 2.59348 4.43315 3.25006 3.61174 4.19817C2.79033 5.14628 2.29808 6.33493 2.20867 7.58619C2.11926 8.83744 2.43751 10.084 3.11577 11.1393C3.79403 12.1945 4.79583 13.0018 5.9712 13.4401C7.14657 13.8784 8.43229 13.9243 9.63592 13.5709C10.8395 13.2174 11.8963 12.4836 12.6481 11.4794C13.1793 10.7697 13.5381 9.95189 13.7028 9.09047C13.8166 8.49542 14.2972 8 14.903 8Z" stroke="url(#paint0_linear_222_6407)" stroke-width="6" mask="url(#path-1-inside-1_222_6407)"/>
    <defs>
        <linearGradient id="paint0_linear_222_6407" x1="6" y1="1.5" x2="16.5" y2="10.5" gradientUnits="userSpaceOnUse">
            <stop stop-color="#FFB800"/>
            <stop offset="1" stop-color="#FFFDFD" stop-opacity="0"/>
        </linearGradient>
    </defs>
</svg>
