<svg width="37" height="35" viewBox="0 0 37 35" fill="none" xmlns="http://www.w3.org/2000/svg">
    <path d="M27.6045 34.8415C26.2759 34.8415 25.0778 34.6161 24.0102 34.1653C22.9425 33.7145 22.1003 33.0977 21.4834 32.3148C20.8903 31.5318 20.5938 30.654 20.5938 29.6813C20.5938 28.8034 20.831 27.9968 21.3055 27.2613C21.8037 26.5258 22.4799 25.9327 23.334 25.4819V25.3396C22.4562 24.96 21.8037 24.438 21.3767 23.7737C20.9496 23.1331 20.7361 22.3383 20.7361 21.3893C20.7361 20.2031 21.0683 19.2659 21.7326 18.5779C22.4206 17.8899 23.3815 17.4865 24.6152 17.3679C23.7373 16.8459 23.0137 16.1579 22.4443 15.3038C21.8749 14.426 21.5902 13.5007 21.5902 12.528C21.5902 11.5315 21.8749 10.6062 22.4443 9.75212C23.0137 8.87429 23.7611 8.16254 24.6863 7.61686C25.6116 7.07118 26.6081 6.79834 27.6757 6.79834C28.5773 6.79834 29.4195 7 30.2024 7.40333C31.0091 7.78293 31.6971 8.29303 32.2665 8.9336C32.5275 8.29303 32.9071 7.78293 33.4053 7.40333C33.9036 7 34.4611 6.79834 35.078 6.79834C35.6474 6.79834 36.11 6.96442 36.4659 7.29657C36.8218 7.605 36.9997 8.00832 36.9997 8.50655C36.9997 8.95733 36.8692 9.32507 36.6082 9.60977C36.3473 9.87075 35.9914 10.0012 35.5406 10.0012C35.1135 10.0012 34.817 9.89447 34.6509 9.68095C34.5086 9.4437 34.3781 9.21831 34.2594 9.00478C34.1645 8.79125 33.9747 8.68449 33.69 8.68449C33.5002 8.68449 33.346 8.77939 33.2274 8.96919C33.1325 9.13527 33.0613 9.4437 33.0139 9.89447C33.2748 10.2978 33.4647 10.7249 33.5833 11.1756C33.7256 11.6027 33.7968 12.0535 33.7968 12.528C33.7968 13.5007 33.5121 14.426 32.9427 15.3038C32.3733 16.1816 31.6141 16.8934 30.6651 17.4391C29.7398 17.961 28.7433 18.222 27.6757 18.222H25.4337C24.4847 18.222 23.7017 18.4118 23.0849 18.7914C22.468 19.171 22.1596 19.6811 22.1596 20.3217C22.1596 20.7725 22.3375 21.1402 22.6934 21.4249C23.0493 21.6859 23.5238 21.8164 24.1169 21.8164H31.4836C32.5038 21.8164 33.3342 21.9824 33.9747 22.3146C34.6153 22.623 35.0898 23.1213 35.3983 23.8093C35.7067 24.4973 35.8609 25.3751 35.8609 26.4428C35.8609 28.1273 35.5169 29.5982 34.8288 30.8557C34.1408 32.1131 33.18 33.0858 31.9462 33.7739C30.7125 34.4856 29.2653 34.8415 27.6045 34.8415ZM27.9248 33.7739C29.0636 33.7739 30.1194 33.501 31.0921 32.9553C32.0886 32.4097 32.8834 31.686 33.4765 30.7845C34.0934 29.9067 34.4018 28.9576 34.4018 27.9375C34.4018 27.1545 34.212 26.5377 33.8324 26.0869C33.4528 25.6598 32.919 25.4463 32.2309 25.4463H24.7219C24.2949 25.7547 23.9271 26.2886 23.6187 27.0478C23.3103 27.8307 23.1561 28.6018 23.1561 29.361C23.1561 30.6421 23.6068 31.6979 24.5084 32.5283C25.41 33.3587 26.5488 33.7739 27.9248 33.7739ZM27.6401 17.2611C28.3044 17.2611 28.8145 17.1307 29.1704 16.8697C29.5263 16.585 29.7754 16.0986 29.9177 15.4106C30.0601 14.7225 30.1313 13.7735 30.1313 12.5636C30.1313 11.3536 30.0601 10.4164 29.9177 9.75212C29.7754 9.08782 29.5263 8.62518 29.1704 8.3642C28.8145 8.0795 28.3044 7.93715 27.6401 7.93715C26.9995 7.93715 26.5013 8.06764 26.1454 8.32861C25.8133 8.58959 25.576 9.05223 25.4337 9.71653C25.3151 10.3808 25.2557 11.3298 25.2557 12.5636C25.2557 13.7973 25.3151 14.7581 25.4337 15.4462C25.576 16.1105 25.8133 16.585 26.1454 16.8697C26.5013 17.1307 26.9995 17.2611 27.6401 17.2611Z" fill="white"/>
    <path fill-rule="evenodd" clip-rule="evenodd" d="M15.4832 20.8273C18.7829 20.8273 21.4577 18.1525 21.4577 14.8529C21.4577 11.5533 18.7829 8.87842 15.4832 8.87842C12.1836 8.87842 9.50879 11.5533 9.50879 14.8529C9.50879 18.1525 12.1836 20.8273 15.4832 20.8273ZM13.0372 17.7089C13.3683 18.0044 13.7967 18.1522 14.3225 18.1522C14.7509 18.1522 15.1648 18.0521 15.564 17.8519C15.9632 17.6517 16.2553 17.3992 16.4403 17.0941H16.4987C16.5766 17.4277 16.7227 17.6899 16.9369 17.8805C17.1609 18.0616 17.4432 18.1522 17.784 18.1522C18.3488 18.1522 18.86 17.8328 19.3176 17.1942L19.1131 16.9655C18.9379 17.1561 18.7918 17.2991 18.675 17.3944C18.5581 17.4802 18.4559 17.5231 18.3682 17.5231C18.2806 17.5231 18.2027 17.4945 18.1346 17.4373C18.0761 17.3706 18.0469 17.2895 18.0469 17.1942V12.8478C18.0469 12.4093 17.823 12.0567 17.3751 11.7898C16.9272 11.5134 16.3478 11.3752 15.637 11.3752C15.1404 11.3752 14.6925 11.4419 14.2933 11.5753C13.8941 11.7088 13.5776 11.8946 13.3439 12.1329C13.1102 12.3617 12.9934 12.619 12.9934 12.905C12.9934 13.1147 13.0615 13.291 13.1979 13.434C13.3342 13.5674 13.5192 13.6342 13.7529 13.6342C13.9866 13.6342 14.1764 13.5722 14.3225 13.4483C14.4783 13.3148 14.5562 13.148 14.5562 12.9479C14.5562 12.7858 14.5221 12.6667 14.4539 12.5904C14.3858 12.5142 14.3517 12.4284 14.3517 12.3331C14.3517 12.1806 14.4442 12.0567 14.6292 11.9613C14.8142 11.866 15.0528 11.8184 15.3449 11.8184C15.6857 11.8184 15.9535 11.8899 16.1482 12.0328C16.3429 12.1758 16.4403 12.3712 16.4403 12.619V14.3633C15.6419 14.3633 14.9505 14.4539 14.3663 14.635C13.7821 14.8065 13.3293 15.0544 13.008 15.3784C12.6964 15.7025 12.5406 16.0933 12.5406 16.5508C12.5406 17.0274 12.7061 17.4135 13.0372 17.7089ZM16.0898 16.9655C15.8658 17.2323 15.5688 17.3658 15.1988 17.3658C14.897 17.3658 14.6584 17.2705 14.4832 17.0798C14.3176 16.8892 14.2349 16.6223 14.2349 16.2792C14.2349 15.774 14.4199 15.3927 14.7899 15.1354C15.1599 14.8685 15.71 14.7351 16.4403 14.7351V15.8932C16.4403 16.3316 16.3235 16.689 16.0898 16.9655Z" fill="white"/>
    <path d="M6.69951 22.6304C5.4658 22.6304 4.54052 22.3813 3.92367 21.8831C3.33054 21.3849 3.03397 20.6375 3.03397 19.6411V7.0786H0.151367V6.18891C0.981748 6.11773 1.75282 5.79744 2.46457 5.22804C3.20005 4.63491 3.86436 3.88757 4.45748 2.98601C5.07434 2.08445 5.57257 1.09986 5.95217 0.0322266H6.94863V6.18891V7.0786V19.392C6.94863 20.4596 7.38754 20.9934 8.26537 20.9934C8.7636 20.9934 9.21438 20.8273 9.61771 20.4952C10.0448 20.1393 10.4837 19.558 10.9345 18.7514L11.6462 19.1428C11.0531 20.4477 10.3769 21.3612 9.61771 21.8831C8.8585 22.3813 7.88577 22.6304 6.69951 22.6304Z" fill="white"/>
</svg>
