<svg width="40" height="28" viewBox="0 0 40 28" fill="none" xmlns="http://www.w3.org/2000/svg">
    <path d="M35.4199 9.92903H33.5855C33.4356 9.92903 33.3251 9.8954 33.2541 9.82815C33.191 9.75248 33.1594 9.63479 33.1594 9.47506V1.30358C33.1594 1.14385 33.191 1.03036 33.2541 0.963102C33.3251 0.88744 33.4356 0.849609 33.5855 0.849609H37.207C38.2801 0.849609 39.0138 1.07659 39.4083 1.53057C39.8028 1.98454 40.0001 2.57722 40.0001 3.30862V4.92274C40.0001 5.65413 39.8028 6.24682 39.4083 6.70079C39.0138 7.15476 38.2801 7.38175 37.207 7.38175C36.4553 7.38175 35.846 7.9911 35.846 8.74278V9.47506C35.846 9.63479 35.8105 9.75248 35.7395 9.82815C35.6763 9.8954 35.5698 9.92903 35.4199 9.92903ZM36.7744 3.20774C36.2486 3.20774 35.8223 3.634 35.8223 4.15981C35.8223 4.68563 36.2486 5.11189 36.7744 5.11189H36.8875C37.1163 5.11189 37.2662 5.04884 37.3372 4.92274C37.4082 4.79663 37.4437 4.65372 37.4437 4.49399V3.82564C37.4437 3.66591 37.4082 3.52299 37.3372 3.39689C37.2662 3.27079 37.1163 3.20774 36.8875 3.20774H36.7744Z" fill="#3B3B3B"/>
    <path d="M26.1283 9.92903C25.9764 9.92903 25.8645 9.8954 25.7926 9.82815C25.7287 9.75248 25.6967 9.63479 25.6967 9.47506V7.97443C25.6967 7.8147 25.7287 7.70121 25.7926 7.63395C25.8645 7.55829 25.9764 7.52046 26.1283 7.52046C26.7837 7.52046 27.3151 6.9891 27.3151 6.33365V4.47021C27.3151 3.81475 26.7837 3.2834 26.1283 3.2834C25.9764 3.2834 25.8645 3.24977 25.7926 3.18252C25.7287 3.10685 25.6967 2.98916 25.6967 2.82943V1.30358C25.6967 1.14385 25.7287 1.03036 25.7926 0.963102C25.8645 0.88744 25.9764 0.849609 26.1283 0.849609H31.2352C31.387 0.849609 31.4949 0.88744 31.5589 0.963102C31.6308 1.03036 31.6667 1.14385 31.6667 1.30358V2.82943C31.6667 2.98916 31.6308 3.10685 31.5589 3.18252C31.4949 3.24977 31.387 3.2834 31.2352 3.2834C30.593 3.2834 30.0723 3.80402 30.0723 4.44623V6.35762C30.0723 6.99984 30.593 7.52046 31.2352 7.52046C31.387 7.52046 31.4949 7.55829 31.5589 7.63395C31.6308 7.70121 31.6667 7.8147 31.6667 7.97443V9.47506C31.6667 9.63479 31.6308 9.75248 31.5589 9.82815C31.4949 9.8954 31.387 9.92903 31.2352 9.92903H26.1283Z" fill="#3B3B3B"/>
    <path d="M22.1142 9.92903H20.2001C20.0504 9.92903 19.9401 9.8954 19.8692 9.82815C19.8062 9.75248 19.7747 9.63479 19.7747 9.47506V5.0203C19.7747 4.06103 18.9971 3.2834 18.0378 3.2834C17.8881 3.2834 17.7778 3.24977 17.707 3.18252C17.6439 3.10685 17.6124 2.98916 17.6124 2.82943V1.30358C17.6124 1.14385 17.6439 1.03036 17.707 0.963102C17.7778 0.88744 17.8881 0.849609 18.0378 0.849609H24.2765C24.4261 0.849609 24.5325 0.88744 24.5955 0.963102C24.6664 1.03036 24.7018 1.14385 24.7018 1.30358V2.82943C24.7018 2.98916 24.6664 3.10685 24.5955 3.18252C24.5325 3.24977 24.4261 3.2834 24.2765 3.2834C23.3172 3.2834 22.5396 4.06104 22.5396 5.0203V9.47506C22.5396 9.63479 22.5041 9.75248 22.4332 9.82815C22.3702 9.8954 22.2639 9.92903 22.1142 9.92903Z" fill="#3B3B3B"/>
    <path d="M39.0618 27.1504H33.0168C31.2415 27.1504 29.9206 26.7749 29.0542 26.0239C28.2021 25.2729 27.776 24.1164 27.776 22.5544V15.5252C27.776 13.9632 28.2021 12.8067 29.0542 12.0557C29.9206 11.3047 31.2415 10.9292 33.0168 10.9292H39.2305C39.5003 10.9292 39.6921 10.9968 39.8057 11.132C39.9335 11.2521 39.9974 11.4549 39.9974 11.7403V14.4663C39.9974 14.7517 39.9335 14.962 39.8057 15.0971C39.6921 15.2173 39.5003 15.2774 39.2305 15.2774H33.9116C33.4713 15.2774 33.1446 15.375 32.9316 15.5703C32.7185 15.7505 32.612 16.0284 32.612 16.4038V21.7884C32.612 22.1639 32.6901 22.4417 32.8464 22.622C33.0168 22.8022 33.2654 22.8923 33.592 22.8923C34.7333 22.8923 35.6585 21.9671 35.6585 20.8258V19.3777C35.6585 19.0924 35.7153 18.8896 35.8289 18.7694C35.9568 18.6343 36.1556 18.5667 36.4255 18.5667H39.0618C39.3317 18.5667 39.5234 18.6343 39.637 18.7694C39.7649 18.8896 39.8288 19.0924 39.8288 19.3777V26.3393C39.8288 26.6247 39.7649 26.835 39.637 26.9702C39.5234 27.0903 39.3317 27.1504 39.0618 27.1504Z" fill="url(#paint0_linear_513_2817)"/>
    <path d="M18.9277 15.6604L18.3969 17.4954C18.1668 18.2909 18.7636 19.0849 19.5917 19.0849C20.4197 19.0849 21.0166 18.2909 20.7865 17.4954L20.2556 15.6604C20.1994 15.5252 20.1362 15.4276 20.0659 15.3675C20.0097 15.3074 19.9394 15.2774 19.8551 15.2774H19.3282C19.2439 15.2774 19.1666 15.3074 19.0963 15.3675C19.0401 15.4276 18.9839 15.5252 18.9277 15.6604ZM17.7263 26.3393C17.7263 26.6247 17.6631 26.835 17.5366 26.9702C17.4242 27.0903 17.2345 27.1504 16.9675 27.1504H13.8691C13.6021 27.1504 13.4054 27.0903 13.2789 26.9702C13.1665 26.835 13.1103 26.6247 13.1103 26.3393V20.3916C13.1103 19.941 13.1735 19.4228 13.3 18.837C13.4405 18.2513 13.6513 17.5679 13.9323 16.7869L15.7661 11.6727C15.8504 11.4173 15.9768 11.2296 16.1455 11.1094C16.3281 10.9893 16.56 10.9292 16.841 10.9292H22.5109C22.7779 10.9292 22.9957 10.9893 23.1643 11.1094C23.347 11.2296 23.4805 11.4173 23.5648 11.6727L25.3985 16.7869C25.6796 17.5679 25.8833 18.2513 26.0098 18.837C26.1503 19.4228 26.2206 19.941 26.2206 20.3916V26.3393C26.2206 26.6247 26.1573 26.835 26.0309 26.9702C25.9185 27.0903 25.7288 27.1504 25.4618 27.1504H22.2791C21.998 27.1504 21.7872 27.0903 21.6467 26.9702C21.5203 26.835 21.457 26.6247 21.457 26.3393V25.0506C21.457 24.0204 20.6219 23.1852 19.5917 23.1852C18.5614 23.1852 17.7263 24.0204 17.7263 25.0506V26.3393Z" fill="url(#paint1_linear_513_2817)"/>
    <path d="M8.04282 27.1504H4.62304C4.35565 27.1504 4.15862 27.0903 4.03197 26.9702C3.91938 26.835 3.86309 26.6247 3.86309 26.3393V18.3805C3.86309 16.6667 2.47377 15.2774 0.759951 15.2774C0.492561 15.2774 0.295537 15.2173 0.168878 15.0971C0.0562927 14.962 0 14.7517 0 14.4663V11.7403C0 11.4549 0.0562927 11.2521 0.168878 11.132C0.295537 10.9968 0.492561 10.9292 0.759951 10.9292H11.9059C12.1733 10.9292 12.3633 10.9968 12.4759 11.132C12.6025 11.2521 12.6659 11.4549 12.6659 11.7403V14.4663C12.6659 14.7517 12.6025 14.962 12.4759 15.0971C12.3633 15.2173 12.1733 15.2774 11.9059 15.2774C10.1921 15.2774 8.80277 16.6667 8.80277 18.3805V26.3393C8.80277 26.6247 8.73944 26.835 8.61278 26.9702C8.5002 27.0903 8.31021 27.1504 8.04282 27.1504Z" fill="url(#paint2_linear_513_2817)"/>
    <defs>
        <linearGradient id="paint0_linear_513_2817" x1="39.9974" y1="6.95189" x2="22.5114" y2="26.9036" gradientUnits="userSpaceOnUse">
            <stop stop-color="#FCA454"/>
            <stop offset="1" stop-color="#FF7A00"/>
        </linearGradient>
        <linearGradient id="paint1_linear_513_2817" x1="26.2206" y1="6.95189" x2="8.93636" y2="28.1075" gradientUnits="userSpaceOnUse">
            <stop stop-color="#FCA454"/>
            <stop offset="1" stop-color="#FF7A00"/>
        </linearGradient>
        <linearGradient id="paint2_linear_513_2817" x1="12.6659" y1="6.95189" x2="-4.72764" y2="27.5196" gradientUnits="userSpaceOnUse">
            <stop stop-color="#FCA454"/>
            <stop offset="1" stop-color="#FF7A00"/>
        </linearGradient>
    </defs>
</svg>
