<svg width="40" height="27" viewBox="0 0 40 27" fill="none" xmlns="http://www.w3.org/2000/svg">
    <path d="M35.4199 9.07942H33.5855C33.4356 9.07942 33.3251 9.04579 33.2541 8.97854C33.191 8.90287 33.1594 8.78518 33.1594 8.62545V0.453971C33.1594 0.294241 33.191 0.180748 33.2541 0.113493C33.3251 0.0378309 33.4356 0 33.5855 0H37.207C38.2801 0 39.0138 0.226986 39.4083 0.680957C39.8028 1.13493 40.0001 1.72761 40.0001 2.45901V4.07313C40.0001 4.80453 39.8028 5.39721 39.4083 5.85118C39.0138 6.30515 38.2801 6.53214 37.207 6.53214C36.4553 6.53214 35.846 7.14149 35.846 7.89317V8.62545C35.846 8.78518 35.8105 8.90287 35.7395 8.97854C35.6763 9.04579 35.5698 9.07942 35.4199 9.07942ZM36.7744 2.35813C36.2486 2.35813 35.8223 2.78439 35.8223 3.3102C35.8223 3.83602 36.2486 4.26228 36.7744 4.26228H36.8875C37.1163 4.26228 37.2662 4.19923 37.3372 4.07313C37.4082 3.94702 37.4437 3.80411 37.4437 3.64438V2.97603C37.4437 2.8163 37.4082 2.67338 37.3372 2.54728C37.2662 2.42118 37.1163 2.35813 36.8875 2.35813H36.7744Z" fill="#EBEBEB"/>
    <path d="M26.1283 9.07942C25.9764 9.07942 25.8645 9.04579 25.7926 8.97854C25.7287 8.90287 25.6967 8.78518 25.6967 8.62545V7.12482C25.6967 6.96509 25.7287 6.8516 25.7926 6.78434C25.8645 6.70868 25.9764 6.67085 26.1283 6.67085C26.7837 6.67085 27.3151 6.1395 27.3151 5.48404V3.6206C27.3151 2.96514 26.7837 2.43379 26.1283 2.43379C25.9764 2.43379 25.8645 2.40016 25.7926 2.33291C25.7287 2.25724 25.6967 2.13955 25.6967 1.97982V0.453971C25.6967 0.294241 25.7287 0.180748 25.7926 0.113493C25.8645 0.0378309 25.9764 0 26.1283 0H31.2352C31.387 0 31.4949 0.0378309 31.5589 0.113493C31.6308 0.180748 31.6667 0.294241 31.6667 0.453971V1.97982C31.6667 2.13955 31.6308 2.25724 31.5589 2.33291C31.4949 2.40016 31.387 2.43379 31.2352 2.43379C30.593 2.43379 30.0723 2.95441 30.0723 3.59663V5.50801C30.0723 6.15023 30.593 6.67085 31.2352 6.67085C31.387 6.67085 31.4949 6.70868 31.5589 6.78434C31.6308 6.8516 31.6667 6.96509 31.6667 7.12482V8.62545C31.6667 8.78518 31.6308 8.90287 31.5589 8.97854C31.4949 9.04579 31.387 9.07942 31.2352 9.07942H26.1283Z" fill="#EBEBEB"/>
    <path d="M22.1142 9.07942H20.2001C20.0504 9.07942 19.9401 9.04579 19.8692 8.97854C19.8062 8.90287 19.7747 8.78518 19.7747 8.62545V4.17069C19.7747 3.21143 18.9971 2.43379 18.0378 2.43379C17.8881 2.43379 17.7778 2.40016 17.707 2.33291C17.6439 2.25724 17.6124 2.13955 17.6124 1.97982V0.453971C17.6124 0.294241 17.6439 0.180748 17.707 0.113493C17.7778 0.0378309 17.8881 0 18.0378 0H24.2765C24.4261 0 24.5325 0.0378309 24.5955 0.113493C24.6664 0.180748 24.7018 0.294241 24.7018 0.453971V1.97982C24.7018 2.13955 24.6664 2.25724 24.5955 2.33291C24.5325 2.40016 24.4261 2.43379 24.2765 2.43379C23.3172 2.43379 22.5396 3.21143 22.5396 4.17069V8.62545C22.5396 8.78518 22.5041 8.90287 22.4332 8.97854C22.3702 9.04579 22.2639 9.07942 22.1142 9.07942Z" fill="#EBEBEB"/>
    <path d="M39.0618 26.3008H33.0168C31.2415 26.3008 29.9206 25.9253 29.0542 25.1743C28.2021 24.4233 27.776 23.2668 27.776 21.7048V14.6756C27.776 13.1136 28.2021 11.957 29.0542 11.2061C29.9206 10.4551 31.2415 10.0796 33.0168 10.0796H39.2305C39.5003 10.0796 39.6921 10.1472 39.8057 10.2824C39.9335 10.4025 39.9974 10.6053 39.9974 10.8906V13.6167C39.9974 13.9021 39.9335 14.1124 39.8057 14.2475C39.6921 14.3677 39.5003 14.4278 39.2305 14.4278H33.9116C33.4713 14.4278 33.1446 14.5254 32.9316 14.7207C32.7185 14.9009 32.612 15.1787 32.612 15.5542V20.9388C32.612 21.3143 32.6901 21.5921 32.8464 21.7724C33.0168 21.9526 33.2654 22.0427 33.592 22.0427C34.7333 22.0427 35.6585 21.1175 35.6585 19.9762V18.5281C35.6585 18.2428 35.7153 18.04 35.8289 17.9198C35.9568 17.7847 36.1556 17.7171 36.4255 17.7171H39.0618C39.3317 17.7171 39.5234 17.7847 39.637 17.9198C39.7649 18.04 39.8288 18.2428 39.8288 18.5281V25.4897C39.8288 25.7751 39.7649 25.9854 39.637 26.1205C39.5234 26.2407 39.3317 26.3008 39.0618 26.3008Z" fill="#EBEBEB"/>
    <path d="M18.9277 14.8108L18.3969 16.6458C18.1668 17.4413 18.7636 18.2352 19.5917 18.2352C20.4197 18.2352 21.0166 17.4413 20.7865 16.6458L20.2556 14.8108C20.1994 14.6756 20.1362 14.578 20.0659 14.5179C20.0097 14.4578 19.9394 14.4278 19.8551 14.4278H19.3282C19.2439 14.4278 19.1666 14.4578 19.0963 14.5179C19.0401 14.578 18.9839 14.6756 18.9277 14.8108ZM17.7263 25.4897C17.7263 25.7751 17.6631 25.9854 17.5366 26.1205C17.4242 26.2407 17.2345 26.3008 16.9675 26.3008H13.8691C13.6021 26.3008 13.4054 26.2407 13.2789 26.1205C13.1665 25.9854 13.1103 25.7751 13.1103 25.4897V19.5419C13.1103 19.0914 13.1735 18.5732 13.3 17.9874C13.4405 17.4017 13.6513 16.7183 13.9323 15.9372L15.7661 10.8231C15.8504 10.5677 15.9768 10.38 16.1455 10.2598C16.3281 10.1397 16.56 10.0796 16.841 10.0796H22.5109C22.7779 10.0796 22.9957 10.1397 23.1643 10.2598C23.347 10.38 23.4805 10.5677 23.5648 10.8231L25.3985 15.9372C25.6796 16.7183 25.8833 17.4017 26.0098 17.9874C26.1503 18.5732 26.2206 19.0914 26.2206 19.5419V25.4897C26.2206 25.7751 26.1573 25.9854 26.0309 26.1205C25.9185 26.2407 25.7288 26.3008 25.4618 26.3008H22.2791C21.998 26.3008 21.7872 26.2407 21.6467 26.1205C21.5203 25.9854 21.457 25.7751 21.457 25.4897V24.201C21.457 23.1708 20.6219 22.3356 19.5917 22.3356C18.5614 22.3356 17.7263 23.1708 17.7263 24.201V25.4897Z" fill="#EBEBEB"/>
    <path d="M8.04282 26.3008H4.62304C4.35565 26.3008 4.15862 26.2407 4.03197 26.1205C3.91938 25.9854 3.86309 25.7751 3.86309 25.4897V17.5309C3.86309 15.8171 2.47377 14.4278 0.759951 14.4278C0.492561 14.4278 0.295537 14.3677 0.168878 14.2475C0.0562927 14.1124 0 13.9021 0 13.6167V10.8906C0 10.6053 0.0562927 10.4025 0.168878 10.2824C0.295537 10.1472 0.492561 10.0796 0.759951 10.0796H11.9059C12.1733 10.0796 12.3633 10.1472 12.4759 10.2824C12.6025 10.4025 12.6659 10.6053 12.6659 10.8906V13.6167C12.6659 13.9021 12.6025 14.1124 12.4759 14.2475C12.3633 14.3677 12.1733 14.4278 11.9059 14.4278C10.1921 14.4278 8.80277 15.8171 8.80277 17.5309V25.4897C8.80277 25.7751 8.73944 25.9854 8.61278 26.1205C8.5002 26.2407 8.31021 26.3008 8.04282 26.3008Z" fill="#EBEBEB"/>
</svg>
