<svg width="53" height="34" viewBox="0 0 53 34" fill="none" xmlns="http://www.w3.org/2000/svg">
<path d="M46.2291 11.6167H43.882C43.6902 11.6167 43.5489 11.5736 43.4581 11.4876C43.3773 11.3908 43.3369 11.2402 43.3369 11.0358V0.580834C43.3369 0.376467 43.3773 0.231258 43.4581 0.145208C43.5489 0.0484028 43.6902 0 43.882 0H48.5156C49.8885 0 50.8273 0.290417 51.3321 0.871251C51.8368 1.45208 52.0892 2.21039 52.0892 3.14618V5.21137C52.0892 6.14716 51.8368 6.90547 51.3321 7.4863C50.8273 8.06713 49.8885 8.35755 48.5156 8.35755C47.5539 8.35755 46.7742 9.13719 46.7742 10.0989V11.0358C46.7742 11.2402 46.7288 11.3908 46.6379 11.4876C46.5572 11.5736 46.4209 11.6167 46.2291 11.6167ZM47.9621 3.01711C47.2893 3.01711 46.7439 3.56249 46.7439 4.23524C46.7439 4.908 47.2893 5.45338 47.9621 5.45338H48.1068C48.3995 5.45338 48.5913 5.37271 48.6822 5.21137C48.773 5.05003 48.8185 4.86717 48.8185 4.6628V3.80769C48.8185 3.60332 48.773 3.42046 48.6822 3.25912C48.5913 3.09778 48.3995 3.01711 48.1068 3.01711H47.9621Z" fill="#3B3B3B"/>
<path d="M34.3407 11.6167C34.1465 11.6167 34.0033 11.5736 33.9113 11.4876C33.8295 11.3908 33.7886 11.2402 33.7886 11.0358V9.11586C33.7886 8.91149 33.8295 8.76629 33.9113 8.68024C34.0033 8.58343 34.1465 8.53503 34.3407 8.53503C35.1794 8.53503 35.8592 7.85519 35.8592 7.01656V4.63238C35.8592 3.79376 35.1794 3.11391 34.3407 3.11391C34.1465 3.11391 34.0033 3.07089 33.9113 2.98484C33.8295 2.88803 33.7886 2.73745 33.7886 2.53308V0.580834C33.7886 0.376467 33.8295 0.231258 33.9113 0.145208C34.0033 0.0484028 34.1465 0 34.3407 0H40.8748C41.069 0 41.2071 0.0484028 41.2889 0.145208C41.3809 0.231258 41.4269 0.376467 41.4269 0.580834V2.53308C41.4269 2.73745 41.3809 2.88803 41.2889 2.98484C41.2071 3.07089 41.069 3.11391 40.8748 3.11391C40.0531 3.11391 39.387 3.78002 39.387 4.60171V7.04723C39.387 7.86892 40.0531 8.53503 40.8748 8.53503C41.069 8.53503 41.2071 8.58343 41.2889 8.68024C41.3809 8.76629 41.4269 8.91149 41.4269 9.11586V11.0358C41.4269 11.2402 41.3809 11.3908 41.2889 11.4876C41.2071 11.5736 41.069 11.6167 40.8748 11.6167H34.3407Z" fill="#3B3B3B"/>
<path d="M29.2049 11.6167H26.7558C26.5643 11.6167 26.4232 11.5736 26.3325 11.4876C26.2519 11.3908 26.2116 11.2402 26.2116 11.0358V5.3362C26.2116 4.10887 25.2166 3.11391 23.9893 3.11391C23.7978 3.11391 23.6567 3.07089 23.566 2.98484C23.4854 2.88803 23.4451 2.73745 23.4451 2.53308V0.580834C23.4451 0.376467 23.4854 0.231258 23.566 0.145208C23.6567 0.0484028 23.7978 0 23.9893 0H31.9714C32.1629 0 32.2989 0.0484028 32.3796 0.145208C32.4703 0.231258 32.5156 0.376467 32.5156 0.580834V2.53308C32.5156 2.73745 32.4703 2.88803 32.3796 2.98484C32.2989 3.07089 32.1629 3.11391 31.9714 3.11391C30.7441 3.11391 29.7491 4.10886 29.7491 5.3362V11.0358C29.7491 11.2402 29.7038 11.3908 29.613 11.4876C29.5324 11.5736 29.3964 11.6167 29.2049 11.6167Z" fill="#3B3B3B"/>
<path d="M50.8887 33.6503H43.1543C40.8829 33.6503 39.1929 33.1699 38.0844 32.209C36.9941 31.2482 36.449 29.7685 36.449 27.7699V18.7764C36.449 16.7779 36.9941 15.2982 38.0844 14.3373C39.1929 13.3765 40.8829 12.8961 43.1543 12.8961H51.1044C51.4497 12.8961 51.695 12.9825 51.8404 13.1555C52.0039 13.3092 52.0857 13.5686 52.0857 13.9338V17.4216C52.0857 17.7867 52.0039 18.0558 51.8404 18.2287C51.695 18.3825 51.4497 18.4593 51.1044 18.4593H44.2991C43.7358 18.4593 43.3179 18.5843 43.0453 18.8341C42.7727 19.0647 42.6364 19.4202 42.6364 19.9006V26.7899C42.6364 27.2703 42.7364 27.6258 42.9363 27.8564C43.1543 28.087 43.4723 28.2023 43.8903 28.2023C45.3505 28.2023 46.5343 27.0185 46.5343 25.5583V23.7055C46.5343 23.3404 46.6069 23.081 46.7523 22.9273C46.9159 22.7543 47.1703 22.6678 47.5155 22.6678H50.8887C51.2339 22.6678 51.4792 22.7543 51.6246 22.9273C51.7882 23.081 51.8699 23.3404 51.8699 23.7055V32.6126C51.8699 32.9777 51.7882 33.2467 51.6246 33.4197C51.4792 33.5734 51.2339 33.6503 50.8887 33.6503Z" fill="url(#paint0_linear_328_28293)"/>
<path d="M25.1279 18.9494L24.4487 21.2972C24.1543 22.315 24.918 23.3308 25.9774 23.3308C27.0369 23.3308 27.8005 22.315 27.5061 21.2972L26.8269 18.9494C26.755 18.7764 26.6741 18.6515 26.5842 18.5746C26.5123 18.4978 26.4224 18.4593 26.3145 18.4593H25.6403C25.5324 18.4593 25.4336 18.4978 25.3437 18.5746C25.2717 18.6515 25.1998 18.7764 25.1279 18.9494ZM23.5908 32.6126C23.5908 32.9777 23.5099 33.2467 23.348 33.4197C23.2042 33.5734 22.9615 33.6503 22.6199 33.6503H18.6557C18.3141 33.6503 18.0624 33.5734 17.9006 33.4197C17.7567 33.2467 17.6848 32.9777 17.6848 32.6126V25.0027C17.6848 24.4262 17.7657 23.7632 17.9275 23.0137C18.1073 22.2643 18.377 21.3899 18.7366 20.3906L21.0828 13.8473C21.1906 13.5206 21.3524 13.2804 21.5682 13.1267C21.8019 12.9729 22.0985 12.8961 22.4581 12.8961H29.7124C30.054 12.8961 30.3327 12.9729 30.5484 13.1267C30.7822 13.2804 30.953 13.5206 31.0608 13.8473L33.407 20.3906C33.7666 21.3899 34.0273 22.2643 34.1891 23.0137C34.3689 23.7632 34.4588 24.4262 34.4588 25.0027V32.6126C34.4588 32.9777 34.3779 33.2467 34.2161 33.4197C34.0722 33.5734 33.8295 33.6503 33.4879 33.6503H29.4158C29.0562 33.6503 28.7865 33.5734 28.6068 33.4197C28.445 33.2467 28.3641 32.9777 28.3641 32.6126V30.9637C28.3641 29.6456 27.2955 28.577 25.9774 28.577C24.6593 28.577 23.5908 29.6456 23.5908 30.9637V32.6126Z" fill="url(#paint1_linear_328_28293)"/>
<path d="M11.2013 33.6503H6.82584C6.48373 33.6503 6.23165 33.5734 6.06959 33.4197C5.92554 33.2467 5.85352 32.9777 5.85352 32.6126V22.4297C5.85352 20.2369 4.07595 18.4593 1.88321 18.4593C1.5411 18.4593 1.28901 18.3825 1.12696 18.2287C0.982912 18.0558 0.910889 17.7867 0.910889 17.4216V13.9338C0.910889 13.5686 0.982912 13.3092 1.12696 13.1555C1.28901 12.9825 1.5411 12.8961 1.88321 12.8961H16.1439C16.486 12.8961 16.7291 12.9825 16.8732 13.1555C17.0352 13.3092 17.1162 13.5686 17.1162 13.9338V17.4216C17.1162 17.7867 17.0352 18.0558 16.8732 18.2287C16.7291 18.3825 16.486 18.4593 16.1439 18.4593C13.9512 18.4593 12.1736 20.2369 12.1736 22.4296V32.6126C12.1736 32.9777 12.0926 33.2467 11.9305 33.4197C11.7865 33.5734 11.5434 33.6503 11.2013 33.6503Z" fill="url(#paint2_linear_328_28293)"/>
<defs>
<linearGradient id="paint0_linear_328_28293" x1="52.0857" y1="7.80728" x2="29.7131" y2="33.3345" gradientUnits="userSpaceOnUse">
<stop stop-color="#FEB14C"/>
<stop offset="1" stop-color="#FE2C1A"/>
</linearGradient>
<linearGradient id="paint1_linear_328_28293" x1="34.4588" y1="7.80728" x2="12.3445" y2="34.8749" gradientUnits="userSpaceOnUse">
<stop stop-color="#FEB14C"/>
<stop offset="1" stop-color="#FE2C1A"/>
</linearGradient>
<linearGradient id="paint2_linear_328_28293" x1="17.1162" y1="7.80728" x2="-5.13789" y2="34.1227" gradientUnits="userSpaceOnUse">
<stop stop-color="#FEB14C"/>
<stop offset="1" stop-color="#FE2C1A"/>
</linearGradient>
</defs>
</svg>
