<svg width="72" height="29" viewBox="0 0 72 29" fill="none" xmlns="http://www.w3.org/2000/svg">
    <path d="M30.8148 18.3009C29.9296 18.3009 29.1503 18.1085 28.4767 17.7236C27.8032 17.3387 27.3029 16.8576 26.9757 16.2803H26.2829L26.8603 11.8928C26.8603 13.7594 27.2066 15.1353 27.8994 16.0205C28.5922 16.8865 29.4582 17.3195 30.4973 17.3195C31.0361 17.3195 31.4691 17.1655 31.7963 16.8576C32.1234 16.5497 32.3543 15.9724 32.489 15.1257C32.643 14.279 32.72 13.0666 32.72 11.4887C32.72 9.89143 32.643 8.66945 32.489 7.82273C32.3351 6.97601 32.0945 6.39869 31.7674 6.0908C31.4403 5.76365 31.0073 5.60008 30.4685 5.60008C29.4293 5.60008 28.5633 6.03306 27.8705 6.89903C27.197 7.765 26.8603 9.14092 26.8603 11.0268L26.2829 6.63924H26.9757C27.3029 6.06193 27.8032 5.58084 28.4767 5.19596C29.1695 4.81109 29.9585 4.61865 30.8437 4.61865C31.8059 4.61865 32.7103 4.90731 33.5571 5.48462C34.4038 6.04269 35.0869 6.8413 35.6065 7.88046C36.1453 8.90038 36.4148 10.0935 36.4148 11.4598C36.4148 12.8261 36.1453 14.0288 35.6065 15.068C35.0869 16.0879 34.3942 16.8865 33.5282 17.4638C32.6815 18.0219 31.777 18.3009 30.8148 18.3009ZM23.685 26.5853V5.42689H26.8603V26.5853H23.685ZM6.22461 5.68668V4.96504H26.8603V5.68668H6.22461Z" fill="#3B3B3B"/>
    <path d="M18.1765 17.5215V5.6866H21.3517V17.5215H18.1765ZM15.8961 17.9545V17.2328H23.6609V17.9545H15.8961ZM15.6074 5.71285V4.99121H21.3517V5.71285H15.6074Z" fill="#3B3B3B"/>
    <path d="M10.3113 18.3296C9.31059 18.3296 8.56009 18.1276 8.05975 17.7235C7.57866 17.3193 7.33811 16.7132 7.33811 15.9049V5.71538H5V4.99374C5.67353 4.93601 6.29895 4.67622 6.87626 4.21437C7.47282 3.73328 8.01164 3.1271 8.49273 2.39584C8.99307 1.66458 9.39719 0.865967 9.70509 0H10.5133V4.99374H13.8329V5.71538H10.5133V15.7029C10.5133 16.5688 10.8693 17.0018 11.5813 17.0018C11.9855 17.0018 12.3511 16.8671 12.6782 16.5977C13.0246 16.309 13.3806 15.8376 13.7463 15.1833L14.3236 15.5008C13.8425 16.5592 13.294 17.3001 12.6782 17.7235C12.0624 18.1276 11.2734 18.3296 10.3113 18.3296Z" fill="#3B3B3B"/>
    <path d="M59.3799 28.2343C58.3022 28.2343 57.3304 28.0515 56.4645 27.6859C55.5985 27.3203 54.9153 26.8199 54.415 26.1849C53.9339 25.5498 53.6934 24.8378 53.6934 24.0488C53.6934 23.3368 53.8858 22.6825 54.2707 22.086C54.6748 21.4894 55.2232 21.0083 55.916 20.6427V20.5272C55.204 20.2193 54.6748 19.796 54.3284 19.2572C53.982 18.7376 53.8088 18.0929 53.8088 17.3232C53.8088 16.361 54.0782 15.6008 54.6171 15.0428C55.1751 14.4847 55.9545 14.1576 56.9552 14.0614C56.2431 13.638 55.6562 13.0799 55.1944 12.3872C54.7325 11.6751 54.5016 10.9246 54.5016 10.1356C54.5016 9.3274 54.7325 8.5769 55.1944 7.88412C55.6562 7.17211 56.2624 6.59479 57.0129 6.15219C57.7634 5.70958 58.5716 5.48828 59.4376 5.48828C60.1689 5.48828 60.852 5.65185 61.4871 5.979C62.1413 6.28689 62.6994 6.70063 63.1613 7.22021C63.3729 6.70063 63.6808 6.28689 64.085 5.979C64.4891 5.65185 64.9413 5.48828 65.4416 5.48828C65.9035 5.48828 66.2787 5.62299 66.5674 5.8924C66.8561 6.14257 67.0004 6.46971 67.0004 6.87383C67.0004 7.23946 66.8945 7.53774 66.6829 7.76866C66.4712 7.98034 66.1825 8.08618 65.8169 8.08618C65.4705 8.08618 65.23 7.99958 65.0953 7.82639C64.9798 7.63395 64.874 7.45114 64.7777 7.27795C64.7008 7.10475 64.5468 7.01816 64.3159 7.01816C64.1619 7.01816 64.0369 7.09513 63.9406 7.24908C63.8637 7.38379 63.8059 7.63395 63.7674 7.99958C63.9791 8.32673 64.1331 8.67311 64.2293 9.03874C64.3448 9.38513 64.4025 9.75076 64.4025 10.1356C64.4025 10.9246 64.1716 11.6751 63.7097 12.3872C63.2479 13.0992 62.6321 13.6765 61.8623 14.1191C61.1118 14.5424 60.3036 14.7541 59.4376 14.7541H57.6191C56.8493 14.7541 56.2143 14.9081 55.7139 15.216C55.2136 15.5239 54.9634 15.9376 54.9634 16.4572C54.9634 16.8228 55.1078 17.1211 55.3964 17.352C55.6851 17.5637 56.07 17.6695 56.551 17.6695H62.5262C63.3537 17.6695 64.0272 17.8043 64.5468 18.0737C65.0664 18.3238 65.4513 18.728 65.7014 19.286C65.9516 19.8441 66.0767 20.5561 66.0767 21.4221C66.0767 22.7884 65.7976 23.9815 65.2396 25.0014C64.6815 26.0213 63.9021 26.8103 62.9015 27.3684C61.9008 27.9457 60.7269 28.2343 59.3799 28.2343ZM59.6397 27.3684C60.5634 27.3684 61.4197 27.1471 62.2087 26.7045C63.0169 26.2619 63.6616 25.6749 64.1427 24.9437C64.643 24.2317 64.8932 23.4619 64.8932 22.6344C64.8932 21.9994 64.7392 21.499 64.4313 21.1334C64.1234 20.787 63.6905 20.6138 63.1324 20.6138H57.0418C56.6954 20.864 56.3971 21.297 56.1469 21.9128C55.8968 22.5478 55.7717 23.1732 55.7717 23.789C55.7717 24.8282 56.1373 25.6846 56.8686 26.3581C57.5998 27.0316 58.5235 27.3684 59.6397 27.3684ZM59.4087 13.9748C59.9476 13.9748 60.3613 13.8689 60.65 13.6572C60.9386 13.4263 61.1407 13.0318 61.2561 12.4737C61.3716 11.9157 61.4293 11.1459 61.4293 10.1645C61.4293 9.18307 61.3716 8.42295 61.2561 7.88412C61.1407 7.3453 60.9386 6.97005 60.65 6.75837C60.3613 6.52744 59.9476 6.41198 59.4087 6.41198C58.8892 6.41198 58.485 6.51782 58.1964 6.7295C57.927 6.94118 57.7345 7.31643 57.6191 7.85526C57.5229 8.39408 57.4747 9.16383 57.4747 10.1645C57.4747 11.1652 57.5229 11.9445 57.6191 12.5026C57.7345 13.0414 57.927 13.4263 58.1964 13.6572C58.485 13.8689 58.8892 13.9748 59.4087 13.9748Z" fill="url(#paint0_linear_433_1953)"/>
    <path fill-rule="evenodd" clip-rule="evenodd" d="M48.8469 16.8672C51.5233 16.8672 53.6929 14.6976 53.6929 12.0212C53.6929 9.34489 51.5233 7.17529 48.8469 7.17529C46.1706 7.17529 44.001 9.34489 44.001 12.0212C44.001 14.6976 46.1706 16.8672 48.8469 16.8672ZM46.8631 14.3378C47.1316 14.5774 47.4791 14.6973 47.9056 14.6973C48.2531 14.6973 48.5887 14.6161 48.9125 14.4537C49.2364 14.2914 49.4733 14.0865 49.6233 13.8391H49.6707C49.7339 14.1097 49.8524 14.3223 50.0261 14.4769C50.2078 14.6238 50.4368 14.6973 50.7132 14.6973C51.1713 14.6973 51.586 14.4383 51.9572 13.9203L51.7913 13.7347C51.6491 13.8893 51.5307 14.0053 51.4359 14.0826C51.3411 14.1522 51.2582 14.187 51.1871 14.187C51.116 14.187 51.0529 14.1638 50.9976 14.1174C50.9502 14.0633 50.9265 13.9976 50.9265 13.9203V10.3948C50.9265 10.0392 50.7448 9.75315 50.3815 9.53668C50.0182 9.31247 49.5483 9.20037 48.9718 9.20037C48.569 9.20037 48.2057 9.25449 47.8819 9.36273C47.5581 9.47096 47.3014 9.62172 47.1118 9.815C46.9223 10.0005 46.8275 10.2093 46.8275 10.4412C46.8275 10.6113 46.8828 10.7543 46.9934 10.8703C47.1039 10.9785 47.254 11.0327 47.4435 11.0327C47.6331 11.0327 47.7871 10.9824 47.9056 10.8819C48.0319 10.7737 48.0951 10.6384 48.0951 10.476C48.0951 10.3446 48.0675 10.2479 48.0122 10.1861C47.9569 10.1242 47.9293 10.0547 47.9293 9.97736C47.9293 9.85366 48.0043 9.75315 48.1544 9.67584C48.3044 9.59853 48.4979 9.55987 48.7348 9.55987C49.0113 9.55987 49.2285 9.61785 49.3864 9.73382C49.5444 9.84979 49.6233 10.0083 49.6233 10.2093V11.6241C48.9757 11.6241 48.415 11.6975 47.9411 11.8444C47.4672 11.9836 47.1 12.1846 46.8394 12.4475C46.5866 12.7103 46.4603 13.0273 46.4603 13.3984C46.4603 13.785 46.5945 14.0981 46.8631 14.3378ZM49.339 13.7347C49.1574 13.9512 48.9165 14.0594 48.6164 14.0594C48.3715 14.0594 48.178 13.9821 48.0359 13.8275C47.9016 13.6729 47.8345 13.4564 47.8345 13.1781C47.8345 12.7683 47.9845 12.4591 48.2847 12.2503C48.5848 12.0339 49.031 11.9256 49.6233 11.9256V12.865C49.6233 13.2206 49.5286 13.5105 49.339 13.7347Z" fill="url(#paint1_linear_433_1953)"/>
    <path d="M41.7224 18.3296C40.7217 18.3296 39.9712 18.1276 39.4709 17.7235C38.9898 17.3193 38.7492 16.7132 38.7492 15.9049V5.71538H36.4111V4.99374C37.0847 4.93601 37.7101 4.67622 38.2874 4.21437C38.8839 3.73328 39.4228 3.1271 39.9039 2.39584C40.4042 1.66458 40.8083 0.865967 41.1162 0H41.9245V4.99374V5.71538V15.7029C41.9245 16.5688 42.2805 17.0018 42.9925 17.0018C43.3966 17.0018 43.7622 16.8671 44.0894 16.5977C44.4358 16.309 44.7918 15.8376 45.1574 15.1833L45.7347 15.5008C45.2536 16.5592 44.7052 17.3001 44.0894 17.7235C43.4736 18.1276 42.6846 18.3296 41.7224 18.3296Z" fill="url(#paint2_linear_433_1953)"/>
    <defs>
        <linearGradient id="paint0_linear_433_1953" x1="67.0004" y1="-0.0888763" x2="42.4472" y2="21.6647" gradientUnits="userSpaceOnUse">
            <stop stop-color="#FEB14C"/>
            <stop offset="1" stop-color="#FE2C1A"/>
        </linearGradient>
        <linearGradient id="paint1_linear_433_1953" x1="53.6929" y1="4.79892" x2="44.001" y2="19.4765" gradientUnits="userSpaceOnUse">
            <stop stop-color="#FEB14C"/>
            <stop offset="1" stop-color="#FE2C1A"/>
        </linearGradient>
        <linearGradient id="paint2_linear_433_1953" x1="45.7347" y1="-4.49428" x2="26.4634" y2="10.3509" gradientUnits="userSpaceOnUse">
            <stop stop-color="#FEB14C"/>
            <stop offset="1" stop-color="#FE2C1A"/>
        </linearGradient>
    </defs>
</svg>
