<svg width="47" height="43" viewBox="0 0 47 43" fill="none" xmlns="http://www.w3.org/2000/svg">
    <path d="M34.9561 42.1506C33.3473 42.1506 31.8965 41.8776 30.6037 41.3318C29.3109 40.786 28.2911 40.039 27.5441 39.091C26.8259 38.1429 26.4668 37.08 26.4668 35.9021C26.4668 34.8391 26.7541 33.8623 27.3287 32.9717C27.932 32.0812 28.7507 31.3629 29.785 30.8171V30.6447C28.722 30.1851 27.932 29.553 27.4148 28.7486C26.8977 27.973 26.6392 27.0105 26.6392 25.8614C26.6392 24.425 27.0414 23.2902 27.8458 22.457C28.6789 21.6239 29.8424 21.1355 31.3363 20.9919C30.2733 20.3598 29.3971 19.5267 28.7076 18.4925C28.0181 17.4295 27.6734 16.3091 27.6734 15.1312C27.6734 13.9246 28.0181 12.8042 28.7076 11.77C29.3971 10.707 30.3021 9.84514 31.4225 9.18438C32.5429 8.52362 33.7495 8.19324 35.0423 8.19324C36.134 8.19324 37.1539 8.43743 38.1019 8.92582C39.0787 9.38548 39.9118 10.0031 40.6013 10.7788C40.9173 10.0031 41.377 9.38548 41.9803 8.92582C42.5836 8.43743 43.2587 8.19324 44.0057 8.19324C44.6952 8.19324 45.2554 8.39434 45.6863 8.79654C46.1172 9.17001 46.3327 9.6584 46.3327 10.2617C46.3327 10.8075 46.1747 11.2528 45.8587 11.5976C45.5427 11.9136 45.1117 12.0716 44.5659 12.0716C44.0488 12.0716 43.6897 11.9423 43.4886 11.6838C43.3162 11.3965 43.1582 11.1236 43.0145 10.865C42.8996 10.6064 42.6698 10.4772 42.325 10.4772C42.0952 10.4772 41.9085 10.5921 41.7648 10.8219C41.6499 11.023 41.5637 11.3965 41.5063 11.9423C41.8223 12.4307 42.0521 12.9478 42.1958 13.4937C42.3681 14.0108 42.4543 14.5566 42.4543 15.1312C42.4543 16.3091 42.1096 17.4295 41.4201 18.4925C40.7306 19.5554 39.8113 20.4173 38.6621 21.0781C37.5417 21.7101 36.3351 22.0261 35.0423 22.0261H32.3275C31.1783 22.0261 30.2303 22.2559 29.4833 22.7156C28.7364 23.1753 28.3629 23.7929 28.3629 24.5686C28.3629 25.1144 28.5784 25.5597 29.0093 25.9045C29.4402 26.2205 30.0148 26.3785 30.733 26.3785H39.6533C40.8886 26.3785 41.8941 26.5796 42.6698 26.9818C43.4455 27.3553 44.02 27.9586 44.3935 28.7917C44.767 29.6249 44.9537 30.6878 44.9537 31.9806C44.9537 34.0203 44.5372 35.8015 43.704 37.3241C42.8709 38.8468 41.7074 40.0246 40.2135 40.8578C38.7196 41.7196 36.9671 42.1506 34.9561 42.1506ZM35.344 40.8578C36.7229 40.8578 38.0014 40.5274 39.1792 39.8666C40.3859 39.2059 41.3483 38.3297 42.0665 37.238C42.8134 36.175 43.1869 35.0259 43.1869 33.7905C43.1869 32.8425 42.9571 32.0955 42.4974 31.5497C42.0378 31.0326 41.3914 30.774 40.5582 30.774H31.4656C30.9485 31.1475 30.5032 31.7939 30.1297 32.7132C29.7562 33.6612 29.5695 34.5949 29.5695 35.5142C29.5695 37.0656 30.1153 38.344 31.207 39.3495C32.2987 40.355 33.6777 40.8578 35.344 40.8578ZM34.9992 20.8626C35.8036 20.8626 36.4213 20.7046 36.8522 20.3886C37.2832 20.0438 37.5848 19.4549 37.7572 18.6218C37.9296 17.7886 38.0157 16.6395 38.0157 15.1743C38.0157 13.7091 37.9296 12.5744 37.7572 11.77C37.5848 10.9656 37.2832 10.4053 36.8522 10.0893C36.4213 9.74459 35.8036 9.57222 34.9992 9.57222C34.2235 9.57222 33.6202 9.73022 33.1893 10.0462C32.7871 10.3623 32.4998 10.9225 32.3275 11.7269C32.1838 12.5313 32.112 13.6804 32.112 15.1743C32.112 16.6682 32.1838 17.8317 32.3275 18.6649C32.4998 19.4693 32.7871 20.0438 33.1893 20.3886C33.6202 20.7046 34.2235 20.8626 34.9992 20.8626Z" fill="url(#paint0_linear_222_6351)"/>
    <path fill-rule="evenodd" clip-rule="evenodd" d="M19.2325 23.2632C23.228 23.2632 26.4669 20.0242 26.4669 16.0288C26.4669 12.0333 23.228 8.79431 19.2325 8.79431C15.237 8.79431 11.998 12.0333 11.998 16.0288C11.998 20.0242 15.237 23.2632 19.2325 23.2632ZM16.2707 19.6615C16.6715 20.0193 17.1903 20.1982 17.827 20.1982C18.3458 20.1982 18.8469 20.077 19.3303 19.8347C19.8137 19.5923 20.1674 19.2864 20.3915 18.9171H20.4622C20.5565 19.321 20.7334 19.6384 20.9928 19.8693C21.264 20.0886 21.6059 20.1982 22.0186 20.1982C22.7024 20.1982 23.3214 19.8116 23.8756 19.0383L23.628 18.7613C23.4158 18.9921 23.2389 19.1652 23.0974 19.2806C22.9559 19.3845 22.8321 19.4365 22.726 19.4365C22.6199 19.4365 22.5256 19.4018 22.443 19.3326C22.3723 19.2518 22.3369 19.1537 22.3369 19.0383V13.7752C22.3369 13.2443 22.0657 12.8172 21.5234 12.494C20.981 12.1593 20.2795 11.992 19.4187 11.992C18.8174 11.992 18.2751 12.0728 17.7916 12.2344C17.3082 12.3959 16.925 12.621 16.6421 12.9096C16.3591 13.1866 16.2176 13.4982 16.2176 13.8444C16.2176 14.0984 16.3001 14.3119 16.4652 14.485C16.6303 14.6466 16.8543 14.7274 17.1373 14.7274C17.4202 14.7274 17.6502 14.6524 17.827 14.5023C18.0157 14.3407 18.11 14.1388 18.11 13.8964C18.11 13.7002 18.0687 13.5559 17.9862 13.4636C17.9037 13.3712 17.8624 13.2674 17.8624 13.1519C17.8624 12.9673 17.9744 12.8172 18.1984 12.7018C18.4224 12.5864 18.7113 12.5287 19.065 12.5287C19.4777 12.5287 19.8019 12.6152 20.0378 12.7884C20.2736 12.9615 20.3915 13.1981 20.3915 13.4982V15.6103C19.4246 15.6103 18.5875 15.72 17.8801 15.9393C17.1726 16.147 16.6244 16.4471 16.2353 16.8395C15.858 17.232 15.6693 17.7052 15.6693 18.2592C15.6693 18.8363 15.8698 19.3037 16.2707 19.6615ZM19.967 18.7613C19.6958 19.0844 19.3362 19.246 18.8882 19.246C18.5227 19.246 18.2338 19.1306 18.0216 18.8998C17.8211 18.6689 17.7209 18.3458 17.7209 17.9303C17.7209 17.3185 17.9449 16.8569 18.393 16.5452C18.841 16.2221 19.5072 16.0605 20.3915 16.0605V17.4628C20.3915 17.9937 20.25 18.4265 19.967 18.7613Z" fill="url(#paint1_linear_222_6351)"/>
    <path d="M8.59612 27.3641C7.10222 27.3641 5.9818 27.0624 5.23486 26.4591C4.51664 25.8558 4.15753 24.9509 4.15753 23.7443V8.53243H0.666992V7.4551C1.6725 7.36891 2.60618 6.98108 3.46804 6.29159C4.35863 5.57337 5.16303 4.66842 5.88125 3.57672C6.6282 2.48503 7.2315 1.29279 7.69116 0H8.89777V7.4551H10.342V8.53243H8.89777V23.4426C8.89777 24.7354 9.42925 25.3818 10.4922 25.3818C11.0955 25.3818 11.6414 25.1807 12.1297 24.7785C12.6469 24.3476 13.1783 23.6437 13.7242 22.667L14.5861 23.141C13.8678 24.7211 13.0491 25.8271 12.1297 26.4591C11.2104 27.0624 10.0326 27.3641 8.59612 27.3641Z" fill="url(#paint2_linear_222_6351)"/>
    <defs>
        <linearGradient id="paint0_linear_222_6351" x1="46.3327" y1="-0.132838" x2="9.67746" y2="32.3428" gradientUnits="userSpaceOnUse">
            <stop stop-color="#FEB14C"/>
            <stop offset="1" stop-color="#FE2C1A"/>
        </linearGradient>
        <linearGradient id="paint1_linear_222_6351" x1="26.4669" y1="5.24665" x2="11.998" y2="27.1587" gradientUnits="userSpaceOnUse">
            <stop stop-color="#FEB14C"/>
            <stop offset="1" stop-color="#FE2C1A"/>
        </linearGradient>
        <linearGradient id="paint2_linear_222_6351" x1="14.5861" y1="-6.70946" x2="-14.1838" y2="15.4528" gradientUnits="userSpaceOnUse">
            <stop stop-color="#FEB14C"/>
            <stop offset="1" stop-color="#FE2C1A"/>
        </linearGradient>
    </defs>
</svg>
