<svg width="33" height="33" viewBox="0 0 33 33" fill="none" xmlns="http://www.w3.org/2000/svg">
    <path d="M11.7438 2.53125C11.6866 2.89062 11.5824 3.14844 11.4313 3.30469C11.2855 3.46094 11.0277 3.53906 10.6579 3.53906C10.2881 3.53906 9.98343 3.40365 9.74385 3.13281V2.03125C9.13447 2.07812 8.43916 2.10938 7.65791 2.125V8.86719C7.65791 10.0651 7.72301 11.1094 7.85322 12C7.44697 12.1354 6.93395 12.2031 6.31416 12.2031C5.69958 12.2031 5.28031 12.1354 5.05635 12L5.25947 9.48438V2.125L3.04072 2.04688V3.13281C2.97301 3.23177 2.84801 3.32552 2.66572 3.41406C2.48343 3.4974 2.25426 3.53906 1.97822 3.53906C1.70218 3.53906 1.48864 3.46094 1.3376 3.30469C1.19176 3.14844 1.0876 2.89323 1.0251 2.53906C0.967806 2.1849 0.93916 1.81771 0.93916 1.4375C0.93916 1.05208 0.98864 0.807292 1.0876 0.703125C2.40531 0.765625 4.07718 0.796875 6.10322 0.796875C8.12926 0.796875 9.99124 0.765625 11.6892 0.703125C11.7881 0.807292 11.8376 1.04688 11.8376 1.42188C11.8376 1.79688 11.8063 2.16667 11.7438 2.53125ZM19.5688 7.58594L19.522 10.2109C19.522 10.237 19.522 10.263 19.522 10.2891C19.522 10.5755 19.6574 10.7188 19.9282 10.7188C20.1366 10.7188 20.3579 10.651 20.5923 10.5156C20.6652 10.5781 20.7329 10.6667 20.7954 10.7812C20.8631 10.8906 20.9022 10.9766 20.9126 11.0391C20.2668 11.862 19.5949 12.2734 18.897 12.2734C18.2043 12.2734 17.7199 11.9323 17.4438 11.25C16.9647 11.5833 16.4751 11.8359 15.9751 12.0078C15.4803 12.1849 15.0532 12.2734 14.6938 12.2734C14.3397 12.2734 14.009 12.2344 13.7017 12.1562C13.3996 12.0781 13.1183 11.9531 12.8579 11.7812C12.2954 11.4167 12.0142 10.8151 12.0142 9.97656C12.0142 9.52865 12.1366 9.13802 12.3813 8.80469C12.6313 8.46615 12.9699 8.20052 13.397 8.00781C14.2147 7.63802 15.1912 7.4375 16.3267 7.40625L17.2329 7.375C17.2694 6.95312 17.2876 6.61979 17.2876 6.375C17.2876 5.82292 17.1808 5.40625 16.9673 5.125C16.759 4.84375 16.3683 4.70312 15.7954 4.70312C15.4517 4.70312 15.1834 4.82292 14.9907 5.0625C14.8032 5.30208 14.7095 5.65625 14.7095 6.125C14.7095 6.1875 14.6209 6.26302 14.4438 6.35156C14.147 6.49219 13.8501 6.5625 13.5532 6.5625C13.2616 6.5625 13.0272 6.47917 12.8501 6.3125C12.6782 6.14583 12.5923 5.91146 12.5923 5.60938C12.5923 5.30729 12.7017 5.02344 12.9204 4.75781C13.1392 4.49219 13.4308 4.28646 13.7954 4.14062C14.5194 3.85417 15.3449 3.71094 16.272 3.71094C17.2407 3.71094 17.9491 3.86458 18.397 4.17188C18.8032 4.44271 19.0923 4.83073 19.2642 5.33594C19.4673 5.92448 19.5688 6.67448 19.5688 7.58594ZM17.2329 10.4297C17.1652 10.0495 17.1313 9.72135 17.1313 9.44531C17.1313 9.16406 17.1392 8.77344 17.1548 8.27344L16.0688 8.32031C15.5116 8.32031 15.0819 8.45573 14.7798 8.72656C14.4777 8.9974 14.3267 9.33594 14.3267 9.74219C14.3267 10.1484 14.4152 10.4401 14.5923 10.6172C14.7694 10.7943 15.1261 10.8828 15.6626 10.8828C16.2043 10.8828 16.7277 10.7318 17.2329 10.4297ZM28.9407 5.07031C29.2376 4.5599 29.5996 4.14583 30.0267 3.82812C30.4537 3.50521 30.8704 3.34375 31.2767 3.34375C31.6881 3.34375 31.998 3.4349 32.2063 3.61719C32.4199 3.79948 32.5267 4.04427 32.5267 4.35156C32.5267 4.97135 32.1491 5.42969 31.3938 5.72656C31.1907 5.42448 30.8678 5.27344 30.4251 5.27344C30.1126 5.27344 29.7949 5.47917 29.472 5.89062C29.6334 6.27604 29.7142 6.6224 29.7142 6.92969C29.7142 8.86719 28.8001 10.0729 26.972 10.5469C26.998 10.7292 27.2402 10.974 27.6985 11.2812C27.8965 11.4115 28.1152 11.5521 28.3548 11.7031C28.5944 11.8542 28.8287 12.0208 29.0579 12.2031C29.2923 12.3854 29.5058 12.5755 29.6985 12.7734C30.1308 13.2161 30.347 13.6953 30.347 14.2109C30.347 15.3464 29.9277 16.2083 29.0892 16.7969C28.2506 17.3854 27.0605 17.6797 25.5188 17.6797C23.5605 17.6797 22.2168 17.2552 21.4876 16.4062C21.1699 16.0417 21.011 15.6016 21.011 15.0859C21.011 14.0182 21.5813 13.3099 22.722 12.9609C23.2011 12.8151 23.636 12.7109 24.0267 12.6484C24.7871 12.5182 25.3496 12.388 25.7142 12.2578C25.0996 11.7526 24.7558 11.2448 24.6829 10.7344C23.6933 10.6615 22.8678 10.3333 22.2063 9.75C21.5449 9.16667 21.2142 8.42448 21.2142 7.52344C21.2142 6.24219 21.6491 5.27344 22.5188 4.61719C23.3886 3.96094 24.5813 3.63281 26.097 3.63281C26.6022 3.63281 27.11 3.76823 27.6204 4.03906C28.136 4.30469 28.5761 4.64844 28.9407 5.07031ZM25.2767 4.60938C24.1048 4.60938 23.5188 5.47917 23.5188 7.21875C23.5188 8.04167 23.7298 8.69792 24.1517 9.1875C24.5787 9.67708 25.1204 9.92188 25.7767 9.92188C26.0996 9.92188 26.3938 9.79427 26.6595 9.53906C27.1907 9.02865 27.4563 8.34375 27.4563 7.48438C27.4563 6.625 27.248 5.93229 26.8313 5.40625C26.4199 4.875 25.9017 4.60938 25.2767 4.60938ZM28.347 14.7812C28.347 14.4635 28.1803 14.1536 27.847 13.8516C27.5345 13.5651 27.1152 13.2474 26.5892 12.8984C26.3027 13.1589 25.7819 13.3542 25.0267 13.4844C24.7558 13.5312 24.4902 13.5911 24.2298 13.6641C23.6621 13.8255 23.3782 14.1641 23.3782 14.6797C23.3782 15.2005 23.597 15.6406 24.0345 16C24.472 16.3646 25.1022 16.5469 25.9251 16.5469C26.748 16.5469 27.3574 16.3854 27.7532 16.0625C28.1491 15.7448 28.347 15.3177 28.347 14.7812ZM15.6938 16.125C15.9751 15.8906 16.2798 15.7734 16.6079 15.7734C16.936 15.7734 17.2069 15.875 17.4204 16.0781C17.6392 16.2812 17.7485 16.5651 17.7485 16.9297C17.7485 17.2943 17.5923 17.625 17.2798 17.9219C17.035 18.1354 16.7459 18.2422 16.4126 18.2422C16.0793 18.2422 15.798 18.1406 15.5688 17.9375C15.3449 17.7292 15.2329 17.4453 15.2329 17.0859C15.2329 16.7266 15.3866 16.4062 15.6938 16.125ZM5.6501 22C5.78031 22.6094 5.84541 23.3177 5.84541 24.125C5.84541 24.1823 5.84541 24.237 5.84541 24.2891L5.82197 25.7422L8.88447 25.5703C8.96781 25.6693 9.00947 25.8724 9.00947 26.1797C9.00947 26.487 8.98343 26.7891 8.93135 27.0859C8.64489 27.1276 8.27249 27.1484 7.81416 27.1484C7.35583 27.1484 6.69176 27.0964 5.82197 26.9922L5.80635 29.2188C5.80635 30.2448 5.87666 31.1719 6.01729 32C5.57458 32.1354 5.03551 32.2031 4.4001 32.2031C3.76989 32.2031 3.37145 32.1354 3.20479 32C3.36104 30.6094 3.43916 28.9714 3.43916 27.0859V22.8125C3.43916 22.4583 3.38968 22.2214 3.29072 22.1016C3.19697 21.9766 3.01729 21.8724 2.75166 21.7891C2.67354 21.6849 2.63447 21.5182 2.63447 21.2891C2.63447 21.0547 2.64229 20.8906 2.65791 20.7969C3.10062 20.7917 3.72822 20.7865 4.54072 20.7812C5.35322 20.776 5.9626 20.7708 6.36885 20.7656C7.49906 20.75 8.91833 20.7083 10.6267 20.6406C10.71 20.7135 10.7517 21.0495 10.7517 21.6484C10.7517 22.2474 10.6709 22.7005 10.5095 23.0078C10.348 23.3151 10.0459 23.4688 9.60322 23.4688C9.16051 23.4688 8.85062 23.3307 8.67354 23.0547V22.1094C7.1527 22.0365 6.14489 22 5.6501 22ZM11.272 24.9062C10.9282 24.9062 10.7563 24.7578 10.7563 24.4609C10.7563 24.3776 10.7616 24.3151 10.772 24.2734C10.9543 24.1432 11.3996 24.0182 12.1079 23.8984C12.8162 23.7734 13.3892 23.7109 13.8267 23.7109C13.9881 24.237 14.0688 24.8281 14.0688 25.4844C14.0688 26.1406 14.035 26.8906 13.9673 27.7344C13.9048 28.5729 13.8735 29.1641 13.8735 29.5078C13.8735 29.8516 13.9256 30.1302 14.0298 30.3438C14.134 30.5521 14.3475 30.6562 14.6704 30.6562C14.9985 30.6562 15.3345 30.5781 15.6782 30.4219C16.0272 30.2604 16.4699 29.9661 17.0063 29.5391C17.0063 27.9349 17.0116 26.0286 17.022 23.8203C17.6209 23.7266 18.1027 23.6797 18.4673 23.6797C18.8371 23.6797 19.1574 23.7266 19.4282 23.8203C19.3501 24.9609 19.311 26.0573 19.311 27.1094C19.311 28.1562 19.3397 29.2474 19.397 30.3828C19.4074 30.5547 19.4412 30.6875 19.4985 30.7812C19.5558 30.875 19.7043 30.9297 19.9438 30.9453C20.1886 30.9609 20.3579 30.987 20.4517 31.0234C20.4725 31.1328 20.4829 31.3099 20.4829 31.5547C20.0298 31.8099 19.5741 31.9922 19.1157 32.1016C18.6574 32.2161 18.2694 32.2734 17.9517 32.2734C17.634 32.2734 17.4152 32.1562 17.2954 31.9219C17.1808 31.6875 17.0897 31.2188 17.022 30.5156C15.7511 31.6875 14.5376 32.2734 13.3813 32.2734C12.2251 32.2734 11.647 31.3568 11.647 29.5234L11.7798 25.3906C11.7798 25.2135 11.7251 25.0885 11.6157 25.0156C11.5116 24.9427 11.397 24.9062 11.272 24.9062ZM27.4173 30.3047L27.4954 27.3281C27.4954 26.651 27.472 26.224 27.4251 26.0469C27.3834 25.8698 27.3287 25.737 27.261 25.6484C27.1152 25.4661 26.9017 25.375 26.6204 25.375C26.3392 25.375 26.0996 25.4062 25.9017 25.4688C25.4954 25.6042 24.9746 25.9844 24.3392 26.6094C24.3392 27.2865 24.3235 29.0885 24.2923 32.0156C23.7142 32.1146 23.2324 32.1641 22.847 32.1641C22.4616 32.1641 22.136 32.1146 21.8704 32.0156C21.9642 30.75 22.011 29.5833 22.011 28.5156C22.011 27.4427 21.998 26.5182 21.972 25.7422C21.972 25.3464 21.8313 25.112 21.5501 25.0391C21.373 24.9818 21.123 24.9401 20.8001 24.9141C20.7688 24.7786 20.7532 24.6719 20.7532 24.5938C20.7532 24.5104 20.7636 24.4349 20.7845 24.3672C21.5345 23.9453 22.4668 23.7344 23.5813 23.7344C23.7636 23.7344 23.8991 23.737 23.9876 23.7422C24.1907 24.0911 24.3027 24.6901 24.3235 25.5391C25.2975 24.2891 26.4381 23.6641 27.7454 23.6641C28.3496 23.6641 28.8209 23.8698 29.1595 24.2812C29.5032 24.6875 29.6985 25.2396 29.7454 25.9375C29.7662 26.2552 29.7767 26.5729 29.7767 26.8906C29.7767 27.2083 29.761 27.5521 29.7298 27.9219C29.6412 29.0469 29.597 29.9089 29.597 30.5078C29.597 30.6432 29.6933 30.7474 29.886 30.8203C30.0787 30.8932 30.2662 30.9297 30.4485 30.9297C30.636 30.9297 30.7636 30.9193 30.8313 30.8984C30.8938 31.0391 30.9251 31.1693 30.9251 31.2891C30.9251 31.4036 30.9199 31.4818 30.9095 31.5234C29.9355 32.0286 29.209 32.2812 28.7298 32.2812C28.2506 32.2812 27.9121 32.1198 27.7142 31.7969C27.5162 31.4688 27.4173 30.9714 27.4173 30.3047Z" fill="#ECECEC"/>
</svg>
